<svg width="306" height="219" viewBox="0 0 306 219" fill="none" xmlns="http://www.w3.org/2000/svg">
<g clip-path="url(#clip0_8285_1207)">
<path d="M24 -14.72L152.66 -89V84.29L24 158.605V-14.72Z" stroke="#444444" stroke-width="0.5" stroke-linejoin="round"/>
<path d="M281.32 -14.72V158.605L152.66 84.325V-89L281.32 -14.72Z" stroke="#444444" stroke-width="0.5" stroke-linejoin="round"/>
<path d="M24 158.605L88.33 121.465L152.66 158.605L88.095 195.745L24 158.605Z" stroke="#444444" stroke-width="0.5" stroke-linejoin="round"/>
<path d="M152.66 158.605V84.2899L88.3901 47.1499L88.3301 121.465L152.66 158.605Z" stroke="#444444" stroke-width="0.5" stroke-linejoin="round"/>
<path d="M216.99 270.01V195.695L152.72 158.555L152.66 232.87L216.99 270.01Z" stroke="#444444" stroke-width="0.5" stroke-linejoin="round"/>
<path d="M152.661 84.29L216.991 47.185L152.721 10.01L88.3906 47.15L152.661 84.29Z" stroke="#444444" stroke-width="0.5" stroke-linejoin="round"/>
<path d="M216.959 195.715L281.289 158.605L217.019 121.43L152.689 158.57L216.959 195.715Z" stroke="#444444" stroke-width="0.5" stroke-linejoin="round"/>
<path d="M152.66 158.605L216.99 121.465V47.1851L152.66 84.2901V158.605Z" stroke="#444444" stroke-width="0.5" stroke-linejoin="round"/>
<path d="M88.3301 270.03L152.66 232.89V158.605L88.3301 195.715V270.03Z" stroke="#444444" stroke-width="0.5" stroke-linejoin="round"/>
</g>
<defs>
<clipPath id="clip0_8285_1207">
<rect width="306" height="219" fill="white"/>
</clipPath>
</defs>
</svg>
