<svg width="238" height="180" viewBox="0 0 238 180" fill="none" xmlns="http://www.w3.org/2000/svg">
<path d="M190.03 115.354C190.062 111.971 190.127 108.587 190.156 105.202C190.167 103.932 190.01 103.491 189.567 102.045C188.399 98.2294 187.222 94.453 186.049 90.7115C183.9 84.31 181.752 78.3818 179.593 72.193C179.233 71.1593 178.86 70.3493 178.493 69.3222C178.199 68.5709 178.343 67.8152 179.146 67.8087C182.573 67.7783 186.002 67.8239 189.428 67.7957C190.232 67.7891 190.597 68.2799 190.744 68.9878C191.014 70.0236 191.283 70.8466 191.552 71.8868C192.872 76.5012 194.193 80.8009 195.511 85.5217C195.73 86.5358 196.314 86.6379 196.677 85.5739C198.03 80.9593 199.398 76.8052 200.737 72.0757C201.066 70.9161 201.367 69.9628 201.682 68.7924C201.899 68.1344 202.119 67.8391 202.849 67.8326C206.153 67.8065 209.461 67.8543 212.766 67.8282C213.496 67.8217 213.787 68.5796 213.496 69.3396C213.106 70.5035 212.705 71.4416 212.329 72.599C210.106 79.474 207.914 85.5522 205.712 92.1491C204.601 95.743 203.489 99.2977 202.376 102.82C201.797 104.444 201.645 104.937 201.654 106.396C201.676 109.903 201.715 113.413 201.739 116.922C201.743 117.654 201.304 118.099 200.506 117.981C197.43 117.534 194.351 117.111 191.27 116.713C190.542 116.62 190.023 116.131 190.03 115.354ZM166.934 85.4956C166.921 79.6889 164.434 77.0571 160.786 77.0311C160.665 77.0311 160.543 77.0311 160.421 77.0289C159.766 77.0224 159.181 77.2157 159.183 78.2037C159.194 82.8746 159.203 87.4 159.214 92.0709C159.214 92.9916 159.507 93.2002 160.31 93.2305C160.384 93.2328 160.456 93.2371 160.53 93.2392C163.961 93.3782 166.949 91.7171 166.934 85.4956ZM147.714 111.671C147.794 107.78 147.896 103.888 147.987 99.9948C147.974 92.4162 147.961 84.981 147.948 77.4024C147.846 74.473 147.744 71.5459 147.642 68.6187C147.642 68.0367 148.005 67.6458 148.66 67.6393C152.454 67.6046 156.245 67.5829 160.039 67.5351C172.729 67.3766 178.871 73.5523 178.896 85.6129C178.912 92.0688 177.17 95.6105 174.769 98.2402C173.895 99.2717 173.811 99.5387 174.339 101.063C175.77 105.215 177.222 109.404 178.669 113.643C179.033 114.711 178.745 115.228 177.943 115.141C174.688 114.794 171.429 114.474 168.169 114.183C167.514 114.125 167.153 113.623 166.999 113.145C165.904 109.754 164.797 106.392 163.692 103.054C163.401 102.173 163.034 102.021 162.45 102.053C161.939 102.025 161.427 102.062 160.771 102.025C160.673 102.021 160.575 102.014 160.48 102.01C159.75 101.969 159.227 102.273 159.242 103.324C159.286 106.353 159.359 109.382 159.407 112.414C159.416 112.939 159.116 113.445 158.387 113.391C155.197 113.158 152.007 112.95 148.815 112.77C148.011 112.724 147.707 112.127 147.716 111.675L147.714 111.671ZM132.342 89.7931C132.333 80.6532 129.996 76.8052 125.909 76.827C121.896 76.8487 119.634 80.6836 119.634 89.7387C119.634 99.4888 121.973 102.824 125.92 102.879C129.942 102.933 132.35 99.6322 132.344 89.7931H132.342ZM107.58 89.8169C107.595 74.5621 114.513 67.2397 125.977 67.2397C137.44 67.2397 144.291 74.2993 144.317 89.9667C144.343 105.521 137.264 112.707 125.994 112.474C114.726 112.24 107.565 104.961 107.58 89.8169ZM86.9503 111.38C87.0807 102.238 87.2282 93.1003 87.3674 83.9647C87.3457 82.0668 87.3196 80.0778 87.3044 78.1798C87.2977 77.3568 86.933 77.1353 86.0557 77.131C83.9884 77.1201 81.9191 77.0962 79.8647 77.1353C79.0613 77.1505 78.6248 76.5881 78.6269 76.0126C78.6313 73.611 78.6378 71.3092 78.6422 68.9053C78.6422 68.2669 79.083 67.8087 79.8843 67.8044C84.2361 67.787 88.5876 67.9042 92.9394 67.8956C97.2194 67.8869 101.497 67.8543 105.775 67.7892C106.505 67.7783 107.015 68.1518 107.015 68.8423C107.015 71.1854 107.011 73.6088 107.009 75.9518C107.009 76.6424 106.496 77.0311 105.767 77.0333C103.821 77.0419 101.875 77.0333 99.9294 77.0463C98.9806 77.0528 98.6896 77.3785 98.6875 78.1342C98.6831 81.5501 98.6547 84.9657 98.6743 88.3837C98.7134 95.9059 98.8068 103.428 98.8633 110.95C98.8675 111.641 98.2769 112.034 97.6189 112.053C94.4747 112.144 91.3325 112.26 88.1902 112.398C87.3868 112.435 86.9416 112.012 86.9503 111.38ZM46.697 102.407C46.697 101.732 47.064 101.161 47.9413 101.087C51.0097 100.831 54.078 100.59 57.1486 100.366C57.8802 100.312 58.4579 100.668 58.5362 101.322C58.89 104.331 60.3558 105.215 62.1104 105.083C63.9388 104.944 65.0376 103.812 65.042 102.173C65.0464 100.342 63.8042 99.1023 58.7663 96.0035C50.9532 91.832 46.5146 88.16 46.5146 81.1917C46.5146 72.7836 52.534 67.3331 61.8281 67.2484C70.6705 67.1681 75.7302 72.0062 76.6661 80.0517C76.7334 80.6248 76.2361 81.2198 75.4306 81.2417C72.4295 81.3285 69.7693 81.4241 66.7684 81.5282C66.0365 81.5543 65.3937 81.322 65.3069 80.601C64.9594 77.6999 63.7066 76.5664 61.8043 76.6185C59.7564 76.6749 58.5057 78.1146 58.5057 80.0951C58.5057 83.0113 60.1539 84.3338 66.5339 87.856C74.0603 91.6215 76.9093 94.6854 76.8962 100.913C76.881 108.431 71.9713 114.057 62.2343 114.828C53.2289 115.541 47.0487 112.272 46.697 102.407Z" fill="white"/>
<path d="M30.2982 116.637C30.3373 113.371 30.4242 110.108 30.4437 106.846C30.4719 102.216 30.4437 98.8896 30.4437 94.2578C30.3721 91.0982 30.2982 89.0244 30.2266 85.8627C30.2266 85.0941 30.7347 84.6076 31.4643 84.6141C34.4979 84.6424 37.4686 84.6836 40.5673 84.6185C41.2969 84.6032 41.8789 84.9681 41.8768 85.715C41.8007 88.5033 41.7247 90.2057 41.6488 92.9961C41.6444 97.0265 41.6139 99.5367 41.6335 103.569C41.6531 107.506 41.7291 111.222 41.7637 115.154C41.7704 115.901 41.1818 116.379 40.5282 116.461C37.525 116.837 34.5262 117.232 31.5273 117.654C30.7304 117.764 30.2852 117.339 30.2939 116.64L30.2982 116.637Z" fill="white"/>
<path d="M35.2825 66.7493C35.4258 66.3649 35.669 65.9675 36.1033 65.9675C36.5376 65.9675 36.783 66.3693 36.9241 66.7493L37.5886 68.5712C38.2683 70.4061 39.8253 72 41.6602 72.6797L43.4778 73.3029C43.8643 73.4462 44.2595 73.6699 44.2595 74.0998C44.2595 74.5298 43.8752 74.7491 43.4778 74.8968L41.6558 75.5178C39.8187 76.1975 38.2683 77.8001 37.5886 79.635L36.9241 81.4503C36.7808 81.8348 36.5441 82.2322 36.1033 82.2322C35.6277 82.2322 35.428 81.8456 35.2825 81.4503L34.631 79.648C33.9535 77.8131 32.3813 76.1997 30.5464 75.52L28.731 74.8989C28.338 74.7534 27.9428 74.5298 27.9493 74.102C27.9558 73.6742 28.3358 73.4506 28.731 73.3051L30.5464 72.684C32.3813 72.0043 33.9513 70.4148 34.631 68.5798L35.2825 66.7536V66.7493Z" fill="white"/>
<path d="M27.9478 62.4799C28.026 62.2714 28.1476 62 28.4299 62C28.7122 62 28.836 62.2736 28.912 62.4799L29.1617 63.2443C29.6655 64.7339 30.0998 65.1682 31.6394 65.7263L32.4037 65.9565C32.6122 66.0347 32.8641 66.1259 32.8641 66.4255C32.8641 66.7252 32.6209 66.8142 32.4037 66.8946L31.6394 67.1313C30.102 67.5547 29.6676 68.2062 29.1943 69.6263L28.9445 70.3907C28.8664 70.5992 28.7122 70.8576 28.4321 70.8576C28.1367 70.8576 27.9999 70.6057 27.9196 70.3907L27.6699 69.6263C27.1769 68.293 26.5515 67.6177 25.2182 67.1248L24.4604 66.8946C24.2476 66.8142 24 66.7274 24 66.4255C24 66.102 24.2454 66.0368 24.4604 65.9565L25.2182 65.7263C26.8425 65.1682 27.2768 64.7339 27.7003 63.2247L27.95 62.4799L27.9478 62.4799Z" fill="white"/>
</svg>
