<svg width="391" height="180" viewBox="0 0 391 180" fill="none" xmlns="http://www.w3.org/2000/svg">
<mask id="mask0_8285_1124" style="mask-type:luminance" maskUnits="userSpaceOnUse" x="24" y="75" width="343" height="30">
<path d="M366.857 75H24V105H366.857V75Z" fill="white"/>
</mask>
<g mask="url(#mask0_8285_1124)">
<path fill-rule="evenodd" clip-rule="evenodd" d="M239.56 76.7806C241.984 77.9705 243.827 79.6773 245.097 81.9011C246.367 84.1248 246.999 86.7753 246.999 89.8524V89.8934C246.999 92.9951 246.367 95.6621 245.097 97.886C243.834 100.118 241.984 101.825 239.56 103.006C237.136 104.196 234.23 104.787 230.833 104.787H220.007C217.624 104.787 215.474 104.475 213.55 103.86C211.606 104.475 209.423 104.787 206.981 104.787H196.156C192.843 104.787 189.97 104.188 187.529 103.006C185.089 101.816 183.237 100.11 181.967 97.886C180.697 95.6621 180.066 92.9951 180.066 89.8934V89.8524C180.066 86.7835 180.697 84.1248 181.967 81.9011C183.237 79.6691 185.089 77.9623 187.529 76.7806C189.97 75.5908 192.843 75 196.156 75H206.981C209.423 75 211.606 75.3118 213.55 75.9272C215.474 75.3118 217.624 75 220.007 75H230.833C234.221 75 237.136 75.599 239.56 76.7806ZM209.639 89.8934C209.639 91.9284 210.029 93.6681 210.817 95.1204C211.464 96.3104 212.377 97.2623 213.54 98.009C214.71 97.2704 215.624 96.3104 216.254 95.1204C217.027 93.6681 217.41 91.9201 217.41 89.8934V89.8524C217.41 87.8256 217.027 86.086 216.254 84.65C215.624 83.4683 214.71 82.5247 213.54 81.778C212.377 82.5247 211.456 83.4683 210.817 84.65C210.029 86.086 209.639 87.8256 209.639 89.8524V89.8934ZM190.477 98.4849C192.029 99.2727 193.921 99.6664 196.147 99.6664V99.6584H206.973H207.047C206.591 99.1084 206.176 98.5177 205.81 97.886C204.54 95.6621 203.91 92.9951 203.91 89.8934V89.8524C203.91 86.7835 204.54 84.1248 205.81 81.9011C206.176 81.2692 206.591 80.6784 207.047 80.1286H206.973H196.147C193.921 80.1286 192.029 80.5225 190.477 81.3102C188.916 82.098 187.746 83.214 186.964 84.65C186.176 86.086 185.786 87.8256 185.786 89.8524V89.8934C185.786 91.9284 186.176 93.6681 186.964 95.1204C187.753 96.5729 188.924 97.6971 190.477 98.4849ZM240.116 95.1204C240.889 93.6681 241.27 91.9201 241.27 89.8934V89.8607C241.27 87.8338 240.889 86.0942 240.116 84.6582C239.344 83.2222 238.173 82.1062 236.604 81.3184C235.036 80.5307 233.109 80.1368 230.826 80.1368H220.007C220.464 80.6866 220.88 81.2692 221.244 81.9093C222.514 84.133 223.147 86.7835 223.147 89.8607V89.9017C223.147 93.0034 222.514 95.6703 221.244 97.894C220.88 98.5259 220.464 99.1167 220.007 99.6664H230.826C233.109 99.6664 235.036 99.2727 236.604 98.4849C238.173 97.6971 239.344 96.5729 240.116 95.1204ZM29.9029 99.158H55.7479V104.533H24V75.2627H29.9029V99.158ZM93.1916 80.2928H66.6161V87.4811H90.8337V92.4291H66.6161V99.4944H93.1916V104.524H60.8377V75.2627H93.1916V80.2928ZM96.8273 75.2627L111.464 89.8526H111.472L96.6697 104.524H104.241L115.922 92.8969L127.604 104.524H135.175L120.414 89.8526L134.96 75.2627H127.471L115.947 86.8492L104.44 75.2627H96.8273ZM145.868 104.541V95.1453H163.319C163.391 95.1453 163.462 95.145 163.533 95.1446L169.92 104.533H176.42L169.099 94.3626C169.51 94.23 169.903 94.0806 170.277 93.9144C172.12 93.102 173.473 91.9614 174.344 90.4926C175.217 89.0238 175.649 87.3088 175.649 85.3312C175.649 82.2294 174.619 79.7759 172.569 77.9706C170.517 76.1653 167.437 75.2627 163.328 75.2627H140.09V104.541H145.868ZM163.328 90.2793H145.868V80.3421H163.328C165.519 80.3421 167.171 80.7606 168.267 81.5894C169.363 82.4181 169.911 83.6572 169.911 85.2901V85.3312C169.911 86.997 169.363 88.236 168.267 89.0566C167.171 89.869 165.528 90.2793 163.328 90.2793ZM289.879 75.2627H295.441V104.533H289.706V85.1178L289.663 83.3864L275.581 99.1169H272.626L258.463 83.3864L258.504 85.1178V104.533H252.684V75.2627H258.33L274.079 92.6917L289.879 75.2627ZM301.86 101.701C301.86 102.686 302.241 103.482 302.996 104.089H302.989C303.744 104.696 304.823 105 306.053 105C307.28 105 308.277 104.696 309.05 104.089C309.821 103.482 310.203 102.661 310.203 101.701C310.203 100.741 309.821 99.9536 309.064 99.33C308.31 98.7146 307.373 98.4027 306.094 98.4027C304.816 98.4027 303.786 98.7146 303.013 99.33C302.241 99.9536 301.86 100.717 301.86 101.701ZM349.964 104.533L346.069 98.1487H324.16L320.349 104.533H314.056L332.246 75.2627H338.066L356.256 104.533H349.964ZM327.024 93.3646H343.239L335.151 80.3831L327.024 93.3646ZM366.857 75.2627H360.956V104.533H366.857V75.2627Z" fill="white"/>
</g>
</svg>
