<svg width="393" height="180" viewBox="0 0 393 180" fill="none" xmlns="http://www.w3.org/2000/svg">
<g clip-path="url(#clip0_8285_1130)">
<path d="M24.6074 56.385H34.1608V96.452C34.1608 98.1632 34.446 99.3275 35.0163 99.9454C35.5866 100.516 36.3709 100.801 37.369 100.801C38.1295 100.801 38.9137 100.706 39.7217 100.516C40.5297 100.326 41.2426 100.088 41.8605 99.803L43.1438 107.075C41.8605 107.693 40.3633 108.168 38.6523 108.501C36.9412 108.833 35.3965 109 34.0182 109C31.0239 109 28.6949 108.216 27.0314 106.647C25.4154 105.031 24.6074 102.75 24.6074 99.803V56.385Z" fill="#FAFAFA"/>
<path d="M50.8711 108.429V71.0715H60.4245V108.429H50.8711ZM50.8711 65.8671V56.385H60.4245V65.8671H50.8711Z" fill="#FAFAFA"/>
<path d="M86.7227 109.142C84.3463 109.142 82.1601 108.643 80.1637 107.645C78.1674 106.6 76.4327 105.198 74.9593 103.439C73.4859 101.68 72.3451 99.6129 71.5371 97.2363C70.7768 94.8599 70.3965 92.3409 70.3965 89.6792C70.3965 86.9701 70.8242 84.4511 71.6797 82.1222C72.5829 79.7931 73.8185 77.7495 75.3871 75.9908C76.9556 74.2322 78.8091 72.8777 80.948 71.9271C83.0868 70.929 85.3919 70.4299 87.8635 70.4299C90.7153 70.4299 93.2343 71.0953 95.4205 72.4262C97.607 73.7094 99.3892 75.4205 100.768 77.5594V71.0716H109.109V123.615H99.5556V101.871C96.7038 106.718 92.4263 109.142 86.7227 109.142ZM90.2875 101.015C91.6657 101.015 92.9015 100.754 93.9946 100.231C95.1354 99.7079 96.1573 98.995 97.0603 98.0918C98.011 97.1414 98.8428 96.072 99.5556 94.8837V86.0432C99.318 84.9975 98.8665 84.0233 98.2011 83.1201C97.5833 82.2171 96.8227 81.4329 95.9197 80.7675C95.0642 80.0546 94.1373 79.508 93.1391 79.1277C92.141 78.7474 91.143 78.5575 90.1449 78.5575C88.6715 78.5575 87.3168 78.8664 86.081 79.4842C84.893 80.1021 83.8473 80.9576 82.9441 82.0507C82.0411 83.0964 81.352 84.3084 80.8766 85.6868C80.4014 87.0176 80.1637 88.4435 80.1637 89.9643C80.1637 92.0081 80.5915 93.8618 81.447 95.5253C82.3025 97.1888 83.4908 98.5196 85.0117 99.5177C86.5327 100.516 88.2912 101.015 90.2875 101.015Z" fill="#FAFAFA"/>
<path d="M121 94.4559V71.0715H130.553V92.3884C130.553 95.2402 131.076 97.4027 132.122 98.8761C133.167 100.302 134.712 101.015 136.756 101.015C137.992 101.015 139.204 100.777 140.392 100.302C141.628 99.7791 142.744 99.0187 143.743 98.0206C144.788 97.0224 145.668 95.7629 146.381 94.242V71.0715H155.934V97.7355C155.934 98.7334 156.1 99.4465 156.433 99.8742C156.813 100.302 157.407 100.563 158.215 100.659V108.429C157.265 108.572 156.457 108.667 155.791 108.715C155.173 108.81 154.603 108.857 154.08 108.857C152.369 108.857 150.967 108.477 149.874 107.717C148.828 106.909 148.21 105.815 148.02 104.437L147.806 101.443C146.143 103.962 144.004 105.887 141.39 107.217C138.776 108.501 135.9 109.142 132.763 109.142C128.914 109.142 125.991 107.907 123.994 105.435C121.998 102.916 121 99.2563 121 94.4559Z" fill="#FAFAFA"/>
<path d="M168.993 108.429V71.0715H178.547V108.429H168.993ZM168.993 65.8671V56.385H178.547V65.8671H168.993Z" fill="#FAFAFA"/>
<path d="M225.448 108.429H215.895V87.4691C215.895 84.4748 215.372 82.2884 214.327 80.9101C213.281 79.5317 211.831 78.8426 209.978 78.8426C208.694 78.8426 207.387 79.1752 206.057 79.8408C204.773 80.5061 203.609 81.4329 202.563 82.6211C201.517 83.762 200.757 85.0927 200.282 86.6136V108.429H190.729V71.0716H199.355V77.9871C200.306 76.3711 201.517 75.0165 202.991 73.9233C204.464 72.7826 206.152 71.9271 208.053 71.3567C210.001 70.7389 212.045 70.4299 214.184 70.4299C216.513 70.4299 218.414 70.8577 219.888 71.7132C221.409 72.5212 222.549 73.6381 223.31 75.064C224.118 76.4424 224.664 78.0108 224.949 79.7693C225.282 81.528 225.448 83.3103 225.448 85.1164V108.429Z" fill="#FAFAFA"/>
<path d="M246.744 108.429L232.985 71.0715H242.895L252.306 99.7316L261.787 71.0715H270.842L257.155 108.429H246.744Z" fill="#FAFAFA"/>
<path d="M295.527 109.142C292.533 109.142 289.823 108.643 287.401 107.645C284.976 106.6 282.909 105.198 281.196 103.439C279.486 101.633 278.154 99.5892 277.205 97.3078C276.301 94.9787 275.85 92.5311 275.85 89.9643C275.85 86.3997 276.633 83.1441 278.203 80.1971C279.818 77.2504 282.1 74.8977 285.048 73.1391C288.041 71.333 291.558 70.4299 295.598 70.4299C299.687 70.4299 303.179 71.333 306.078 73.1391C308.977 74.8977 311.187 77.2504 312.708 80.1971C314.278 83.0964 315.062 86.2333 315.062 89.608C315.062 90.1782 315.038 90.7724 314.99 91.3902C314.942 91.9607 314.896 92.4359 314.847 92.8162H285.974C286.163 94.7173 286.709 96.3808 287.613 97.8067C288.564 99.2326 289.752 100.326 291.178 101.086C292.651 101.799 294.22 102.156 295.884 102.156C297.785 102.156 299.567 101.704 301.231 100.801C302.941 99.8505 304.105 98.6147 304.725 97.0939L312.923 99.3753C312.019 101.276 310.713 102.964 309.002 104.437C307.338 105.91 305.366 107.075 303.084 107.931C300.802 108.739 298.283 109.142 295.527 109.142ZM285.76 86.7562H305.294C305.105 84.8551 304.557 83.2153 303.656 81.8369C302.798 80.411 301.658 79.3178 300.233 78.5575C298.807 77.7495 297.214 77.3454 295.456 77.3454C293.745 77.3454 292.176 77.7495 290.749 78.5575C289.371 79.3178 288.23 80.411 287.329 81.8369C286.472 83.2153 285.951 84.8551 285.76 86.7562Z" fill="#FAFAFA"/>
<path fill-rule="evenodd" clip-rule="evenodd" d="M366.798 76.273L357.822 85.2502C355.827 87.2213 352.597 87.245 350.625 85.2502C348.654 83.2551 348.654 80.0253 350.625 78.0542L359.602 69.0771C361.598 67.106 364.827 67.0822 366.798 69.0771C368.77 71.072 368.77 74.3019 366.798 76.273ZM324.953 103.727L333.931 94.7498C335.924 92.7787 339.156 92.7549 341.126 94.7498C343.097 96.7448 343.097 99.9746 341.126 101.946L332.149 110.923C330.155 112.894 326.924 112.918 324.953 110.923C322.983 108.928 322.983 105.698 324.953 103.727ZM357.822 94.7493C355.85 92.7782 352.621 92.7782 350.625 94.7493C348.631 96.7204 348.654 99.9502 350.625 101.945L359.602 110.922C361.575 112.893 364.804 112.893 366.798 110.922C368.794 108.951 368.77 105.721 366.798 103.726L357.822 94.7493ZM324.953 69.101C326.947 67.1299 330.178 67.1299 332.149 69.101L341.126 78.0542C343.097 80.0493 343.12 83.2791 341.126 85.2502C339.13 87.2215 335.901 87.2215 333.931 85.2502L324.953 76.2969C322.983 74.302 322.957 71.0722 324.953 69.101Z" fill="#FAFAFA"/>
</g>
<defs>
<clipPath id="clip0_8285_1130">
<rect width="345" height="68" fill="white" transform="translate(24 56)"/>
</clipPath>
</defs>
</svg>
