<svg width="307" height="180" viewBox="0 0 307 180" fill="none" xmlns="http://www.w3.org/2000/svg">
<path d="M126.703 96.19C126.41 95.832 125.977 95.6267 125.518 95.6267H121.998C121.259 95.6267 120.618 96.1605 120.506 96.8686C119.838 101.068 116.317 103.111 109.74 103.111C109.661 103.111 109.582 103.11 109.503 103.11C104.94 103.076 99.5934 102.338 98.7419 96.8769C98.631 96.1641 97.9888 95.6267 97.2486 95.6267H93.7317C93.2721 95.6267 92.8399 95.832 92.546 96.1904C92.2535 96.547 92.1372 97.0087 92.2269 97.4575C93.3506 103.083 99.0009 105.836 109.5 105.873C109.57 105.873 109.639 105.873 109.71 105.873C120.227 105.873 125.892 103.119 127.023 97.459C127.113 97.0098 126.996 96.5473 126.703 96.19Z" fill="white"/>
<path d="M48.9192 67.7552C47.3459 63.9711 42.7395 61.328 37.7166 61.328H33.2705C31.936 61.328 30.8504 62.4133 30.8504 63.7478V76.573C30.8504 76.8816 30.9884 77.1691 31.22 77.342C34.909 80.0996 42.1815 82.3154 47.0948 77.1204C49.8413 74.2263 49.9897 70.3313 48.9192 67.7552ZM41.0199 83.5952C36.8324 83.5952 33.5223 81.899 32.2937 81.17C32.1442 81.0814 31.9835 81.0364 31.8164 81.0364C31.3518 81.0364 30.8504 81.4096 30.8504 82.0125V94.0669C30.8504 94.9068 30.1671 95.5901 29.3272 95.5901H25.5232C24.6833 95.5901 24 94.9068 24 94.0669V60.3274C24 59.4875 24.6833 58.8042 25.5232 58.8042H41.9697C50.0898 58.8042 56.4503 64.2492 56.4503 71.1997C56.4503 78.9588 48.6047 83.5952 41.0199 83.5952ZM73.1259 75.7867L69.0187 65.3895C68.8419 64.9414 68.4413 64.7779 68.1251 64.7739C67.8038 64.7826 67.4062 64.9238 67.2185 65.3668L65.6528 69.0674L65.6322 69.0195L62.812 75.7867H73.1259ZM87.935 94.895C87.6523 95.3171 87.1801 95.5696 86.6715 95.5696H82.0366C81.4027 95.5696 80.8411 95.1882 80.6063 94.5978C78.2546 88.6915 77.3743 86.4922 76.8175 85.1015C76.1497 83.4331 75.948 82.9288 74.2321 78.5871H61.7051L55.2462 94.9256C55.0773 95.352 54.6721 95.6276 54.2139 95.6276H52.8074C52.4382 95.6276 52.0942 95.4446 51.8879 95.1384C51.6811 94.8323 51.64 94.4447 51.7784 94.1026L65.6229 59.7944C65.8833 59.1792 66.4898 58.8064 67.1339 58.8582C69.7283 59.0725 74.312 59.9863 75.8623 63.7024C78.2262 69.3937 80.5923 75.1855 82.8805 80.7868C84.5784 84.9441 86.3351 89.2436 88.0769 93.4686C88.2711 93.939 88.2178 94.4721 87.935 94.895ZM281.999 59.5815C281.716 59.1593 281.243 58.9072 280.735 58.9072H279.889C279.268 58.9072 278.715 59.2786 278.479 59.8531L266.239 89.7263C266.057 90.1704 265.658 90.3285 265.342 90.3285H265.337C265.02 90.3263 264.619 90.165 264.441 89.7165L252.598 59.8689C252.366 59.2847 251.81 58.9072 251.182 58.9072H246.412C245.904 58.9072 245.431 59.1597 245.147 59.5818C244.864 60.0043 244.81 60.5374 245.003 61.0082L259.213 95.6935H261.306C265.235 95.6935 268.723 93.6927 269.986 90.7114L282.144 61.0078C282.337 60.5371 282.283 60.0036 281.999 59.5815ZM239.34 58.8982H235.536C234.696 58.8982 234.013 59.5815 234.013 60.4214V94.0669C234.013 94.9068 234.696 95.5901 235.536 95.5901H239.34C240.18 95.5901 240.864 94.9068 240.864 94.0669V60.4214C240.864 59.5815 240.18 58.8982 239.34 58.8982ZM229.669 58.8042H201.347C200.835 58.8042 200.418 59.2206 200.418 59.7328V61.0842C200.418 61.596 200.835 62.0124 201.347 62.0124H211.113C211.648 62.0124 212.083 62.4475 212.083 62.982V94.0669C212.083 94.9068 212.766 95.5901 213.606 95.5901H217.41C218.25 95.5901 218.933 94.9068 218.933 94.0669V62.982C218.933 62.4475 219.368 62.0124 219.903 62.0124H229.669C230.182 62.0124 230.598 61.596 230.598 61.0842V59.7328C230.598 59.2206 230.182 58.8042 229.669 58.8042ZM196.352 58.8042H168.625C167.785 58.8042 167.101 59.4875 167.101 60.3274V94.0669C167.101 94.9068 167.785 95.5901 168.625 95.5901H196.352C196.864 95.5901 197.281 95.1737 197.281 94.6616V93.2788C197.281 92.7666 196.864 92.3502 196.352 92.3502H174.921C174.387 92.3502 173.952 91.9151 173.952 91.3806V79.5567C173.952 79.0219 174.387 78.5871 174.921 78.5871H187.964C188.476 78.5871 188.892 78.1707 188.892 77.6586V76.7149C188.892 76.203 188.476 75.7867 187.964 75.7867H174.921C174.387 75.7867 173.952 75.3516 173.952 74.817V62.982C173.952 62.4475 174.387 62.0124 174.921 62.0124H196.352C196.864 62.0124 197.281 61.596 197.281 61.0842V59.7328C197.281 59.2206 196.864 58.8042 196.352 58.8042Z" fill="white"/>
<path d="M162.715 85.651C162.715 91.5505 156.158 95.5165 146.011 95.755C145.913 95.756 145.816 95.7564 145.718 95.7564C140.513 95.7564 135.237 94.1456 131.885 91.5224C131.454 91.1849 131.24 90.6579 131.313 90.1126C131.387 89.5655 131.746 89.107 132.274 88.8858C132.916 88.6168 133.675 88.7616 134.208 89.2543C137.105 91.9294 141.004 93.23 146.128 93.23C149.991 93.23 154.489 91.6679 155.613 88.683C156.593 86.0177 154.755 83.1308 150.814 81.1501C149.816 80.6505 148.659 80.1081 147.435 79.5339C144.914 78.3511 142.056 77.0105 139.508 75.5481C135.009 72.9861 132.576 69.8921 132.659 66.8359C132.829 61.7925 139.099 58.3085 147.56 58.5354C149.95 58.6085 155.959 59.0847 160.155 61.928C160.895 62.429 160.955 63.3352 160.311 64.2933L159.861 64.9489C159.67 65.2039 159.363 65.3505 158.993 65.371C158.525 65.3944 158.052 65.2179 157.755 64.9035C156.735 63.824 155.33 62.9477 153.579 62.299C151.591 61.5627 149.133 61.1294 146.659 61.0787C143.213 61.0023 140.511 61.8095 139.062 63.3457C138.282 64.1752 137.921 65.0699 137.993 66.0046C138.093 67.3128 139.051 68.7125 140.766 70.052C142.655 71.55 145.389 73.0135 149.372 74.6595C152.276 75.8528 154.49 76.9006 156.34 77.9577L156.341 77.9581C160.63 80.4308 162.715 82.9471 162.715 85.651Z" fill="white"/>
<path d="M99.9789 58.7432H96.0359C93.8557 58.7432 92.0879 60.5106 92.0879 62.6908V87.4692C92.0879 89.6497 93.8557 91.4172 96.0363 91.4172H99.9785C102.159 91.4172 103.927 89.6497 103.927 87.4692V62.6908C103.927 60.5106 102.159 58.7432 99.9789 58.7432Z" fill="white"/>
<path d="M123.213 58.7432H119.27C117.09 58.7432 115.322 60.5106 115.322 62.6908V87.4692C115.322 89.6497 117.09 91.4172 119.271 91.4172H123.213C125.393 91.4172 127.161 89.6497 127.161 87.4695V62.6908C127.161 60.5106 125.393 58.7432 123.213 58.7432Z" fill="white"/>
<path d="M131.275 117.916V106.054H132.987L136.648 112.087L140.308 106.054H141.935V117.916H140.427V108.562L137.003 114.154H136.19L132.8 108.596V117.916H131.275Z" fill="white"/>
<path d="M145.682 112.51C146.191 112.51 146.679 112.502 147.148 112.485C147.617 112.468 148.052 112.448 148.453 112.426C148.854 112.403 149.196 112.383 149.478 112.366C149.76 112.349 149.975 112.33 150.122 112.307C150.11 111.72 150.032 111.242 149.885 110.875C149.738 110.508 149.521 110.239 149.232 110.07C148.944 109.901 148.574 109.816 148.122 109.816C147.84 109.816 147.566 109.858 147.3 109.943C147.035 110.027 146.789 110.169 146.563 110.367C146.337 110.564 146.148 110.838 145.996 111.188C145.843 111.539 145.739 111.979 145.682 112.51ZM147.987 118.086C147.354 118.086 146.789 118.001 146.292 117.831C145.795 117.662 145.377 117.394 145.038 117.027C144.699 116.66 144.439 116.193 144.259 115.628C144.078 115.064 143.987 114.386 143.987 113.595C143.987 112.68 144.095 111.906 144.309 111.273C144.524 110.641 144.823 110.132 145.208 109.748C145.592 109.364 146.044 109.084 146.563 108.909C147.083 108.734 147.642 108.646 148.241 108.646C149.427 108.646 150.305 108.957 150.876 109.578C151.446 110.2 151.732 111.205 151.732 112.595C151.732 112.686 151.729 112.796 151.723 112.926C151.718 113.056 151.715 113.182 151.715 113.307C151.478 113.318 151.156 113.341 150.749 113.374C150.342 113.409 149.876 113.442 149.351 113.476C148.826 113.51 148.252 113.538 147.631 113.561C147.01 113.584 146.354 113.6 145.665 113.612C145.654 113.669 145.648 113.722 145.648 113.773V113.934C145.648 114.623 145.75 115.177 145.953 115.594C146.156 116.013 146.45 116.317 146.835 116.51C147.219 116.702 147.699 116.798 148.275 116.798C148.625 116.798 148.984 116.775 149.351 116.73C149.718 116.685 150.077 116.631 150.427 116.569C150.777 116.507 151.105 116.442 151.41 116.374L151.613 117.577C151.297 117.679 150.946 117.77 150.563 117.848C150.178 117.927 149.774 117.986 149.351 118.026C148.927 118.066 148.472 118.086 147.987 118.086Z" fill="white"/>
<path d="M153.584 117.916V108.816H155.041V109.612C155.425 109.398 155.79 109.22 156.134 109.079C156.479 108.937 156.826 108.83 157.177 108.757C157.527 108.683 157.894 108.647 158.278 108.647C158.843 108.647 159.315 108.743 159.693 108.935C160.072 109.127 160.354 109.409 160.541 109.782C160.727 110.154 160.82 110.607 160.82 111.138V117.916H159.227V111.612C159.227 111.093 159.094 110.694 158.829 110.417C158.564 110.141 158.165 110.002 157.634 110.002C157.352 110.002 157.078 110.033 156.812 110.095C156.547 110.158 156.279 110.239 156.007 110.341C155.736 110.443 155.465 110.567 155.194 110.714V117.916H153.584Z" fill="white"/>
<path d="M164.366 113.341C164.366 114.211 164.448 114.903 164.612 115.417C164.776 115.931 165.035 116.298 165.392 116.518C165.747 116.739 166.202 116.849 166.756 116.849C167.332 116.849 167.798 116.739 168.154 116.518C168.509 116.298 168.769 115.931 168.933 115.417C169.097 114.903 169.179 114.211 169.179 113.341C169.179 112.493 169.103 111.816 168.95 111.307C168.798 110.798 168.544 110.434 168.188 110.214C167.832 109.994 167.354 109.884 166.756 109.884C166.168 109.884 165.699 109.994 165.349 110.214C164.999 110.434 164.748 110.798 164.595 111.307C164.443 111.816 164.366 112.493 164.366 113.341ZM162.723 113.341C162.723 112.55 162.793 111.861 162.934 111.273C163.076 110.686 163.299 110.197 163.604 109.807C163.909 109.418 164.321 109.127 164.841 108.935C165.36 108.743 165.999 108.647 166.756 108.647C167.535 108.647 168.182 108.743 168.696 108.935C169.21 109.127 169.622 109.418 169.933 109.807C170.244 110.197 170.467 110.686 170.602 111.273C170.738 111.861 170.806 112.55 170.806 113.341C170.806 114.154 170.732 114.86 170.586 115.459C170.439 116.058 170.207 116.552 169.891 116.942C169.574 117.332 169.159 117.62 168.645 117.806C168.131 117.993 167.501 118.086 166.756 118.086C166.032 118.086 165.414 117.993 164.9 117.806C164.386 117.62 163.971 117.332 163.654 116.942C163.338 116.552 163.104 116.058 162.951 115.459C162.799 114.86 162.723 114.154 162.723 113.341Z" fill="white"/>
<path d="M176.014 116.899C176.601 116.899 177.087 116.784 177.471 116.552C177.855 116.321 178.138 115.939 178.319 115.408C178.499 114.877 178.59 114.171 178.59 113.29C178.59 112.555 178.516 111.942 178.37 111.451C178.223 110.96 177.999 110.59 177.7 110.341C177.401 110.093 177.036 109.968 176.607 109.968C176.359 109.968 176.113 109.997 175.87 110.053C175.627 110.109 175.379 110.194 175.124 110.307C174.87 110.42 174.596 110.578 174.302 110.782V116.645C174.641 116.736 174.949 116.801 175.226 116.84C175.503 116.88 175.766 116.899 176.014 116.899ZM172.692 121.475V108.748H174.15L174.218 109.629C174.737 109.29 175.243 109.042 175.735 108.884C176.226 108.726 176.714 108.647 177.2 108.647C178.183 108.647 178.937 109.036 179.463 109.816C179.988 110.595 180.251 111.703 180.251 113.138C180.251 114.279 180.104 115.213 179.81 115.942C179.516 116.671 179.064 117.21 178.454 117.56C177.845 117.911 177.07 118.086 176.133 118.086C175.872 118.086 175.59 118.069 175.285 118.035C174.98 118.001 174.658 117.95 174.319 117.882V121.475H172.692Z" fill="white"/>
<path d="M183.468 115.577C183.468 116.029 183.583 116.371 183.815 116.603C184.047 116.835 184.355 116.95 184.739 116.95C185.032 116.95 185.332 116.905 185.637 116.815C185.942 116.725 186.235 116.594 186.518 116.425C186.8 116.256 187.043 116.064 187.247 115.849V113.663C186.682 113.697 186.165 113.75 185.696 113.824C185.227 113.897 184.826 114.005 184.493 114.145C184.16 114.287 183.905 114.471 183.73 114.696C183.555 114.923 183.468 115.216 183.468 115.577ZM181.841 115.679C181.841 115.137 181.954 114.688 182.18 114.332C182.406 113.976 182.747 113.694 183.205 113.484C183.663 113.275 184.23 113.115 184.908 113.002C185.586 112.889 186.365 112.793 187.247 112.714V111.544C187.247 111.036 187.08 110.652 186.747 110.392C186.413 110.132 185.925 110.002 185.281 110.002C185.055 110.002 184.801 110.014 184.518 110.036C184.236 110.059 183.936 110.101 183.62 110.163C183.304 110.225 182.987 110.302 182.671 110.392L182.383 109.104C182.869 108.957 183.372 108.844 183.891 108.765C184.411 108.686 184.902 108.647 185.366 108.647C186.156 108.647 186.809 108.754 187.323 108.968C187.837 109.183 188.224 109.503 188.484 109.926C188.743 110.349 188.873 110.883 188.873 111.528V115.764C188.873 116.114 188.927 116.354 189.035 116.484C189.142 116.614 189.28 116.679 189.45 116.679C189.517 116.679 189.591 116.674 189.67 116.662C189.749 116.651 189.828 116.623 189.907 116.577L190.06 117.763C189.891 117.877 189.707 117.958 189.509 118.009C189.311 118.061 189.099 118.086 188.873 118.086C188.456 118.086 188.125 117.984 187.882 117.781C187.639 117.577 187.484 117.261 187.416 116.832C187.134 117.057 186.829 117.264 186.501 117.45C186.173 117.637 185.817 117.789 185.434 117.908C185.049 118.026 184.62 118.086 184.146 118.086C183.795 118.086 183.479 118.032 183.197 117.925C182.914 117.817 182.674 117.665 182.477 117.467C182.278 117.27 182.123 117.021 182.01 116.721C181.897 116.422 181.841 116.075 181.841 115.679Z" fill="white"/>
<path d="M194.045 118.086C193.548 118.086 193.11 117.993 192.732 117.806C192.353 117.62 192.059 117.34 191.85 116.968C191.642 116.594 191.537 116.126 191.537 115.561V108.816H193.147V115.239C193.147 115.713 193.277 116.081 193.537 116.34C193.797 116.601 194.175 116.73 194.672 116.73C194.943 116.73 195.206 116.702 195.46 116.646C195.714 116.589 195.968 116.507 196.223 116.4C196.477 116.293 196.734 116.165 196.994 116.018V108.816H198.587V115.815C198.587 116.041 198.615 116.222 198.671 116.357C198.728 116.493 198.801 116.586 198.892 116.637C198.982 116.688 199.078 116.713 199.18 116.713C199.338 116.713 199.49 116.679 199.637 116.611L199.807 117.781C199.682 117.838 199.555 117.888 199.426 117.933C199.296 117.978 199.157 118.015 199.01 118.043C198.863 118.072 198.716 118.086 198.57 118.086C198.242 118.086 197.957 118.007 197.714 117.849C197.471 117.69 197.293 117.442 197.18 117.103C196.841 117.306 196.508 117.482 196.18 117.628C195.853 117.775 195.514 117.888 195.163 117.967C194.813 118.046 194.441 118.086 194.045 118.086Z" fill="white"/>
<path d="M201.106 117.56L201.344 116.34C201.524 116.42 201.736 116.49 201.979 116.552C202.222 116.614 202.479 116.668 202.75 116.713C203.021 116.758 203.292 116.792 203.564 116.815C203.835 116.837 204.089 116.849 204.326 116.849C204.993 116.849 205.496 116.736 205.834 116.51C206.173 116.284 206.343 115.962 206.343 115.544C206.343 115.318 206.292 115.123 206.19 114.959C206.089 114.795 205.936 114.651 205.733 114.527C205.53 114.403 205.278 114.29 204.978 114.188C204.679 114.086 204.32 113.979 203.903 113.866C203.518 113.776 203.168 113.657 202.852 113.51C202.535 113.364 202.264 113.185 202.038 112.976C201.812 112.767 201.643 112.522 201.53 112.239C201.417 111.957 201.361 111.635 201.361 111.273C201.361 110.449 201.649 109.805 202.225 109.342C202.801 108.878 203.665 108.647 204.818 108.647C205.145 108.647 205.467 108.664 205.783 108.698C206.1 108.731 206.399 108.779 206.682 108.842C206.964 108.904 207.213 108.98 207.427 109.07L207.207 110.29C206.981 110.223 206.747 110.158 206.504 110.095C206.261 110.034 206.001 109.988 205.724 109.96C205.447 109.932 205.14 109.917 204.801 109.917C204.179 109.917 203.71 110.025 203.394 110.239C203.078 110.454 202.92 110.754 202.92 111.138C202.92 111.375 202.973 111.573 203.081 111.731C203.188 111.889 203.337 112.022 203.53 112.129C203.722 112.237 203.953 112.332 204.225 112.417C204.496 112.502 204.795 112.589 205.123 112.68C205.552 112.781 205.936 112.903 206.275 113.044C206.614 113.185 206.908 113.36 207.156 113.569C207.405 113.779 207.594 114.03 207.724 114.324C207.854 114.618 207.919 114.973 207.919 115.391C207.919 115.776 207.862 116.114 207.749 116.408C207.636 116.702 207.47 116.953 207.249 117.162C207.029 117.372 206.772 117.543 206.479 117.679C206.185 117.815 205.852 117.916 205.479 117.984C205.106 118.052 204.716 118.086 204.309 118.086C203.914 118.086 203.53 118.063 203.157 118.018C202.784 117.973 202.425 117.913 202.081 117.84C201.736 117.767 201.412 117.673 201.106 117.56Z" fill="white"/>
<path d="M211.094 112.51C211.603 112.51 212.091 112.502 212.56 112.485C213.029 112.468 213.464 112.448 213.865 112.426C214.266 112.403 214.608 112.383 214.89 112.366C215.172 112.349 215.387 112.33 215.534 112.307C215.523 111.72 215.444 111.242 215.297 110.875C215.15 110.508 214.933 110.239 214.644 110.07C214.356 109.901 213.986 109.816 213.534 109.816C213.252 109.816 212.978 109.858 212.712 109.943C212.447 110.027 212.201 110.169 211.975 110.367C211.749 110.564 211.56 110.838 211.408 111.188C211.255 111.539 211.151 111.979 211.094 112.51ZM213.399 118.086C212.766 118.086 212.201 118.001 211.704 117.831C211.207 117.662 210.789 117.394 210.45 117.027C210.111 116.66 209.851 116.193 209.671 115.628C209.49 115.064 209.399 114.386 209.399 113.595C209.399 112.68 209.507 111.906 209.721 111.273C209.936 110.641 210.235 110.132 210.62 109.748C211.004 109.364 211.456 109.084 211.975 108.909C212.495 108.734 213.054 108.646 213.653 108.646C214.839 108.646 215.717 108.957 216.288 109.578C216.859 110.2 217.144 111.205 217.144 112.595C217.144 112.686 217.141 112.796 217.136 112.926C217.13 113.056 217.127 113.182 217.127 113.307C216.89 113.318 216.568 113.341 216.161 113.374C215.754 113.409 215.288 113.442 214.763 113.476C214.238 113.51 213.664 113.538 213.043 113.561C212.422 113.584 211.766 113.6 211.077 113.612C211.066 113.669 211.06 113.722 211.06 113.773V113.934C211.06 114.623 211.162 115.177 211.365 115.594C211.568 116.013 211.862 116.317 212.247 116.51C212.631 116.702 213.111 116.798 213.687 116.798C214.037 116.798 214.396 116.775 214.763 116.73C215.13 116.685 215.489 116.631 215.839 116.569C216.189 116.507 216.517 116.442 216.822 116.374L217.025 117.577C216.709 117.679 216.359 117.77 215.975 117.848C215.59 117.927 215.187 117.986 214.763 118.026C214.339 118.066 213.884 118.086 213.399 118.086Z" fill="white"/>
<path d="M223.99 112.189C223.99 110.686 224.191 109.472 224.592 108.545C224.993 107.619 225.595 106.944 226.397 106.52C227.199 106.097 228.187 105.885 229.362 105.885C229.69 105.885 230 105.893 230.294 105.91C230.588 105.927 230.862 105.952 231.116 105.986C231.37 106.02 231.624 106.068 231.879 106.13C232.133 106.193 232.396 106.257 232.667 106.325L232.328 107.664C232 107.574 231.681 107.5 231.37 107.444C231.06 107.387 230.752 107.35 230.447 107.334C230.142 107.317 229.82 107.308 229.481 107.308C228.86 107.308 228.306 107.393 227.82 107.562C227.334 107.732 226.933 108.006 226.617 108.384C226.3 108.763 226.063 109.263 225.905 109.884C225.747 110.505 225.668 111.274 225.668 112.189C225.668 113.014 225.744 113.717 225.897 114.298C226.049 114.881 226.281 115.344 226.592 115.688C226.902 116.033 227.292 116.284 227.761 116.443C228.23 116.601 228.769 116.68 229.379 116.68C229.899 116.68 230.455 116.64 231.048 116.561C231.642 116.482 232.164 116.38 232.616 116.256L232.938 117.561C232.667 117.651 232.387 117.728 232.099 117.79C231.811 117.852 231.509 117.905 231.193 117.95C230.876 117.995 230.546 118.03 230.201 118.052C229.856 118.075 229.498 118.086 229.125 118.086C228.289 118.086 227.552 117.981 226.914 117.772C226.275 117.564 225.736 117.227 225.295 116.764C224.854 116.301 224.527 115.697 224.312 114.951C224.098 114.205 223.99 113.285 223.99 112.189Z" fill="white"/>
<path d="M236.011 115.577C236.011 116.029 236.126 116.371 236.358 116.603C236.59 116.835 236.898 116.95 237.281 116.95C237.575 116.95 237.875 116.905 238.18 116.815C238.485 116.725 238.778 116.594 239.061 116.425C239.343 116.256 239.586 116.064 239.79 115.849V113.663C239.225 113.697 238.708 113.75 238.239 113.824C237.77 113.897 237.369 114.005 237.036 114.145C236.703 114.287 236.448 114.471 236.273 114.696C236.098 114.923 236.011 115.216 236.011 115.577ZM234.384 115.679C234.384 115.137 234.497 114.688 234.723 114.332C234.949 113.976 235.29 113.694 235.748 113.484C236.206 113.275 236.773 113.115 237.451 113.002C238.129 112.889 238.908 112.793 239.79 112.714V111.544C239.79 111.036 239.623 110.652 239.29 110.392C238.956 110.132 238.468 110.002 237.824 110.002C237.598 110.002 237.344 110.014 237.061 110.036C236.779 110.059 236.479 110.101 236.163 110.163C235.847 110.225 235.53 110.302 235.214 110.392L234.926 109.104C235.412 108.957 235.915 108.844 236.434 108.765C236.954 108.686 237.445 108.647 237.909 108.647C238.699 108.647 239.352 108.754 239.866 108.968C240.38 109.183 240.767 109.503 241.027 109.926C241.286 110.349 241.416 110.883 241.416 111.528V115.764C241.416 116.114 241.47 116.354 241.578 116.484C241.685 116.614 241.823 116.679 241.993 116.679C242.06 116.679 242.134 116.674 242.213 116.662C242.292 116.651 242.371 116.623 242.45 116.577L242.603 117.763C242.434 117.877 242.25 117.958 242.052 118.009C241.854 118.061 241.642 118.086 241.416 118.086C240.999 118.086 240.668 117.984 240.425 117.781C240.182 117.577 240.027 117.261 239.959 116.832C239.677 117.057 239.372 117.264 239.044 117.45C238.716 117.637 238.36 117.789 237.977 117.908C237.592 118.026 237.163 118.086 236.689 118.086C236.338 118.086 236.022 118.032 235.74 117.925C235.457 117.817 235.217 117.665 235.02 117.467C234.821 117.27 234.666 117.021 234.553 116.721C234.44 116.422 234.384 116.075 234.384 115.679Z" fill="white"/>
<path d="M245.677 108.816V109.934C246.005 109.629 246.316 109.383 246.61 109.197C246.903 109.011 247.2 108.872 247.499 108.782C247.799 108.692 248.112 108.646 248.44 108.646C248.665 108.646 248.889 108.661 249.109 108.689C249.329 108.717 249.535 108.76 249.728 108.816L249.456 110.29C249.264 110.234 249.058 110.191 248.838 110.163C248.618 110.135 248.417 110.121 248.236 110.121C247.852 110.121 247.462 110.197 247.067 110.349C246.671 110.502 246.254 110.776 245.813 111.171V117.916H244.203V108.816H245.677Z" fill="white"/>
<path d="M252.377 112.51C252.886 112.51 253.374 112.502 253.843 112.485C254.312 112.468 254.747 112.448 255.148 112.426C255.549 112.403 255.891 112.383 256.173 112.366C256.456 112.349 256.67 112.33 256.817 112.307C256.806 111.72 256.727 111.242 256.58 110.875C256.433 110.508 256.216 110.239 255.928 110.07C255.64 109.901 255.269 109.816 254.818 109.816C254.535 109.816 254.261 109.858 253.996 109.943C253.73 110.027 253.485 110.169 253.259 110.367C253.032 110.564 252.843 110.838 252.691 111.188C252.538 111.539 252.434 111.979 252.377 112.51ZM254.682 118.086C254.049 118.086 253.485 118.001 252.987 117.831C252.49 117.662 252.072 117.394 251.733 117.027C251.394 116.66 251.134 116.193 250.954 115.628C250.773 115.064 250.683 114.386 250.683 113.595C250.683 112.68 250.79 111.906 251.005 111.273C251.219 110.641 251.519 110.132 251.903 109.748C252.287 109.364 252.739 109.084 253.259 108.909C253.778 108.734 254.337 108.646 254.936 108.646C256.123 108.646 257.001 108.957 257.572 109.578C258.142 110.2 258.427 111.205 258.427 112.595C258.427 112.686 258.424 112.796 258.419 112.926C258.413 113.056 258.41 113.182 258.41 113.307C258.173 113.318 257.851 113.341 257.444 113.374C257.037 113.409 256.572 113.442 256.047 113.476C255.521 113.51 254.947 113.538 254.326 113.561C253.705 113.584 253.049 113.6 252.36 113.612C252.349 113.669 252.343 113.722 252.343 113.773V113.934C252.343 114.623 252.445 115.177 252.649 115.594C252.852 116.013 253.146 116.317 253.53 116.51C253.914 116.702 254.394 116.798 254.97 116.798C255.32 116.798 255.679 116.775 256.047 116.73C256.413 116.685 256.772 116.631 257.122 116.569C257.473 116.507 257.8 116.442 258.105 116.374L258.309 117.577C257.992 117.679 257.642 117.77 257.258 117.848C256.874 117.927 256.47 117.986 256.047 118.026C255.623 118.066 255.168 118.086 254.682 118.086Z" fill="white"/>
</svg>
