<svg width="350" height="180" viewBox="0 0 350 180" fill="none" xmlns="http://www.w3.org/2000/svg">
<g clip-path="url(#clip0_8285_1270)">
<path d="M80 117.043L60.5 95.6919H24.9548C24.8286 95.6919 24.7036 95.7169 24.5872 95.7655C24.4707 95.8141 24.365 95.8853 24.2762 95.975C24.1875 96.0647 24.1174 96.1711 24.07 96.2881C24.0226 96.4051 23.9989 96.5303 24.0003 96.6565V117.254C23.9903 118.726 24.2709 120.186 24.8259 121.55C25.3809 122.914 26.1995 124.155 27.2347 125.202C28.2699 126.249 29.5015 127.082 30.859 127.653C32.2164 128.223 33.6731 128.521 35.1455 128.527C41.3575 128.585 80 123.31 80 117.043Z" fill="#F2F8F3"/>
<path d="M103.75 51.7763V113.418C103.757 117.417 102.175 121.255 99.3536 124.089C96.5318 126.923 92.7004 128.52 88.7014 128.53H35.2256C36.7034 128.529 38.1665 128.236 39.5309 127.668C40.8954 127.1 42.1345 126.269 43.1773 125.222C44.2201 124.175 45.046 122.932 45.6078 121.565C46.1696 120.199 46.4562 118.734 46.4513 117.256V51.7763C46.4514 51.727 46.4651 51.6788 46.491 51.6369C46.5169 51.595 46.5539 51.5611 46.5979 51.539C46.6419 51.5169 46.6911 51.5074 46.7402 51.5116C46.7892 51.5158 46.8362 51.5335 46.8758 51.5628L53.6177 56.7071L60.1989 51.6833C60.3655 51.5528 60.5712 51.4818 60.7829 51.4818C60.9946 51.4818 61.2002 51.5528 61.3669 51.6833L67.3653 56.2424C67.532 56.373 67.7376 56.4439 67.9493 56.4439C68.1611 56.4439 68.3667 56.373 68.5333 56.2424L74.5292 51.6708C74.6959 51.5402 74.9015 51.4692 75.1133 51.4692C75.325 51.4692 75.5306 51.5402 75.6973 51.6708L81.6957 56.2424C81.8624 56.373 82.068 56.4439 82.2797 56.4439C82.4914 56.4439 82.6971 56.373 82.8637 56.2424L88.8621 51.6708C89.0288 51.5402 89.2344 51.4692 89.4462 51.4692C89.6579 51.4692 89.8635 51.5402 90.0302 51.6708L96.0261 56.2424C96.1927 56.373 96.3984 56.4439 96.6101 56.4439C96.8218 56.4439 97.0274 56.373 97.1941 56.2424L103.351 51.5628C103.484 51.4296 103.75 51.5628 103.75 51.7763Z" fill="#C2C2C2"/>
<path d="M74.5565 97.2167C68.2768 97.2167 61.977 94.2024 55.8203 88.2617C55.7267 88.1729 55.6517 88.0664 55.5996 87.9484C55.5475 87.8304 55.5194 87.7032 55.5168 87.5742C55.5142 87.4453 55.5373 87.317 55.5846 87.197C55.632 87.077 55.7027 86.9676 55.7927 86.8752L58.395 84.2628C58.5694 84.0869 58.8054 83.9859 59.053 83.9812C59.3007 83.9765 59.5404 84.0685 59.7213 84.2377C64.7903 89.1133 69.7689 91.5925 74.5565 91.5925C79.3442 91.5925 84.3228 89.1133 89.3918 84.2377C89.4798 84.1509 89.5843 84.0826 89.6991 84.0367C89.8139 83.9909 89.9367 83.9685 90.0602 83.9709C90.1838 83.9732 90.3057 84.0002 90.4187 84.0504C90.5316 84.1005 90.6334 84.1727 90.7181 84.2628L93.328 86.8877C93.4176 86.9804 93.488 87.0898 93.5352 87.2098C93.5824 87.3298 93.6053 87.4579 93.6028 87.5868C93.6002 87.7157 93.5722 87.8428 93.5202 87.9608C93.4683 88.0788 93.3936 88.1853 93.3003 88.2743C87.1638 94.2049 80.8463 97.2167 74.5565 97.2167Z" fill="white"/>
<path d="M134.568 110.936V70.7285C134.568 70.6577 134.581 70.5875 134.608 70.5221C134.635 70.4567 134.675 70.3974 134.725 70.3477C134.776 70.298 134.836 70.259 134.902 70.2329C134.967 70.2068 135.038 70.1943 135.108 70.196H150.682C160.124 70.196 167.409 74.5516 167.409 83.3332C167.409 88.9849 164.035 93.3431 158.708 94.7397C161.373 96.2016 162.923 99.03 165.116 103.32L168.79 110.703C168.829 110.784 168.847 110.873 168.842 110.962C168.838 111.052 168.81 111.139 168.763 111.215C168.716 111.291 168.651 111.354 168.573 111.399C168.495 111.443 168.408 111.467 168.318 111.469H159.69C159.59 111.475 159.491 111.449 159.407 111.396C159.322 111.342 159.257 111.263 159.22 111.17L155.646 104.119C153.722 100.326 151.9 98.2991 147.181 98.2991H143.639L143.566 110.969C143.566 111.04 143.553 111.11 143.525 111.175C143.498 111.24 143.458 111.299 143.408 111.349C143.358 111.399 143.298 111.438 143.232 111.464C143.167 111.49 143.097 111.503 143.026 111.502H135.144C134.994 111.499 134.85 111.439 134.743 111.334C134.636 111.229 134.574 111.086 134.568 110.936ZM143.639 78.4752L143.566 90.3162H150.647C154.917 90.3162 158.032 88.1209 158.032 84.2299C158.032 80.1732 154.862 78.4752 150.748 78.4752H143.639Z" fill="#F2F8F3"/>
<path d="M170.517 96.036C170.517 87.257 176.99 80.0403 186.5 80.0403C196.279 80.0403 201.91 87.1565 201.91 95.4382V97.4678C201.911 97.5384 201.897 97.6083 201.87 97.6734C201.843 97.7385 201.803 97.7976 201.752 97.847C201.702 97.8964 201.642 97.9352 201.577 97.9611C201.511 97.987 201.441 97.9995 201.37 97.9978H179.014C179.62 102.057 182.825 104.75 187.208 104.75C190.378 104.75 193.076 103.321 194.558 100.758C194.629 100.642 194.741 100.556 194.873 100.519C195.004 100.482 195.145 100.497 195.266 100.56L201.089 103.466C201.152 103.495 201.209 103.536 201.255 103.587C201.302 103.638 201.337 103.698 201.359 103.764C201.382 103.829 201.39 103.899 201.384 103.968C201.378 104.037 201.358 104.104 201.325 104.165C198.595 109.319 193.603 112.278 187.258 112.278C177.728 112.258 170.517 105.727 170.517 96.036ZM193.176 93.1423C192.805 90.0175 190.162 87.6162 186.465 87.6162C182.621 87.6162 180.059 90.0753 179.451 93.1423H193.176Z" fill="#F2F8F3"/>
<path d="M206.226 96.2695C206.226 87.4226 213.51 80.2059 222.781 80.2712C228.559 80.339 233.877 82.8333 236.743 88.3871C236.776 88.448 236.796 88.5149 236.802 88.5839C236.808 88.6529 236.799 88.7223 236.777 88.7879C236.755 88.8534 236.719 88.9137 236.673 88.9649C236.626 89.0161 236.57 89.0572 236.507 89.0854L230.166 92.5117C230.107 92.5476 230.042 92.5709 229.973 92.5802C229.905 92.5894 229.835 92.5845 229.768 92.5656C229.702 92.5468 229.64 92.5144 229.587 92.4705C229.533 92.4267 229.49 92.3723 229.458 92.3107C228.044 89.9495 225.69 88.4524 222.817 88.4524C218.398 88.4524 215.095 91.9465 215.095 96.2393C215.095 100.532 218.398 104.026 222.817 104.026C224.168 104.04 225.499 103.689 226.668 103.01C227.837 102.331 228.801 101.349 229.458 100.168C229.53 100.052 229.643 99.9679 229.774 99.9312C229.905 99.8945 230.045 99.9081 230.166 99.9695L236.507 103.386C236.57 103.414 236.626 103.455 236.673 103.506C236.719 103.557 236.755 103.618 236.777 103.683C236.799 103.749 236.808 103.818 236.802 103.887C236.796 103.956 236.776 104.023 236.743 104.084C233.877 109.638 228.549 112.167 222.781 112.2C213.51 112.333 206.226 105.049 206.226 96.2695Z" fill="#F2F8F3"/>
<path d="M241.802 71.1932C241.823 69.7577 242.408 68.3881 243.43 67.3801C244.452 66.372 245.83 65.8063 247.265 65.8052C248.327 65.82 249.362 66.1486 250.238 66.7496C251.114 67.3506 251.793 68.1972 252.189 69.183C252.585 70.1687 252.681 71.2496 252.465 72.2898C252.249 73.3299 251.73 74.2829 250.973 75.0289C250.217 75.7749 249.257 76.2807 248.214 76.4825C247.17 76.6844 246.091 76.5734 245.111 76.1635C244.131 75.7535 243.294 75.063 242.705 74.1786C242.116 73.2943 241.802 72.2556 241.802 71.1932ZM251.681 81.6352V110.936C251.681 111.007 251.668 111.077 251.641 111.142C251.614 111.207 251.574 111.266 251.524 111.316C251.474 111.365 251.415 111.404 251.349 111.431C251.284 111.457 251.214 111.47 251.144 111.469H243.387C243.316 111.47 243.246 111.458 243.18 111.431C243.115 111.405 243.055 111.366 243.005 111.316C242.954 111.267 242.914 111.208 242.887 111.142C242.86 111.077 242.846 111.007 242.847 110.936V81.6352C242.846 81.5645 242.86 81.4945 242.887 81.4292C242.914 81.3639 242.954 81.3048 243.005 81.2551C243.055 81.2055 243.115 81.1665 243.18 81.1403C243.246 81.1141 243.316 81.1013 243.387 81.1026H251.144C251.284 81.1058 251.418 81.1627 251.518 81.2618C251.618 81.3609 251.677 81.4945 251.681 81.6352Z" fill="#F2F8F3"/>
<path d="M257.041 81.1102H265.27C265.383 81.106 265.493 81.1399 265.585 81.2065C265.676 81.273 265.742 81.3683 265.772 81.4769L273.73 103.76L281.622 81.4769C281.659 81.3723 281.727 81.2812 281.817 81.2158C281.906 81.1503 282.014 81.1135 282.125 81.1102H290.384C290.471 81.1111 290.557 81.133 290.634 81.1741C290.711 81.2151 290.777 81.2742 290.826 81.3461C290.875 81.4181 290.906 81.5009 290.917 81.5875C290.927 81.6742 290.917 81.762 290.886 81.8437L281.645 106.46C280.16 110.386 277.465 112.348 273.687 112.348C269.909 112.348 267.114 110.386 265.649 106.46L256.511 81.8437C256.482 81.7598 256.474 81.6703 256.488 81.5827C256.501 81.4951 256.535 81.412 256.587 81.3402C256.638 81.2684 256.707 81.2101 256.786 81.17C256.865 81.13 256.952 81.1095 257.041 81.1102Z" fill="#F2F8F3"/>
<path d="M316.594 95.1769V81.6353C316.595 81.5648 316.609 81.4952 316.637 81.4305C316.665 81.3658 316.706 81.3073 316.756 81.2584C316.807 81.2095 316.867 81.1712 316.933 81.1458C316.998 81.1204 317.069 81.1083 317.139 81.1103H324.893C324.964 81.109 325.034 81.1218 325.1 81.148C325.165 81.1742 325.225 81.2132 325.275 81.2628C325.326 81.3125 325.366 81.3716 325.393 81.4369C325.42 81.5022 325.434 81.5722 325.433 81.6428V96.2118C325.433 105.094 320.07 112.275 309.752 112.275C299.5 112.275 294.143 105.094 294.143 96.2118V81.6428C294.142 81.5723 294.155 81.5023 294.182 81.4371C294.209 81.3718 294.249 81.3126 294.299 81.263C294.349 81.2133 294.409 81.1742 294.474 81.148C294.54 81.1218 294.61 81.109 294.68 81.1103H302.437C302.507 81.1093 302.578 81.1224 302.643 81.1487C302.708 81.175 302.768 81.2141 302.818 81.2636C302.869 81.3132 302.908 81.3722 302.936 81.4373C302.963 81.5024 302.977 81.5723 302.977 81.6428V95.2071C302.977 99.8641 305.202 103.856 309.759 103.856C314.316 103.856 316.594 99.8943 316.594 95.1769Z" fill="#F2F8F3"/>
</g>
<defs>
<clipPath id="clip0_8285_1270">
<rect width="301.428" height="77.06" fill="white" transform="translate(24 51.47)"/>
</clipPath>
</defs>
</svg>
