<svg width="288" height="180" viewBox="0 0 288 180" fill="none" xmlns="http://www.w3.org/2000/svg">
<g clip-path="url(#clip0_8285_1195)">
<path d="M121.25 66.4751V80.2107H119.066L117.97 73.5707C117.127 69.3487 116.227 69.2185 110.474 69.2185H104.608V108.742C104.608 109.83 105.123 110.155 106.482 110.221L112.273 110.472V112.713H91.0295V110.472L96.83 110.221C98.1793 110.155 98.7041 109.83 98.7041 108.742V69.2185H92.8475C87.225 69.2185 86.0725 69.3487 85.3509 73.5707L84.2547 80.2107H82.0713V66.4751H121.25Z" fill="white"/>
<path d="M135.175 85.1487H135.24C135.937 83.0655 137.277 81.2527 139.07 79.9674C140.862 78.6821 143.018 77.9896 145.229 77.988H148.772V83.1028H143.618C137.883 83.1028 135.184 85.8463 135.184 92.7559V108.807C135.184 110.025 135.7 110.221 137.058 110.276L142.859 110.537V112.713H125.083V110.602L127.791 110.341C129.084 110.155 129.599 110.09 129.599 108.872V82.331C129.599 81.308 129.271 80.8616 127.791 80.6663L125.026 80.3501V78.3042H135.015L135.175 85.1487Z" fill="white"/>
<path d="M164.548 84.6373V108.872C164.548 110.09 165.063 110.155 166.422 110.341L169.064 110.602V112.713H154.521V110.602L157.229 110.341C158.513 110.155 159.028 110.09 159.028 108.872V82.331C159.028 81.308 158.71 80.8616 157.229 80.6663L154.418 80.3501V78.3042H164.604L164.548 84.6373ZM164.941 69.7579C164.941 70.4274 164.741 71.0818 164.366 71.6385C163.991 72.1952 163.459 72.6291 162.836 72.8853C162.212 73.1415 161.526 73.2085 160.865 73.0779C160.203 72.9473 159.595 72.6249 159.118 72.1515C158.641 71.6781 158.317 71.0749 158.185 70.4183C158.053 69.7616 158.121 69.081 158.379 68.4625C158.637 67.8439 159.074 67.3152 159.635 66.9433C160.196 66.5713 160.856 66.3728 161.53 66.3728C162.43 66.3728 163.293 66.7256 163.932 67.3544C164.571 67.9832 164.934 68.837 164.941 69.73V69.7579Z" fill="white"/>
<path d="M195.654 88.7943C195.654 82.6566 192.946 80.6665 187.98 80.6665C181.992 80.6665 180.315 84.3863 179.996 88.348H174.374C174.889 81.8382 180.437 77.7278 188.167 77.7278C197.191 77.7278 201.511 80.7967 201.445 89.1757C201.445 93.7138 201.249 96.5317 201.249 100.112C201.249 103.497 201.183 105.738 201.38 109.068C201.445 110.277 201.698 110.342 203.057 110.537L205.821 110.788V112.899L196.545 112.964L196.292 106.51H196.142C194.146 110.537 190.594 113.541 184.222 113.541C178.094 113.541 173.324 109.821 173.324 104.241C173.324 96.1225 182.995 94.1974 195.626 92.6629L195.654 88.7943ZM195.842 95.4436C186.883 96.2713 179.35 97.3592 179.35 104.018C179.35 107.403 181.926 110.156 186.368 110.156C191.719 110.156 195.842 106.51 195.842 97.5546V95.4436Z" fill="white"/>
<path d="M240.259 66.4566L240.185 71.4598V109.067C240.185 110.276 240.7 110.342 241.992 110.537L244.701 110.788V112.899L235.228 112.964L234.966 106.454H234.844C232.716 110.481 229.22 113.55 223.599 113.55C215.54 113.55 209.485 106.194 209.485 95.6482C209.485 84.8326 216.317 77.737 224.564 77.737C226.654 77.7482 228.7 78.3337 230.475 79.4286C232.25 80.5235 233.684 82.085 234.618 83.9399H234.749C234.552 80.2944 234.618 79.0204 234.618 78.5647V70.3438C234.618 69.1256 234.103 69.1256 232.745 68.9396L229.39 68.6141V66.438L240.259 66.4566ZM225.501 81.1779C219.878 81.1779 215.52 86.3577 215.52 95.6388C215.52 104.92 219.962 110.156 225.314 110.156C229.952 110.156 235.106 106.25 235.106 95.6388C235.106 84.8234 230.813 81.1779 225.501 81.1779Z" fill="white"/>
<path d="M259.311 84.6376V108.872C259.311 110.091 259.826 110.156 261.184 110.342L263.828 110.602V112.713H249.255V110.602L251.964 110.342C253.257 110.156 253.772 110.091 253.772 108.872V82.3312C253.772 81.3082 253.444 80.8618 251.964 80.6665L249.153 80.3503V78.3044H259.377L259.311 84.6376Z" fill="white"/>
<path d="M162.077 73.1151C163.961 73.1151 165.488 71.5996 165.488 69.73C165.488 67.8605 163.961 66.345 162.077 66.345C160.193 66.345 158.666 67.8605 158.666 69.73C158.666 71.5996 160.193 73.1151 162.077 73.1151Z" fill="white"/>
<path d="M256.191 73.1151C258.073 73.1151 259.6 71.5996 259.6 69.73C259.6 67.8605 258.073 66.345 256.191 66.345C254.307 66.345 252.779 67.8605 252.779 69.73C252.779 71.5996 254.307 73.1151 256.191 73.1151Z" fill="white"/>
<path fill-rule="evenodd" clip-rule="evenodd" d="M45.6499 66.5256H24V88.0009H25.3453C26.1493 77.2452 34.8068 68.6576 45.6499 67.8601V66.5256ZM24 112.752V91.2767H25.3453C26.1492 102.033 34.8067 110.62 45.6499 111.418V112.752H24ZM48.9525 111.418C59.7957 110.62 68.4532 102.033 69.2571 91.2767H70.6023V112.752H48.9525V111.418Z" fill="white"/>
</g>
<defs>
<clipPath id="clip0_8285_1195">
<rect width="239.929" height="47.31" fill="white" transform="translate(24 66.345)"/>
</clipPath>
</defs>
</svg>
