<svg width="287" height="180" viewBox="0 0 287 180" fill="none" xmlns="http://www.w3.org/2000/svg">
<path d="M70.8652 72.46L62.6268 102.997H52.3155L47.5145 83.1864L42.5497 102.997H32.2928L24 72.46H33.3294L37.6394 94.2959L42.7678 72.46H52.6429L57.8258 94.1864L62.0813 72.46H70.8652Z" fill="white"/>
<path d="M103.121 87.2361C103.121 88.1118 103.066 89.024 102.957 89.9726H81.8431C81.9887 91.8697 82.5887 93.3291 83.6435 94.3506C84.7348 95.3358 86.0623 95.8282 87.6262 95.8282C89.9541 95.8282 91.5727 94.8432 92.4819 92.873H102.411C101.902 94.8796 100.975 96.6857 99.629 98.291C98.3196 99.8963 96.6646 101.155 94.6642 102.067C92.6637 102.979 90.4269 103.435 87.9536 103.435C84.9711 103.435 82.316 102.797 79.9882 101.52C77.6604 100.243 75.8417 98.4187 74.5324 96.0472C73.223 93.6756 72.5684 90.9029 72.5684 87.7287C72.5684 84.5545 73.2048 81.7818 74.4779 79.4103C75.7872 77.0388 77.6059 75.2146 79.9336 73.9376C82.2615 72.6607 84.9348 72.0222 87.9536 72.0222C90.8998 72.0222 93.5185 72.6425 95.8099 73.8829C98.1014 75.1234 99.8835 76.8928 101.157 79.1913C102.466 81.49 103.121 84.1716 103.121 87.2361ZM93.5731 84.7735C93.5731 83.1682 93.0276 81.8913 91.9364 80.9426C90.8453 79.994 89.4813 79.5198 87.8445 79.5198C86.2806 79.5198 84.953 79.9758 83.8618 80.8879C82.807 81.8001 82.1523 83.0953 81.8978 84.7735H93.5731Z" fill="white"/>
<path d="M106.187 87.6743C106.187 84.5365 106.768 81.7821 107.932 79.4105C109.133 77.039 110.752 75.2149 112.789 73.9378C114.826 72.661 117.098 72.0224 119.607 72.0224C121.608 72.0224 123.426 72.442 125.064 73.2811C126.737 74.1203 128.046 75.2513 128.992 76.6742V62.5H138.321V102.998H128.992V98.6195C128.118 100.079 126.864 101.246 125.227 102.122C123.627 102.998 121.754 103.435 119.607 103.435C117.098 103.435 114.826 102.797 112.789 101.52C110.752 100.207 109.133 98.3641 107.932 95.9927C106.768 93.5848 106.187 90.8119 106.187 87.6743ZM128.992 87.729C128.992 85.394 128.337 83.5515 127.027 82.2016C125.755 80.8517 124.191 80.1767 122.336 80.1767C120.48 80.1767 118.899 80.8517 117.589 82.2016C116.316 83.5151 115.68 85.3392 115.68 87.6743C115.68 90.0092 116.316 91.87 117.589 93.2563C118.899 94.6062 120.48 95.2812 122.336 95.2812C124.191 95.2812 125.755 94.6062 127.027 93.2563C128.337 91.9064 128.992 90.0639 128.992 87.729Z" fill="white"/>
<path d="M173.769 87.2361C173.769 88.1118 173.714 89.024 173.604 89.9726H152.491C152.637 91.8697 153.237 93.3291 154.291 94.3506C155.382 95.3358 156.711 95.8282 158.275 95.8282C160.602 95.8282 162.221 94.8432 163.13 92.873H173.06C172.551 94.8796 171.623 96.6857 170.277 98.291C168.967 99.8963 167.312 101.155 165.311 102.067C163.313 102.979 161.075 103.435 158.601 103.435C155.619 103.435 152.964 102.797 150.637 101.52C148.308 100.243 146.489 98.4187 145.18 96.0472C143.872 93.6756 143.217 90.9029 143.217 87.7287C143.217 84.5545 143.853 81.7818 145.126 79.4103C146.436 77.0388 148.254 75.2146 150.582 73.9376C152.909 72.6607 155.583 72.0222 158.601 72.0222C161.547 72.0222 164.167 72.6425 166.458 73.8829C168.749 75.1234 170.531 76.8928 171.805 79.1913C173.115 81.49 173.769 84.1716 173.769 87.2361ZM164.222 84.7735C164.222 83.1682 163.675 81.8913 162.584 80.9426C161.494 79.994 160.129 79.5198 158.493 79.5198C156.929 79.5198 155.6 79.9758 154.509 80.8879C153.455 81.8001 152.801 83.0953 152.546 84.7735H164.222Z" fill="white"/>
<path d="M188.019 62.5V102.998H178.689V62.5H188.019Z" fill="white"/>
<path d="M192.925 87.6741C192.925 84.5363 193.507 81.7818 194.671 79.4103C195.872 77.0388 197.49 75.2146 199.527 73.9376C201.563 72.6607 203.837 72.0222 206.347 72.0222C208.493 72.0222 210.367 72.46 211.967 73.3357C213.603 74.2112 214.858 75.3606 215.731 76.7833V72.46H225.06V102.997H215.731V98.6741C214.822 100.097 213.548 101.246 211.912 102.122C210.312 102.997 208.438 103.435 206.292 103.435C203.818 103.435 201.563 102.797 199.527 101.52C197.49 100.206 195.872 98.3639 194.671 95.9925C193.507 93.5845 192.925 90.8117 192.925 87.6741ZM215.731 87.7287C215.731 85.3938 215.076 83.5513 213.766 82.2014C212.493 80.8515 210.929 80.1765 209.074 80.1765C207.22 80.1765 205.637 80.8515 204.329 82.2014C203.055 83.5149 202.419 85.339 202.419 87.6741C202.419 90.009 203.055 91.8697 204.329 93.2561C205.637 94.606 207.22 95.281 209.074 95.281C210.929 95.281 212.493 94.606 213.766 93.2561C215.076 91.9062 215.731 90.0637 215.731 87.7287Z" fill="white"/>
<path d="M262.907 72.46L243.812 117.5H233.772L240.757 101.958L228.372 72.46H238.793L245.831 91.5597L252.815 72.46H262.907Z" fill="white"/>
</svg>
