<svg width="240" height="100" viewBox="0 0 240 100" fill="none" xmlns="http://www.w3.org/2000/svg">
<path d="M9.5 39.8899H19.1316C22.9343 39.8899 24.9328 42.0902 24.9328 45.126C24.9328 47.1592 23.9891 48.7467 22.3237 49.5544V49.6101C24.5442 50.3064 25.8488 52.1724 25.8488 54.5676C25.8488 57.7149 23.8225 60.0265 19.9088 60.0265H9.5V39.8899ZM18.632 48.0504C20.2697 48.0504 21.0191 47.0756 21.0191 45.7944C21.0191 44.4854 20.4084 43.5385 18.6042 43.5385H13.4415V48.0504H18.632ZM19.2427 56.4058C21.0746 56.4058 21.824 55.3196 21.824 54.0106C21.824 52.6459 20.9081 51.5875 19.2704 51.5875H13.4415V56.4337H19.2427V56.4058ZM28.2081 48.2454C28.2081 42.8422 31.2891 39.5 36.9793 39.5C42.6694 39.5 45.806 42.87 45.806 48.2454V60.0544H41.8645V54.0106H32.0663V60.0544H28.2359V48.2454H28.2081ZM41.8645 50.4456V48.2454C41.8645 45.0146 40.2546 43.1485 36.9515 43.1485C33.6762 43.1485 32.0663 44.9867 32.0663 48.2454V50.4456H41.8645ZM48.998 47.9111C48.998 42.7308 52.0512 39.5 57.5471 39.5C63.043 39.5 66.0962 42.7308 66.0962 47.9111V60.0544H62.1547V47.9111C62.1547 44.931 60.6281 43.1485 57.5471 43.1485C54.4661 43.1485 52.9395 44.9032 52.9395 47.9111V60.0544H48.998V47.9111ZM68.7331 49.9721C68.7331 43.9284 73.1464 39.5 79.4195 39.5C84.6655 39.5 88.6348 42.6194 89.7728 47.2149H85.637C84.6933 44.7918 82.4172 43.1764 79.4195 43.1764C75.4225 43.1764 72.7301 46.0451 72.7301 50C72.7301 53.9549 75.4225 56.8515 79.4195 56.8515C82.3895 56.8515 84.6655 55.2082 85.637 52.7851H89.7728C88.6348 57.3806 84.6655 60.5 79.4195 60.5C73.1464 60.4721 68.7331 56.0159 68.7331 49.9721ZM92.3264 48.2454C92.3264 42.8422 95.4074 39.5 101.07 39.5C106.732 39.5 109.897 42.87 109.897 48.2454V60.0544H105.955V54.0106H96.1569V60.0544H92.3264V48.2454ZM105.983 50.4456V48.2454C105.983 45.0146 104.373 43.1485 101.07 43.1485C97.7945 43.1485 96.1846 44.9867 96.1846 48.2454V50.4456H105.983ZM121.249 48.2454C121.249 42.8422 124.33 39.5 130.02 39.5C135.71 39.5 138.847 42.87 138.847 48.2454V60.0544H134.905V54.0106H125.107V60.0544H121.277V48.2454H121.249ZM134.878 50.4456V48.2454C134.878 45.0146 133.268 43.1485 129.965 43.1485C126.689 43.1485 125.08 44.9867 125.08 48.2454V50.4456H134.878ZM142.511 39.8899H146.452V60.0544H142.511V39.8899ZM150.588 39.8899H157.722C164.772 39.8899 168.436 43.9284 168.436 49.9721C168.436 56.0159 164.744 60.0544 157.722 60.0544H150.588V39.8899ZM157.722 56.4058C162.357 56.4058 164.439 53.8714 164.439 49.9721C164.439 46.0451 162.357 43.5663 157.722 43.5663H154.53V56.4337H157.722V56.4058ZM171.544 39.8899H186.367V43.5663H175.486V48.0782H184.59V51.5875H175.486V56.4337H186.367V60.0822H171.544V39.8899ZM212.902 48.2454C212.902 42.8422 215.983 39.5 221.673 39.5C227.363 39.5 230.5 42.87 230.5 48.2454V60.0544H226.559V54.0106H216.76V60.0544H212.93L212.902 48.2454ZM226.559 50.4456V48.2454C226.559 45.0146 224.949 43.1485 221.646 43.1485C218.37 43.1485 216.76 44.9867 216.76 48.2454V50.4456H226.559Z" fill="white"/>
<path d="M205.658 39.89L198.052 49.9444L205.741 60.0266H211.403L203.742 49.9444L211.32 39.89H205.658Z" fill="url(#paint0_linear_2_10)"/>
<path d="M188.365 39.89L195.97 49.9444L188.31 60.0266H193.972L201.633 49.9444L194.055 39.89H188.365Z" fill="white"/>
<defs>
<linearGradient id="paint0_linear_2_10" x1="198.052" y1="49.9583" x2="211.403" y2="49.9583" gradientUnits="userSpaceOnUse">
<stop stop-color="white"/>
<stop offset="1" stop-color="white"/>
</linearGradient>
</defs>
</svg>
