<svg width="240" height="100" viewBox="0 0 240 100" fill="none" xmlns="http://www.w3.org/2000/svg">
<mask id="mask0_11_4" style="mask-type:luminance" maskUnits="userSpaceOnUse" x="65" y="30" width="110" height="40">
<path d="M65.5 30H174.5V70H65.5V30Z" fill="white"/>
</mask>
<g mask="url(#mask0_11_4)">
<path d="M93.686 69.1915C94.9413 69.1706 96.1803 68.9006 97.332 68.3969C98.4838 67.8932 99.5257 67.1657 100.398 66.2559C101.271 65.3461 101.957 64.2719 102.417 63.0947C102.878 61.9176 103.103 60.6605 103.081 59.3954C103.103 58.1303 102.878 56.8733 102.417 55.6961C101.957 54.519 101.271 53.4448 100.398 52.535C99.5257 51.6252 98.4838 50.8977 97.332 50.394C96.1803 49.8902 94.9413 49.6202 93.686 49.5994C92.4306 49.6202 91.1916 49.8902 90.0399 50.394C88.8881 50.8977 87.8462 51.6252 86.9736 52.535C86.1011 53.4448 85.415 54.519 84.9546 55.6961C84.4943 56.8733 84.2686 58.1303 84.2907 59.3954C84.2686 60.6605 84.4943 61.9176 84.9546 63.0947C85.415 64.2719 86.1011 65.3461 86.9736 66.2559C87.8462 67.1657 88.8881 67.8932 90.0399 68.3969C91.1916 68.9006 92.4306 69.1706 93.686 69.1915Z" fill="white"/>
<path d="M93.686 49.5994C94.9417 49.5776 96.1808 49.3067 97.3326 48.8022C98.4844 48.2977 99.5263 47.5695 100.399 46.6591C101.271 45.7487 101.957 44.6741 102.417 43.4965C102.878 42.3189 103.103 41.0615 103.081 39.7961C103.103 38.531 102.878 37.2739 102.417 36.0968C101.957 34.9196 101.271 33.8454 100.398 32.9356C99.5257 32.0258 98.4838 31.2983 97.332 30.7946C96.1803 30.2909 94.9413 30.0209 93.686 30C92.4306 30.0209 91.1916 30.2909 90.0399 30.7946C88.8881 31.2983 87.8462 32.0258 86.9736 32.9356C86.1011 33.8454 85.415 34.9196 84.9546 36.0968C84.4943 37.2739 84.2686 38.531 84.2907 39.7961C84.2686 41.0615 84.4942 42.3189 84.9545 43.4965C85.4148 44.6741 86.1007 45.7487 86.9732 46.6591C87.8457 47.5695 88.8875 48.2977 90.0393 48.8022C91.1911 49.3067 92.4303 49.5776 93.686 49.5994Z" fill="white"/>
<path d="M84.2906 39.7961C84.2864 38.511 84.0412 37.2384 83.5679 36.0452C83.1004 34.8629 82.408 33.7842 81.5299 32.8696C80.6733 31.9652 79.6463 31.2422 78.5089 30.7429C77.3678 30.2467 76.1381 29.9907 74.8953 29.9907C73.6525 29.9907 72.4229 30.2467 71.2818 30.7429C70.1413 31.2442 69.1099 31.9669 68.2464 32.8696C67.3754 33.7871 66.6883 34.8653 66.2228 36.0452C65.7495 37.2384 65.5043 38.511 65.5 39.7961V59.3955C65.4933 61.9751 66.4775 64.4573 68.2464 66.3219C69.1011 67.229 70.1301 67.9513 71.2707 68.4449C72.4113 68.9385 73.6396 69.193 74.8809 69.193C76.1222 69.193 77.3505 68.9385 78.4911 68.4449C79.6316 67.9513 80.6606 67.229 81.5154 66.3219C83.2974 64.4636 84.2926 61.9798 84.2906 59.3955V39.7961Z" fill="white"/>
<path d="M111.754 51.4348H116.321L119.66 63.2484L123.021 51.4348H127.654V65.7174H124.763V54.6176L121.626 65.7174H117.687L114.565 54.6759V65.7174H111.754V51.4348ZM134.469 65.8776C133.529 65.8952 132.604 65.6426 131.802 65.1493C130.989 64.6448 130.32 63.9373 129.858 63.0954C129.144 61.8229 128.947 60.3208 129.31 58.9053C129.672 57.4898 130.566 56.2712 131.802 55.5062C132.606 55.0151 133.529 54.7554 134.469 54.7554C135.409 54.7554 136.332 55.0151 137.136 55.5062C137.948 56.006 138.616 56.7117 139.073 57.5528C139.551 58.4008 139.802 59.3596 139.802 60.335C139.802 61.3105 139.551 62.2692 139.073 63.1173C138.615 63.9561 137.947 64.6593 137.136 65.1566C136.331 65.6444 135.407 65.8942 134.469 65.8776ZM134.469 63.1828C134.95 63.1895 135.423 63.0527 135.828 62.7895C136.236 62.5235 136.572 62.1577 136.803 61.7261C137.171 61.0606 137.269 60.2779 137.078 59.5411C136.9 58.8162 136.452 58.1878 135.828 57.7859C135.422 57.5258 134.95 57.3892 134.469 57.3926C133.988 57.3876 133.515 57.5243 133.11 57.7859C132.698 58.0509 132.358 58.4171 132.125 58.8502C131.891 59.2833 131.77 59.7691 131.773 60.2622C131.769 60.7708 131.893 61.2723 132.134 61.7189C132.366 62.1504 132.701 62.5162 133.11 62.7822C133.515 63.046 133.987 63.1852 134.469 63.1828ZM141.096 54.8725H143.936V55.8776C144.294 55.5066 144.721 55.2119 145.194 55.0109C145.711 54.793 146.267 54.684 146.827 54.6905C147.565 54.6878 148.292 54.8678 148.945 55.2149C149.621 55.5624 150.181 56.1017 150.557 56.7662C150.943 57.4276 151.141 58.1838 151.127 58.9512V65.6591H148.287V59.7596C148.295 59.347 148.201 58.939 148.013 58.5725C147.85 58.2412 147.6 57.9614 147.29 57.764C146.979 57.5733 146.62 57.4749 146.256 57.48C145.825 57.4747 145.403 57.5989 145.042 57.8369C144.692 58.0754 144.412 58.4051 144.233 58.791C144.039 59.2102 143.942 59.6686 143.951 60.1311V65.7174H141.111L141.096 54.8725ZM157.798 65.8776C156.858 65.8843 155.933 65.6325 155.124 65.1493C154.306 64.652 153.633 63.946 153.173 63.1027C152.704 62.2485 152.455 61.2894 152.45 60.3132C152.45 59.3364 152.699 58.3759 153.173 57.5237C153.636 56.6861 154.309 55.9854 155.124 55.4916C155.876 55.0324 156.732 54.7763 157.611 54.7482C158.49 54.7202 159.361 54.921 160.14 55.3314C160.868 55.7091 161.501 56.2497 161.99 56.9119C162.49 57.5846 162.835 58.3607 163.002 59.1843C163.185 59.9184 163.207 60.6839 163.067 61.4275H155.269C155.354 61.7989 155.528 62.1439 155.775 62.4326C156.021 62.719 156.334 62.9392 156.685 63.0736C157.043 63.2098 157.423 63.2789 157.805 63.2775C158.259 63.2771 158.708 63.1982 159.135 63.0444C159.551 62.8967 159.933 62.6635 160.255 62.3598L162.72 63.0881C162.275 63.9488 161.568 64.6431 160.703 65.0692C159.82 65.585 158.819 65.8634 157.798 65.8776ZM160.277 59.1624C160.168 58.8225 159.993 58.5078 159.762 58.2365C159.531 57.9652 159.249 57.7427 158.933 57.5819C158.572 57.4076 158.176 57.3203 157.776 57.327C157.374 57.321 156.976 57.4082 156.613 57.5819C156.282 57.7414 155.991 57.9728 155.76 58.2593C155.536 58.524 155.367 58.831 155.261 59.1624H160.277ZM167.403 65.6519L163.168 54.8725H166.174L168.848 62.1559L171.407 54.8725H174.413L168.689 69.9781H165.755L167.403 65.6519Z" fill="white"/>
<path d="M111.754 33.7509H118.099C118.888 33.7365 119.668 33.9113 120.376 34.2607C120.987 34.5658 121.5 35.0388 121.855 35.6252C122.211 36.2116 122.395 36.8875 122.385 37.5746C122.393 38.2117 122.241 38.8404 121.944 39.4027C121.67 39.9466 121.265 40.4124 120.766 40.7574C121.454 41.0613 122.034 41.5694 122.428 42.2141C122.787 42.8222 122.974 43.5171 122.97 44.2243C122.983 44.9124 122.8 45.5898 122.443 46.1762C122.075 46.7837 121.544 47.2736 120.911 47.5892C120.182 47.9456 119.379 48.1204 118.569 48.099H111.754V33.7509ZM118.005 39.6868C118.217 39.6967 118.429 39.6594 118.625 39.5775C118.821 39.4957 118.997 39.3714 119.14 39.2134C119.423 38.9095 119.581 38.5085 119.581 38.0917C119.581 37.675 119.423 37.2739 119.14 36.9701C118.992 36.8172 118.815 36.6959 118.62 36.6132C118.425 36.5335 118.216 36.4963 118.005 36.504H114.565V39.6868H118.005ZM118.396 45.2731C118.603 45.2834 118.81 45.2486 119.003 45.1711C119.198 45.0912 119.377 44.9751 119.53 44.8288C119.673 44.6847 119.786 44.514 119.863 44.3263C119.935 44.1332 119.972 43.9282 119.971 43.7217C119.971 43.5153 119.934 43.3107 119.863 43.1172C119.786 42.9295 119.673 42.7587 119.53 42.6147C119.382 42.4618 119.205 42.3404 119.01 42.2578C118.814 42.1846 118.605 42.15 118.396 42.1558H114.565V45.2731H118.396ZM124.271 33.7509H134.158V36.5914H127.206V39.5047H133.392V42.2724H127.198V45.1857H134.158V48.0189H124.271V33.7509ZM139.766 43.678L135.119 33.7873H138.241L141.212 40.2112L144.189 33.7509H147.319L142.722 43.5688V48.0335H139.766V43.678ZM153.968 48.2228C152.734 48.233 151.522 47.895 150.47 47.2469C149.409 46.5998 148.532 45.6863 147.926 44.5957C147.305 43.4841 146.978 42.2299 146.978 40.9541C146.978 39.6783 147.305 38.4241 147.926 37.3124C148.532 36.2181 149.408 35.2999 150.47 34.6467C151.525 34.0034 152.735 33.6633 153.968 33.6633C155.201 33.6633 156.411 34.0034 157.466 34.6467C158.527 35.303 159.404 36.2203 160.017 37.3124C160.631 38.4263 160.954 39.6797 160.954 40.9541C160.954 42.2285 160.631 43.4819 160.017 44.5957C159.414 45.6914 158.534 46.6062 157.466 47.2469C156.414 47.8971 155.202 48.2354 153.968 48.2228ZM153.968 45.3678C154.704 45.3796 155.427 45.1745 156.049 44.7778C156.667 44.3802 157.166 43.8215 157.495 43.1609C157.841 42.4725 158.022 41.7115 158.022 40.9395C158.022 40.1676 157.841 39.4065 157.495 38.7181C157.164 38.0569 156.666 37.4963 156.049 37.0939C155.428 36.6992 154.709 36.4898 153.975 36.4898C153.241 36.4898 152.522 36.6992 151.901 37.0939C151.287 37.4989 150.788 38.0589 150.455 38.7181C150.109 39.4065 149.928 40.1676 149.928 40.9395C149.928 41.7115 150.109 42.4725 150.455 43.1609C150.786 43.82 151.285 44.3782 151.901 44.7778C152.516 45.1816 153.233 45.399 153.968 45.4042V45.3678ZM162.344 33.7509H167.027L171.645 45.0983V33.7509H174.536V48.0626H169.99L165.235 36.351V48.0626H162.344V33.7509Z" fill="white"/>
</g>
</svg>
