<svg width="240" height="100" viewBox="0 0 240 100" fill="none" xmlns="http://www.w3.org/2000/svg">
<path d="M89.6616 53.8837L89.6528 68.2236H86.5497L86.5623 56.8652H81.7927L81.7851 68.2224H78.677L78.6845 56.8652H76.5V53.8824H78.6833V53.586C78.6833 49.7141 80.8426 47.7655 85.1801 47.7681C86.254 47.773 87.3239 47.8999 88.3691 48.1464V50.9854C87.313 50.8325 86.2473 50.755 85.1801 50.7533C82.8818 50.7533 81.7889 51.4962 81.7876 53.5898V53.8774L89.6616 53.8837ZM105.743 59.4292V68.2337H102.64V59.7445C102.692 59.3052 102.645 58.8599 102.504 58.4407C102.362 58.0216 102.129 57.639 101.822 57.3206C101.514 57.0022 101.139 56.7559 100.725 56.5995C100.31 56.4431 99.8662 56.3805 99.4245 56.4162C97.2412 56.4162 95.7743 57.7619 95.7731 60.5441V68.23H92.67L92.6788 53.89H95.7819V55.725C96.2606 54.9948 96.9259 54.4054 97.709 54.0176C98.4922 53.6299 99.3649 53.4578 100.237 53.5192C103.54 53.5204 105.751 55.7591 105.743 59.4292ZM108.501 68.2337L108.515 47.2976H111.618L111.611 68.2337H108.501ZM117.066 62.3918C117.319 63.2223 117.794 63.9683 118.44 64.5496C119.086 65.131 119.878 65.5257 120.732 65.6914C121.585 65.8571 122.468 65.7876 123.285 65.4902C124.102 65.1929 124.822 64.6789 125.369 64.0036L127.925 65.4969C127.239 66.5195 126.297 67.3455 125.193 67.893C124.089 68.4406 122.861 68.6906 121.63 68.6184C120.592 68.6598 119.557 68.493 118.585 68.1277C117.613 67.7625 116.724 67.2063 115.971 66.492C114.593 65.0348 113.824 63.1081 113.82 61.1046C113.816 59.101 114.578 57.1713 115.95 55.7086C116.657 54.9853 117.508 54.4178 118.449 54.0429C119.389 53.668 120.398 53.4939 121.41 53.5318C122.381 53.5066 123.345 53.6913 124.238 54.0731C125.13 54.4549 125.929 55.0249 126.58 55.744C127.929 57.2019 128.659 59.1251 128.617 61.1092C128.612 61.5416 128.573 61.9729 128.501 62.3994L117.066 62.3918ZM125.486 59.8694C125.37 58.874 124.884 57.9585 124.123 57.3043C123.362 56.6502 122.383 56.3053 121.38 56.338C120.346 56.2833 119.329 56.6145 118.527 57.2669C117.724 57.9194 117.193 58.8466 117.037 59.8681L125.486 59.8694ZM142.069 53.9127H145.172L145.164 68.2527H142.06V66.1881C141.495 66.9838 140.738 67.6241 139.859 68.0497C138.979 68.4752 138.007 68.6721 137.031 68.6222C136.082 68.6349 135.141 68.447 134.269 68.0707C133.398 67.6945 132.617 67.1384 131.977 66.439C130.631 64.9768 129.885 63.0631 129.886 61.0774C129.887 59.0917 130.636 57.1791 131.984 55.7187C132.625 55.0205 133.407 54.4655 134.278 54.0904C135.149 53.7152 136.09 53.5282 137.038 53.5419C138.011 53.4945 138.98 53.6904 139.858 54.1117C140.736 54.533 141.494 55.1665 142.064 55.9546L142.069 53.9127ZM137.521 65.6684C138.121 65.685 138.719 65.5793 139.277 65.3577C139.836 65.1361 140.343 64.8032 140.768 64.3795C141.194 63.9446 141.528 63.4286 141.751 62.8623C141.973 62.296 142.079 61.6908 142.063 61.0827C142.081 60.4802 141.976 59.8804 141.755 59.3198C141.533 58.7593 141.199 58.2497 140.773 57.8224C139.905 56.9766 138.739 56.5031 137.526 56.5031C136.312 56.5031 135.147 56.9766 134.279 57.8224C133.851 58.2504 133.515 58.7611 133.293 59.3233C133.07 59.8855 132.965 60.4872 132.984 61.0915C132.966 61.6998 133.072 62.3053 133.294 62.872C133.516 63.4388 133.849 63.9553 134.275 64.3908C134.701 64.8135 135.208 65.1451 135.766 65.3657C136.325 65.5862 136.922 65.6909 137.522 65.6735L137.521 65.6684ZM161.406 55.7654C162.753 57.2221 163.501 59.1325 163.5 61.1154C163.499 63.0983 162.749 65.0079 161.399 66.463C160.758 67.1612 159.977 67.7162 159.106 68.0914C158.235 68.4666 157.294 68.6535 156.345 68.6399C155.373 68.6872 154.403 68.4914 153.526 68.07C152.648 67.6487 151.89 67.0152 151.319 66.2271V74H148.216L148.229 53.924H151.332V55.9886C151.897 55.1928 152.654 54.5524 153.534 54.1269C154.413 53.7013 155.386 53.5045 156.362 53.5545C157.311 53.5483 158.251 53.7421 159.12 54.123C159.989 54.504 160.768 55.0636 161.406 55.7654ZM155.854 65.6848C156.454 65.7014 157.052 65.5957 157.61 65.3741C158.169 65.1525 158.676 64.8196 159.101 64.3959C159.527 63.961 159.861 63.445 160.084 62.8787C160.306 62.3124 160.412 61.7072 160.396 61.0991C160.416 60.4949 160.311 59.893 160.089 59.3306C159.867 58.7682 159.532 58.2571 159.105 57.8287C158.237 56.983 157.071 56.5095 155.858 56.5095C154.645 56.5095 153.48 56.983 152.612 57.8287C152.184 58.2566 151.848 58.7673 151.625 59.3295C151.403 59.8918 151.298 60.4935 151.317 61.0978C151.299 61.7061 151.405 62.3116 151.627 62.8783C151.849 63.4451 152.182 63.9616 152.608 64.3971C153.033 64.8205 153.54 65.153 154.098 65.3744C154.656 65.5958 155.254 65.7014 155.854 65.6848ZM135.849 37.4324C136.201 35.4897 136.014 33.4878 135.308 31.6435C134.746 30.2717 133.848 29.0621 132.698 28.1246C131.548 27.1872 130.181 26.5516 128.722 26.2757L128.606 26.2455C125.065 25.7731 121.466 25.9838 118.005 26.866L116.615 27.3352C116.54 27.3604 116.459 27.3648 116.382 27.3478C113.331 26.6407 110.166 26.5815 107.091 27.1737C107.003 27.1972 106.925 27.2474 106.866 27.3174C106.808 27.3873 106.773 27.4737 106.766 27.5644C106.759 27.6551 106.781 27.7458 106.828 27.8238C106.875 27.9018 106.945 27.9633 107.028 27.9998C107.677 28.2593 108.203 28.7557 108.499 29.3881C108.795 30.0205 108.839 30.7417 108.621 31.4051C108.601 31.5132 108.541 31.6098 108.453 31.6763C104.103 35.2023 100.91 39.9483 99.2868 45.3024C99.2569 45.3975 99.2605 45.5 99.297 45.5928C99.3334 45.6857 99.4005 45.7633 99.4872 45.8129C99.5738 45.8624 99.6748 45.881 99.7735 45.8654C99.8722 45.8499 99.9625 45.8012 100.03 45.7274C115.674 28.5094 134.381 40.0709 134.341 40.0192L134.406 40.0469C134.54 40.1178 134.687 40.1589 134.838 40.1672C134.989 40.1756 135.14 40.1511 135.28 40.0954C135.421 40.0398 135.548 39.9542 135.652 39.8448C135.756 39.7354 135.835 39.6047 135.883 39.4617C135.883 39.4617 135.91 39.3797 135.907 39.3797C135.915 39.3448 135.919 39.3094 135.921 39.2738C135.928 39.2232 135.931 39.1722 135.931 39.1212C135.989 38.6209 135.962 38.1145 135.853 37.6229C135.837 37.5605 135.836 37.4954 135.849 37.4324Z" fill="white"/>
</svg>
