<svg width="240" height="100" viewBox="0 0 240 100" fill="none" xmlns="http://www.w3.org/2000/svg">
<path d="M89.4649 44.9456H83.3054V49.2374H88.9145V53.5033H83.3054V59.3464H78.1682V40.6797H89.4649V44.9456Z" fill="white"/>
<path d="M96.83 40.6797H92.0859V59.3464H96.83V40.6797Z" fill="white"/>
<path d="M110.355 46.109H115.125V59.3463H110.355V57.8726C109.332 59.1395 107.969 59.76 106.24 59.76C105.27 59.76 104.379 59.579 103.54 59.2429C102.727 58.881 101.993 58.3897 101.391 57.7692C100.788 57.1229 100.316 56.3731 99.9753 55.5199C99.6346 54.6667 99.4773 53.736 99.4773 52.7018C99.4773 51.7452 99.6346 50.8662 99.9753 50.013C100.316 49.1598 100.762 48.41 101.364 47.7895C101.967 47.1432 102.675 46.652 103.487 46.29C104.3 45.928 105.217 45.7471 106.213 45.7471C107.891 45.7471 109.28 46.3159 110.381 47.4793V46.109H110.355ZM104.405 52.676C104.405 53.1155 104.483 53.5033 104.641 53.8653C104.798 54.2272 105.008 54.5633 105.27 54.8219C105.532 55.1063 105.873 55.3131 106.24 55.4682C106.607 55.6233 107.026 55.7009 107.445 55.7009C107.865 55.7009 108.258 55.6233 108.625 55.4682C108.992 55.3131 109.332 55.1063 109.594 54.8219C109.857 54.5375 110.092 54.2272 110.25 53.8653C110.407 53.5033 110.486 53.1155 110.486 52.7018C110.486 52.2882 110.407 51.9003 110.25 51.5384C110.092 51.1764 109.857 50.8403 109.594 50.5818C109.332 50.2974 108.992 50.0906 108.625 49.9354C108.258 49.7803 107.865 49.7027 107.445 49.7027C107 49.7027 106.607 49.7803 106.24 49.9354C105.873 50.0906 105.532 50.2974 105.27 50.5818C105.008 50.8662 104.798 51.1764 104.641 51.5125C104.483 51.9003 104.405 52.2623 104.405 52.676Z" fill="white"/>
<path d="M127.234 49.5216C126.369 49.0821 125.504 48.8494 124.665 48.8494C124.22 48.8494 123.879 48.927 123.617 49.108C123.355 49.289 123.224 49.5216 123.224 49.806C123.224 49.9612 123.25 50.0904 123.276 50.168C123.329 50.2714 123.407 50.349 123.565 50.4265C123.722 50.5041 123.932 50.5817 124.22 50.6592C124.508 50.7368 124.875 50.8144 125.347 50.9178C126.657 51.1763 127.627 51.6417 128.282 52.288C128.938 52.9602 129.252 53.7876 129.252 54.8217C129.252 55.5974 129.095 56.2954 128.78 56.9159C128.466 57.5364 128.02 58.0535 127.47 58.4672C126.92 58.8808 126.238 59.2169 125.452 59.4496C124.665 59.6823 123.8 59.7857 122.857 59.7857C121.048 59.7857 119.266 59.2686 117.51 58.2603L119.24 54.951C120.577 55.8559 121.809 56.2954 123.014 56.2954C123.46 56.2954 123.8 56.192 124.089 56.011C124.377 55.83 124.508 55.5715 124.508 55.2871C124.508 55.1061 124.482 54.9769 124.456 54.8734C124.403 54.77 124.325 54.6666 124.194 54.5632C124.063 54.4598 123.853 54.3822 123.591 54.3047C123.329 54.2271 122.962 54.1495 122.542 54.072C121.075 53.7876 120.052 53.3481 119.476 52.7793C118.899 52.2105 118.611 51.409 118.611 50.4007C118.611 49.6509 118.742 49.0046 119.03 48.4099C119.319 47.8153 119.712 47.324 120.236 46.9104C120.76 46.4967 121.389 46.1865 122.123 45.9538C122.857 45.7211 123.696 45.6177 124.587 45.6177C126.081 45.6177 127.496 45.9021 128.912 46.4709L127.234 49.5216Z" fill="white"/>
<path d="M131.637 40.6797H136.382V47.7896C137.037 47.0139 137.692 46.4969 138.347 46.2383C139.003 45.9798 139.789 45.8505 140.68 45.8505C142.357 45.8505 143.642 46.3159 144.507 47.2208C145.372 48.1515 145.791 49.3925 145.791 50.9438V59.3464H141.047V52.6501C141.047 51.9779 140.995 51.435 140.89 51.0213C140.785 50.6077 140.601 50.2974 140.366 50.0647C139.946 49.7028 139.448 49.5218 138.845 49.5218C138.033 49.5218 137.43 49.7545 137.011 50.2199C136.591 50.6852 136.382 51.3574 136.382 52.2365V59.2946H131.637V40.6797Z" fill="white"/>
<path d="M153.733 40.6797V50.8921L158.713 46.109H165.187L158.477 52.2106L165.58 59.3464H158.922L153.733 53.9428V59.3464H148.989V40.6797H153.733Z" fill="white"/>
<path d="M170.455 53.5032C170.455 55.5198 171.425 56.5282 173.338 56.5282C174.36 56.5282 175.147 56.1145 175.671 55.2872H180.258C179.34 58.3121 177.034 59.8375 173.338 59.8375C172.211 59.8375 171.163 59.6824 170.219 59.3463C169.275 59.0102 168.463 58.5448 167.808 57.9243C167.126 57.3038 166.628 56.554 166.261 55.7008C165.894 54.8476 165.711 53.891 165.711 52.8052C165.711 51.6934 165.894 50.711 166.235 49.8319C166.576 48.9529 167.074 48.2031 167.729 47.5826C168.384 46.9621 169.144 46.4968 170.062 46.1607C170.979 45.8246 172.001 45.6694 173.155 45.6694C174.282 45.6694 175.304 45.8246 176.221 46.1607C177.139 46.4968 177.899 46.988 178.528 47.6085C179.157 48.2548 179.629 49.0305 179.969 49.9354C180.31 50.8661 180.467 51.9003 180.467 53.0379V53.5291H170.455V53.5032ZM175.985 50.8144C175.828 50.168 175.513 49.6251 175.015 49.2373C174.517 48.8495 173.941 48.6427 173.233 48.6427C172.499 48.6427 171.896 48.8236 171.451 49.2114C170.979 49.5993 170.691 50.1163 170.586 50.8144H175.985Z" fill="white"/>
<path d="M186.994 57.5364L180.494 46.1089H185.998L189.562 52.8827L193.048 46.1089H198.5L188.776 63.9999H183.455L186.994 57.5364Z" fill="white"/>
<g opacity="0.5">
<path d="M65.1679 59.3463H46.2441V40.6796H65.1679V59.3463ZM69.8858 36H41.5V64H69.8858V36Z" fill="white"/>
</g>
<g opacity="0.5">
<path d="M60.2142 45.5662H51.1979V54.46H60.2142V45.5662Z" fill="white"/>
</g>
</svg>
