<svg width="161" height="202" viewBox="0 0 161 202" fill="none" xmlns="http://www.w3.org/2000/svg">
<path d="M159.217 64.2781L159.224 132.595L119.904 155.397L80.4058 178.188V178.211L40.9033 201V178.211L80.4058 155.407V132.602L119.806 109.96L119.904 86.9943L159.217 64.2781Z" fill="#090D06" stroke="white" stroke-width="2" stroke-linejoin="round"/>
<path d="M141.233 1L128.729 19.6276L132.995 22.0873L132.9 49.0648L146.017 56.6493V29.6064L151.173 32.5842L141.233 1Z" fill="#CBFC01" stroke="black" stroke-width="2" stroke-linejoin="round"/>
<path d="M40.9027 178.212V201L1.41895 178.09L1.42361 155.32L40.9027 178.212Z" fill="#090D06" stroke="white" stroke-width="2" stroke-linejoin="round"/>
<path d="M40.903 178.212L80.4054 155.407L40.8189 132.527L1.42383 155.32L40.903 178.212Z" fill="#090D06" stroke="white" stroke-width="2" stroke-linejoin="round"/>
<path d="M40.8185 132.527L80.4049 155.407V132.602L40.7998 109.629L40.8185 132.527Z" fill="#090D06" stroke="white" stroke-width="2" stroke-linejoin="round"/>
<path d="M80.4049 132.602L119.805 109.96L80.1622 86.8218L40.7998 109.629L80.4049 132.602Z" fill="#090D06" stroke="white" stroke-width="1.5" stroke-linejoin="round"/>
<path d="M80.1621 86.8216V64.1777L119.903 86.9943L119.805 109.96L80.1621 86.8216Z" fill="#090D06" stroke="white" stroke-width="2" stroke-linejoin="round"/>
<path d="M119.903 86.9944L80.1621 64.1778L119.784 41.562L159.216 64.2782L119.903 86.9944Z" fill="#090D06" stroke="white" stroke-width="2" stroke-linejoin="round"/>
<path d="M14.5908 162.954L14.6725 185.782L27.6665 193.32L27.7389 170.578L14.5908 162.954Z" fill="#CBFC01" stroke="black" stroke-width="2" stroke-linejoin="round"/>
<path d="M27.7389 170.578L67.1643 147.754L53.9813 140.135L14.5908 162.954L27.7389 170.578Z" fill="#CBFC01" stroke="black" stroke-width="2" stroke-linejoin="round"/>
<path d="M67.1635 147.754L67.1542 124.917L53.9875 117.279L53.9805 140.135L67.1635 147.754Z" fill="#CBFC01" stroke="black" stroke-width="2" stroke-linejoin="round"/>
<path d="M67.154 124.917L106.61 102.259L93.4968 94.6045L53.9873 117.279L67.154 124.917Z" fill="#CBFC01" stroke="black" stroke-width="2" stroke-linejoin="round"/>
<path d="M106.61 102.259V79.363L93.5088 71.8416V94.6044L106.61 102.259Z" fill="#CBFC01" stroke="black" stroke-width="2" stroke-linejoin="round"/>
<path d="M106.61 79.3631L146.066 56.6492L132.92 49.0647L93.5088 71.8416L106.61 79.3631Z" fill="#CBFC01" stroke="black" stroke-width="2" stroke-linejoin="round"/>
</svg>
