<svg width="195" height="202" viewBox="0 0 195 202" fill="none" xmlns="http://www.w3.org/2000/svg">
<path d="M45.7021 55.4434L45.7122 158.187L75.3608 175.306V72.5669L45.7021 55.4434Z" fill="#090D06" stroke="white" stroke-width="2" stroke-linejoin="round"/>
<path d="M45.7034 106.819L75.3545 123.945L67.9487 128.223L38.29 111.099L45.7034 106.819Z" fill="#090D06" stroke="white" stroke-width="2" stroke-linejoin="round"/>
<path d="M67.9488 128.223V136.786L38.2852 119.66L38.2902 111.099L67.9488 128.223Z" fill="#090D06" stroke="white" stroke-width="2" stroke-linejoin="round"/>
<path d="M38.2929 119.66L67.9439 136.789L60.5356 141.066L30.877 123.943L38.2929 119.66Z" fill="#090D06" stroke="white" stroke-width="2" stroke-linejoin="round"/>
<path d="M60.5362 141.066V149.629L30.875 132.503L30.8775 123.943L60.5362 141.066Z" fill="#090D06" stroke="white" stroke-width="2" stroke-linejoin="round"/>
<path d="M30.8798 132.503L60.5308 149.632L53.1225 153.907L23.4639 136.783L30.8798 132.503Z" fill="#090D06" stroke="white" stroke-width="2" stroke-linejoin="round"/>
<path d="M53.1221 153.907V162.47L23.4609 145.347L23.4635 136.783L53.1221 153.907Z" fill="#090D06" stroke="white" stroke-width="2" stroke-linejoin="round"/>
<path d="M23.4671 145.346L53.1182 162.473L45.7123 166.75L16.0537 149.627L23.4671 145.346Z" fill="#090D06" stroke="white" stroke-width="2" stroke-linejoin="round"/>
<path d="M45.7115 166.75V175.313L16.0479 158.187L16.0529 149.627L45.7115 166.75Z" fill="#090D06" stroke="white" stroke-width="2" stroke-linejoin="round"/>
<path d="M16.0556 158.187L45.7066 175.316L38.2983 179.594L8.63965 162.47L16.0556 158.187Z" fill="#090D06" stroke="white" stroke-width="2" stroke-linejoin="round"/>
<path d="M38.2979 179.594V188.157L8.63672 171.031L8.63924 162.47L38.2979 179.594Z" fill="#090D06" stroke="white" stroke-width="2" stroke-linejoin="round"/>
<path d="M8.64249 171.031L38.2935 188.159L30.8852 192.434L1.22656 175.311L8.64249 171.031Z" fill="#090D06" stroke="white" stroke-width="2" stroke-linejoin="round"/>
<path d="M30.8848 192.434V200.997L1.22363 183.874L1.22615 175.311L30.8848 192.434Z" fill="#090D06" stroke="white" stroke-width="2" stroke-linejoin="round"/>
<path d="M193.992 98.2508V106.814L142.091 136.788L84.5245 170.017L30.8848 201V192.434L38.2931 188.159L38.2982 179.594L45.704 175.316L45.709 166.75L53.1174 162.472L53.1224 153.907L60.5308 149.632L60.5358 141.066L67.9416 136.788L67.9467 128.223L75.355 123.945L75.3601 123.97V72.5667L142.091 34.0469V76.847L149.504 72.5667V81.1298L156.92 76.847V85.41L164.333 81.1298V89.6903L171.749 85.41V93.9706L179.163 89.6903V98.2508L186.579 93.9706V102.534L193.992 98.2508Z" fill="#090D06" stroke="white" stroke-width="2" stroke-linejoin="round"/>
<path d="M142.091 68.2866L149.507 72.5669L142.091 76.8471V68.2866Z" fill="#090D06" stroke="white" stroke-width="2" stroke-linejoin="round"/>
<path d="M156.92 76.8472L149.507 72.5669V81.1274L156.92 76.8472Z" fill="#090D06" stroke="white" stroke-width="2" stroke-linejoin="round"/>
<path d="M156.92 76.8472L164.336 81.1274L156.92 85.4102V76.8472Z" fill="#090D06" stroke="white" stroke-width="2" stroke-linejoin="round"/>
<path d="M164.336 81.1274L171.749 85.4102L164.336 89.6905V81.1274Z" fill="#090D06" stroke="white" stroke-width="2" stroke-linejoin="round"/>
<path d="M171.75 85.4102L179.166 89.6904L171.75 93.9707V85.4102Z" fill="#090D06" stroke="white" stroke-width="2" stroke-linejoin="round"/>
<path d="M179.165 89.6904L186.578 93.9707L179.165 98.251V89.6904Z" fill="#090D06" stroke="white" stroke-width="2" stroke-linejoin="round"/>
<path d="M186.579 93.9707L193.992 98.251L186.579 102.531V93.9707Z" fill="#090D06" stroke="white" stroke-width="2" stroke-linejoin="round"/>
<path d="M37.4092 46.2813L104.142 7.75391L148.63 33.4481L81.8971 71.968L37.4092 46.2813Z" fill="#090D06" stroke="white" stroke-width="2" stroke-linejoin="round"/>
<path d="M37.4092 46.2812L81.8971 71.9679V80.5284L37.4092 54.8443V46.2812Z" fill="#090D06" stroke="white" stroke-width="2" stroke-linejoin="round"/>
<path d="M81.8975 80.5286V71.9681L148.631 33.4482V42.0088L81.8975 80.5286Z" fill="#090D06" stroke="white" stroke-width="2" stroke-linejoin="round"/>
<path d="M115.22 80.7661L107.667 100.434L98.2881 94.6226L99.9406 116.312L131.272 98.2282L132.636 74.9395L123.586 91.0599L115.22 80.7661Z" fill="#CBFC01" stroke="black" stroke-width="2"/>
<path d="M93.5476 43.7319C105.348 43.7319 114.914 34.166 114.914 22.3659C114.914 10.5659 105.348 1 93.5476 1C81.7475 1 72.1816 10.5659 72.1816 22.3659C72.1816 34.166 81.7475 43.7319 93.5476 43.7319Z" fill="#CBFC01" stroke="black" stroke-width="2" stroke-linejoin="round"/>
</svg>
