<svg width="172" height="203" viewBox="0 0 172 203" fill="none" xmlns="http://www.w3.org/2000/svg">
<path d="M154.688 124.242L17.6977 124.906L1.59527 124.984V152.523C1.07555 165.285 9.17782 178.089 25.9291 187.765C55.1988 204.664 100.974 206.322 134.056 192.83V178.467L147.334 186.152C161.18 177.617 168.808 166.958 170.199 156.11C170.253 155.699 170.298 155.287 170.331 154.876V124.167L154.688 124.242Z" fill="#090D06" stroke="white" stroke-width="2" stroke-linejoin="round"/>
<path d="M154.688 124.242L17.6978 124.906C20.5299 122.658 23.5276 120.626 26.6652 118.829C59.8404 99.6769 113.3 99.4876 146.072 118.411C149.087 120.136 151.967 122.085 154.688 124.242Z" fill="#090D06" stroke="white" stroke-width="2" stroke-linejoin="round"/>
<path d="M170.343 154.888V150.12C170.477 151.706 170.477 153.301 170.343 154.888Z" fill="#090D06" stroke="white" stroke-width="2" stroke-linejoin="round"/>
<path d="M86.5103 171.134C133.142 170.646 170.716 148.428 170.434 121.51C170.152 94.5912 132.121 73.1653 85.4895 73.6537C38.858 74.142 1.28419 96.3596 1.56609 123.278C1.84799 150.196 39.8788 171.622 86.5103 171.134Z" fill="#090D06" stroke="white" stroke-width="2" stroke-linejoin="round"/>
<path d="M86.3976 157.195C122.67 156.815 151.897 139.533 151.677 118.594C151.458 97.6547 121.876 80.9881 85.6035 81.368C49.3312 81.7479 20.1045 99.0303 20.3238 119.969C20.5431 140.909 50.1253 157.575 86.3976 157.195Z" fill="#090D06" stroke="white" stroke-width="2" stroke-linejoin="round"/>
<path d="M20.353 118.832V97.4087L151.609 96.7748V121.592L87.181 145.214L42.3616 135.057L20.353 118.832Z" fill="#090D06" stroke="white" stroke-width="2" stroke-linejoin="round"/>
<path d="M86.3966 133.313C122.669 132.934 151.896 115.651 151.676 94.712C151.457 73.7728 121.875 57.1062 85.6025 57.4861C49.3303 57.866 20.1035 75.1484 20.3228 96.0876C20.5421 117.027 50.1244 133.693 86.3966 133.313Z" fill="#090D06" stroke="white" stroke-width="2" stroke-linejoin="round"/>
<path d="M132.73 92.2986C135.073 93.6416 137.313 95.1579 139.43 96.8349L32.8774 97.3486C35.0834 95.5998 37.4183 94.0201 39.8622 92.6231C65.656 77.7193 107.24 77.5781 132.73 92.2986Z" fill="#090D06" stroke="white" stroke-width="2" stroke-linejoin="round"/>
<path d="M151.618 120.703V116.939C151.724 118.191 151.724 119.451 151.618 120.703Z" fill="#090D06" stroke="white" stroke-width="2" stroke-linejoin="round"/>
<path d="M151.618 96.7748V120.703C151.591 121.004 151.558 121.322 151.519 121.628C150.386 130.455 143.933 139.134 132.178 145.92C106.375 160.818 64.791 160.965 39.2976 146.248C26.2594 138.719 19.9567 128.76 20.3712 118.835V97.4087L32.8987 97.3486L139.451 96.8349L151.618 96.7748Z" fill="#090D06" stroke="white" stroke-width="2" stroke-linejoin="round"/>
<path d="M86.3966 133.313C122.669 132.934 151.896 115.651 151.676 94.712C151.457 73.7728 121.875 57.1062 85.6025 57.4861C49.3303 57.866 20.1035 75.1484 20.3228 96.0876C20.5421 117.027 50.1244 133.693 86.3966 133.313Z" fill="#090D06" stroke="white" stroke-width="2" stroke-linejoin="round"/>
<path d="M86.3394 126.119C117.309 125.794 142.264 111.038 142.076 93.1603C141.889 75.2821 116.631 61.0519 85.6614 61.3763C54.6915 61.7006 29.7372 76.4566 29.9245 94.3348C30.1117 112.213 55.3695 126.443 86.3394 126.119Z" fill="#090D06" stroke="white" stroke-width="2" stroke-linejoin="round"/>
<path d="M29.9487 93.3591V75.0666L142.02 74.5259V95.7144L87.0101 115.884L48.7429 107.211L29.9487 93.3591Z" fill="#090D06" stroke="white" stroke-width="2" stroke-linejoin="round"/>
<path d="M86.3423 105.722C117.312 105.397 142.266 90.6412 142.079 72.763C141.892 54.8849 116.634 40.6547 85.6643 40.979C54.6944 41.3034 29.7402 56.0594 29.9274 73.9375C30.1146 91.8157 55.3724 106.046 86.3423 105.722Z" fill="#090D06" stroke="white" stroke-width="2" stroke-linejoin="round"/>
<path d="M131.622 74.577L40.6436 75.0156C42.5241 73.523 44.5145 72.1743 46.5978 70.981C68.6305 58.2613 104.137 58.1351 125.908 70.7016C127.908 71.8473 129.818 73.1428 131.622 74.577Z" fill="#090D06" stroke="white" stroke-width="2" stroke-linejoin="round"/>
<path d="M142.02 74.5259C142.02 74.5259 141.93 93.7857 141.93 95.7504C141.93 103.345 135.456 110.693 125.407 116.479C103.374 129.199 67.8675 129.325 46.0962 116.759C34.9507 110.324 29.9487 103.066 29.9487 93.29V75.0666L40.6436 75.0156L131.622 74.577L142.02 74.5259Z" fill="#090D06" stroke="white" stroke-width="2" stroke-linejoin="round"/>
<path d="M86.3423 105.722C117.312 105.397 142.266 90.6412 142.079 72.763C141.892 54.8849 116.634 40.6547 85.6643 40.979C54.6944 41.3034 29.7402 56.0594 29.9274 73.9375C30.1146 91.8157 55.3724 106.046 86.3423 105.722Z" fill="#090D06" stroke="white" stroke-width="2" stroke-linejoin="round"/>
<path d="M85.4978 93.5189C106.036 93.3899 122.625 83.6739 122.551 71.8178C122.476 59.9617 105.766 50.455 85.228 50.584C64.6897 50.7131 48.1004 60.429 48.1749 72.2851C48.2494 84.1413 64.9595 93.6479 85.4978 93.5189Z" fill="#090D06"/>
<path d="M85.4324 83.1878C96.0873 83.1208 104.694 78.0807 104.655 71.9303C104.616 65.7799 95.9474 60.8483 85.2925 60.9152C74.6375 60.9822 66.0313 66.0223 66.07 72.1727C66.1086 78.3231 74.7775 83.2547 85.4324 83.1878Z" fill="#CBFC01"/>
<path d="M87.5688 70.1668C87.2427 70.534 86.8119 70.7925 86.3344 70.9074C85.8569 71.0224 85.3556 70.9883 84.8981 70.8097L63.5955 62.6984L70.9437 59.2286L40.6616 31.9657L26.8063 28.3216L13.2334 16.1036L27.2149 15.7701L26.0793 1.83374L39.6311 14.0307L44.8103 27.5225L74.9753 54.6772L77.6791 47.0196L87.9323 67.448C88.0347 67.6522 88.1085 67.8696 88.1516 68.0939C88.2224 68.461 88.2065 68.8394 88.1054 69.1993C88.0042 69.5591 87.8205 69.8904 87.5688 70.1668Z" fill="#090D06" stroke="white" stroke-width="2" stroke-linejoin="round"/>
<path d="M134.07 178.467L147.346 186.152V166.295C147.346 161.761 144.591 159.685 141.193 161.641L140.226 162.2C136.825 164.162 134.07 169.41 134.07 173.958V192.833V178.467Z" fill="#090D06" stroke="white" stroke-width="2" stroke-linejoin="round"/>
</svg>
