<svg width="112" height="203" viewBox="0 0 112 203" fill="none" xmlns="http://www.w3.org/2000/svg">
<path d="M59.2125 142.759V201.834L1.40381 168.909V109.284L59.2125 142.759Z" fill="#090D06" stroke="white" stroke-width="2" stroke-linejoin="round"/>
<path d="M110.596 113.092V172.165L59.2124 201.834V142.759L110.596 113.092Z" fill="#090D06" stroke="white" stroke-width="2" stroke-linejoin="round"/>
<path d="M39.8184 123.731L39.9136 123.898H40.1064L39.8184 123.731Z" fill="#090D06" stroke="white" stroke-width="2" stroke-linejoin="round"/>
<path d="M39.9136 123.905L39.8184 123.738L40.1064 123.905H39.9136Z" fill="#090D06" stroke="white" stroke-width="2" stroke-linejoin="round"/>
<path d="M110.596 113.092L59.2125 142.759L1.40381 109.284L7.92645 105.529L59.1935 135.15L104 109.281L110.596 113.092Z" fill="#090D06" stroke="white" stroke-width="2" stroke-linejoin="round"/>
<path d="M14.3564 101.83L7.82666 98.0594V105.472L7.92664 105.529L59.1937 135.158L59.2127 127.73L14.3564 101.83Z" fill="#090D06" stroke="white" stroke-width="2" stroke-linejoin="round"/>
<path d="M104.173 101.763V109.181L104 109.281L59.1934 135.15L59.2124 127.723L96.9509 105.934L97.577 105.572L104.173 101.763Z" fill="#090D06" stroke="white" stroke-width="2" stroke-linejoin="round"/>
<path d="M59.2124 112.885L59.1934 120.313L20.7883 98.126L14.249 94.3481V86.9304L27.2253 94.4196L59.2124 112.885Z" fill="#090D06" stroke="white" stroke-width="2" stroke-linejoin="round"/>
<path d="M97.7508 90.6393V98.057L91.1543 101.863L90.5497 102.213L59.1934 120.313L59.2124 112.885L84.7317 98.1546L97.7508 90.6393Z" fill="#090D06" stroke="white" stroke-width="2" stroke-linejoin="round"/>
<path d="M59.1934 98.0451V105.463L33.6622 90.7155L27.111 86.9328L27.0801 79.5222L27.0872 79.5198L40.0849 87.0185L59.1934 98.0451Z" fill="#090D06" stroke="white" stroke-width="2" stroke-linejoin="round"/>
<path d="M27.0872 79.5199L27.0801 79.5223V79.5151L27.0872 79.5199Z" fill="#090D06" stroke="white" stroke-width="2" stroke-linejoin="round"/>
<path d="M84.903 83.224V90.6393L78.309 94.4458L59.2124 105.47L59.2291 98.0428L71.8887 90.7369L84.903 83.224Z" fill="#090D06" stroke="white" stroke-width="2" stroke-linejoin="round"/>
<path d="M104.174 101.763L97.5773 105.572L96.9512 105.934L59.2127 127.723L14.3564 101.828L7.82666 98.057L14.2493 94.3481L20.7886 98.126L59.1937 120.313L90.55 102.213L91.1546 101.863L97.7511 98.057L104.174 101.763Z" fill="#090D06" stroke="white" stroke-width="2" stroke-linejoin="round"/>
<path d="M39.2852 38.451L77.207 26.3698L51.921 1.83374L39.2852 38.451Z" fill="#CBFC01" stroke="white" stroke-width="2" stroke-linejoin="round"/>
<path d="M51.9209 1.83374L76.8403 11.6558L77.2069 26.3698L51.9209 1.83374Z" fill="#CBFC01" stroke="black" stroke-width="2" stroke-linejoin="round"/>
<path d="M39.2852 38.451L66.6017 58.5545L84.9056 35.9752L77.207 26.3698L39.2852 38.451Z" fill="#CBFC01" stroke="black" stroke-width="2" stroke-linejoin="round"/>
<path d="M84.9056 35.9753L76.8403 11.6558L77.2069 26.3699L84.9056 35.9753Z" fill="#CBFC01" stroke="black" stroke-width="2" stroke-linejoin="round"/>
<path d="M25.9922 18.5712L35.3286 56.5549L39.2851 38.451L25.9922 18.5712Z" fill="#CBFC01" stroke="black" stroke-width="2" stroke-linejoin="round"/>
<path d="M66.6016 58.5545L35.3286 56.5549L39.2851 38.451L66.6016 58.5545Z" fill="#CBFC01" stroke="black" stroke-width="2" stroke-linejoin="round"/>
<path d="M66.6016 58.5546L60.1766 66.7793L35.3286 56.5549L66.6016 58.5546Z" fill="#CBFC01" stroke="black" stroke-width="2" stroke-linejoin="round"/>
<path d="M84.9057 35.9753L67.3921 57.7904L60.1768 66.7793L66.6018 58.5546L84.9057 35.9753Z" fill="#CBFC01" stroke="black" stroke-width="2" stroke-linejoin="round"/>
<path d="M39.2851 38.451L51.9209 1.83374L25.9922 18.5712L39.2851 38.451Z" fill="#CBFC01" stroke="black" stroke-width="2" stroke-linejoin="round"/>
<path d="M52.7873 64.6797L27.0776 79.5199L40.0753 87.0186L59.1838 98.0452V105.463L33.6622 90.7155L27.111 86.9329L27.0776 79.5223L14.2466 86.9305L27.2228 94.4196L59.2147 112.885L84.734 98.1547L97.7507 90.6417L52.7873 64.6797ZM78.3066 94.4363L59.2147 105.47L59.2314 98.0428L71.891 90.7369L84.9054 83.224V90.6417L78.3066 94.4363Z" fill="#090D06" stroke="white" stroke-width="2" stroke-linejoin="round"/>
<path d="M77.2044 26.3698L66.6016 58.5545" stroke="black" stroke-width="2" stroke-linejoin="round"/>
</svg>
