<svg width="170" height="203" viewBox="0 0 170 203" fill="none" xmlns="http://www.w3.org/2000/svg">
<path d="M112.506 45.0063C115.678 44.9864 118.24 43.4704 118.229 41.6203C118.217 39.7703 115.636 38.2866 112.464 38.3066C109.292 38.3265 106.73 39.8424 106.741 41.6925C106.753 43.5426 109.334 45.0262 112.506 45.0063Z" fill="white"/>
<path fill-rule="evenodd" clip-rule="evenodd" d="M106.77 30.3328L106.743 41.7068L118.233 41.7018L118.159 30.3921L106.77 30.3328Z" fill="white"/>
<path d="M118.158 30.2859C118.099 31.0839 117.541 31.8744 116.481 32.4846C114.258 33.7766 110.636 33.7841 108.42 32.5019C107.392 31.909 106.844 31.1456 106.772 30.3674C106.762 30.2507 106.762 30.1333 106.772 30.0166C106.844 29.2286 107.404 28.4504 108.449 27.8476C110.673 26.558 114.292 26.5506 116.511 27.8303C117.551 28.4331 118.099 29.2088 118.158 29.9993C118.166 30.0947 118.166 30.1905 118.158 30.2859Z" fill="#090D06" stroke="white" stroke-width="2" stroke-linejoin="round"/>
<path d="M64.257 111.541C67.4291 111.521 69.9912 110.005 69.9796 108.155C69.968 106.305 67.387 104.821 64.2149 104.841C61.0427 104.861 58.4806 106.377 58.4922 108.227C58.5039 110.077 61.0848 111.561 64.257 111.541Z" fill="white"/>
<path d="M17.5436 157.821C20.7157 157.801 23.2778 156.285 23.2662 154.435C23.2546 152.585 20.6736 151.101 17.5015 151.121C14.3293 151.141 11.7672 152.657 11.7789 154.507C11.7905 156.357 14.3714 157.841 17.5436 157.821Z" fill="white"/>
<path d="M95.3809 28.0254L126.523 46.0053L168.047 22.0321L136.904 4.05219L95.3809 28.0254Z" fill="#090D06" stroke="white" stroke-width="2" stroke-linejoin="round"/>
<path d="M126.523 46.0053L168.047 22.0321V123.921L126.523 147.894V46.0053Z" fill="#090D06" stroke="white" stroke-width="2" stroke-linejoin="round"/>
<path d="M95.3809 28.0255V129.914L126.523 147.894V46.0054L95.3809 28.0255Z" fill="#090D06" stroke="white" stroke-width="2" stroke-linejoin="round"/>
<path d="M48.6675 102.942L79.8099 120.924L121.333 96.9484L90.1908 78.9685L48.6675 102.942Z" fill="#090D06" stroke="white" stroke-width="2" stroke-linejoin="round"/>
<path d="M79.8096 120.924L121.333 96.9484V150.891L79.8096 174.864V120.924Z" fill="#090D06" stroke="white" stroke-width="2" stroke-linejoin="round"/>
<path d="M48.6675 102.942V156.884L79.8099 174.864V120.924L48.6675 102.942Z" fill="#090D06" stroke="white" stroke-width="2" stroke-linejoin="round"/>
<path d="M1.95361 153.887L33.0961 171.867L74.6193 147.894L43.4769 129.914L1.95361 153.887Z" fill="#090D06" stroke="white" stroke-width="2" stroke-linejoin="round"/>
<path d="M33.0962 171.867L74.6195 147.894V177.861L33.0962 201.834V171.867Z" fill="#090D06" stroke="white" stroke-width="2" stroke-linejoin="round"/>
<path d="M1.95361 153.887V183.854L33.0961 201.834V171.867L1.95361 153.887Z" fill="#090D06" stroke="white" stroke-width="2" stroke-linejoin="round"/>
<path d="M130.501 33.243C139.174 33.243 146.206 26.2118 146.206 17.5384C146.206 8.86495 139.174 1.83374 130.501 1.83374C121.828 1.83374 114.796 8.86495 114.796 17.5384C114.796 26.2118 121.828 33.243 130.501 33.243Z" fill="#CBFC01" stroke="black" stroke-width="2" stroke-linejoin="round"/>
<path d="M83.1719 106.959C91.8453 106.959 98.8766 99.9275 98.8766 91.2541C98.8766 82.5806 91.8453 75.5494 83.1719 75.5494C74.4985 75.5494 67.4673 82.5806 67.4673 91.2541C67.4673 99.9275 74.4985 106.959 83.1719 106.959Z" fill="#CBFC01" stroke="black" stroke-width="2" stroke-linejoin="round"/>
<path d="M35.191 155.286C43.8644 155.286 50.8956 148.254 50.8956 139.581C50.8956 130.907 43.8644 123.876 35.191 123.876C26.5175 123.876 19.4863 130.907 19.4863 139.581C19.4863 148.254 26.5175 155.286 35.191 155.286Z" fill="#CBFC01" stroke="black" stroke-width="2" stroke-linejoin="round"/>
</svg>
