<svg width="240" height="21" viewBox="0 0 240 21" fill="none" xmlns="http://www.w3.org/2000/svg">
<g clip-path="url(#clip0_121_52)">
<path fill-rule="evenodd" clip-rule="evenodd" d="M150.892 1.24645C152.589 2.07935 153.879 3.27411 154.768 4.83074C155.657 6.38737 156.099 8.24269 156.099 10.3967V10.4254C156.099 12.5966 155.657 14.4635 154.768 16.0202C153.884 17.5825 152.589 18.7773 150.892 19.6044C149.195 20.4373 147.161 20.8509 144.783 20.8509H137.205C135.537 20.8509 134.032 20.6326 132.685 20.2017C131.324 20.6326 129.796 20.8509 128.087 20.8509H120.509C118.19 20.8509 116.179 20.4316 114.47 19.6044C112.762 18.7715 111.466 17.5767 110.577 16.0202C109.688 14.4635 109.246 12.5966 109.246 10.4254V10.3967C109.246 8.24844 109.688 6.38737 110.577 4.83074C111.466 3.26836 112.762 2.0736 114.47 1.24645C116.179 0.413567 118.19 0 120.509 0H128.087C129.796 0 131.324 0.218278 132.685 0.649072C134.032 0.218278 135.537 0 137.205 0H144.783C147.155 0 149.195 0.419316 150.892 1.24645ZM129.947 10.4254C129.947 11.8499 130.22 13.0677 130.772 14.0843C131.225 14.9173 131.864 15.5836 132.678 16.1063C133.497 15.5893 134.137 14.9173 134.578 14.0843C135.119 13.0677 135.387 11.8441 135.387 10.4254V10.3967C135.387 8.97794 135.119 7.7602 134.578 6.75499C134.137 5.92784 133.497 5.26728 132.678 4.74457C131.864 5.26728 131.219 5.92784 130.772 6.75499C130.22 7.7602 129.947 8.97794 129.947 10.3967V10.4254ZM116.534 16.4394C117.62 16.9909 118.945 17.2665 120.503 17.2665V17.2609H128.081H128.133C127.814 16.8759 127.523 16.4624 127.267 16.0202C126.378 14.4635 125.937 12.5966 125.937 10.4254V10.3967C125.937 8.24844 126.378 6.38737 127.267 4.83074C127.523 4.38845 127.814 3.97487 128.133 3.59003H128.081H120.503C118.945 3.59003 117.62 3.86574 116.534 4.41716C115.441 4.96859 114.622 5.74979 114.075 6.75499C113.523 7.7602 113.25 8.97794 113.25 10.3967V10.4254C113.25 11.8499 113.523 13.0677 114.075 14.0843C114.627 15.101 115.447 15.888 116.534 16.4394ZM151.281 14.0843C151.822 13.0677 152.089 11.8441 152.089 10.4254V10.4025C152.089 8.98367 151.822 7.76595 151.281 6.76073C150.741 5.75552 149.921 4.97434 148.823 4.42291C147.725 3.87149 146.376 3.59576 144.778 3.59576H137.205C137.525 3.98062 137.816 4.38845 138.071 4.83649C138.96 6.39312 139.403 8.24844 139.403 10.4025V10.4312C139.403 12.6024 138.96 14.4692 138.071 16.0258C137.816 16.4681 137.525 16.8817 137.205 17.2665H144.778C146.376 17.2665 147.725 16.9909 148.823 16.4394C149.921 15.888 150.741 15.101 151.281 14.0843ZM4.13203 16.9106H22.2235V20.6729H0V0.18389H4.13203V16.9106ZM48.4341 3.70498H29.8313V8.73676H46.7836V12.2004H29.8313V17.1461H48.4341V20.6671H25.7864V0.18389H48.4341V3.70498ZM50.9791 0.18389L61.2249 10.3968H61.2307L50.8688 20.6671H56.1689L64.3457 12.5278L72.5226 20.6671H77.8228L67.4898 10.3968L77.6717 0.18389H72.4296L64.3631 8.29447L56.3083 0.18389H50.9791ZM85.3076 20.6786V14.1017H97.5236C97.5738 14.1017 97.6237 14.1015 97.6734 14.1012L102.144 20.6729H106.694L101.569 13.5538C101.857 13.461 102.132 13.3564 102.394 13.2401C103.684 12.6714 104.631 11.873 105.241 10.8448C105.852 9.81665 106.154 8.61614 106.154 7.23183C106.154 5.06057 105.433 3.34311 103.998 2.07943C102.562 0.815736 100.406 0.18389 97.5294 0.18389H81.2628V20.6786H85.3076ZM97.5294 10.6955H85.3076V3.73945H97.5294C99.0636 3.73945 100.22 4.0324 100.987 4.61255C101.754 5.19269 102.138 6.06004 102.138 7.2031V7.23183C102.138 8.39787 101.754 9.26522 100.987 9.83962C100.22 10.4083 99.0694 10.6955 97.5294 10.6955ZM186.115 0.18389H190.009V20.6729H185.994V7.08248L185.964 5.87049L176.107 16.8818H174.038L164.124 5.87049L164.153 7.08248V20.6729H160.079V0.18389H164.031L175.055 12.3842L186.115 0.18389ZM194.502 18.6909C194.502 19.3802 194.769 19.9374 195.297 20.3625H195.292C195.821 20.7875 196.576 21 197.437 21C198.296 21 198.994 20.7875 199.535 20.3625C200.075 19.9374 200.342 19.363 200.342 18.6909C200.342 18.0189 200.075 17.4675 199.545 17.031C199.017 16.6002 198.361 16.3819 197.466 16.3819C196.571 16.3819 195.85 16.6002 195.309 17.031C194.769 17.4675 194.502 18.0017 194.502 18.6909ZM228.175 20.6729L225.448 16.2041H210.112L207.444 20.6729H203.039L215.772 0.18389H219.846L232.579 20.6729H228.175ZM212.117 12.8552H223.467L217.806 3.76816L212.117 12.8552ZM240 0.18389H235.869V20.6729H240V0.18389Z" fill="white"/>
</g>
<defs>
<clipPath id="clip0_121_52">
<rect width="240" height="21" fill="white"/>
</clipPath>
</defs>
</svg>
