<svg width="240" height="100" viewBox="0 0 240 100" fill="none" xmlns="http://www.w3.org/2000/svg">
<path fill-rule="evenodd" clip-rule="evenodd" d="M149.476 41.1871C151.095 41.9803 152.326 43.1182 153.175 44.6007C154.022 46.0832 154.444 47.8502 154.444 49.9016V49.929C154.444 51.9968 154.022 53.7748 153.175 55.2573C152.331 56.7452 151.095 57.8831 149.476 58.6709C147.857 59.4641 145.916 59.858 143.648 59.858H136.416C134.825 59.858 133.389 59.6501 132.103 59.2397C130.805 59.6501 129.347 59.858 127.716 59.858H120.485C118.273 59.858 116.354 59.4586 114.724 58.6709C113.094 57.8776 111.857 56.7397 111.009 55.2573C110.16 53.7748 109.739 51.9968 109.739 49.929V49.9016C109.739 47.8557 110.16 46.0832 111.009 44.6007C111.857 43.1127 113.094 41.9749 114.724 41.1871C116.354 40.3939 118.273 40 120.485 40H127.716C129.347 40 130.805 40.2079 132.103 40.6182C133.389 40.2079 134.825 40 136.416 40H143.648C145.911 40 147.857 40.3993 149.476 41.1871ZM129.491 49.929C129.491 51.2856 129.751 52.4454 130.278 53.4137C130.711 54.2069 131.32 54.8416 132.097 55.3393C132.879 54.8469 133.489 54.2069 133.91 53.4137C134.426 52.4454 134.682 51.2801 134.682 49.929V49.9016C134.682 48.5504 134.426 47.3907 133.91 46.4333C133.489 45.6456 132.879 45.0165 132.097 44.5186C131.32 45.0165 130.705 45.6456 130.278 46.4333C129.751 47.3907 129.491 48.5504 129.491 49.9016V49.929ZM116.692 55.6566C117.729 56.1818 118.994 56.4443 120.48 56.4443V56.439H127.711H127.761C127.456 56.0723 127.178 55.6784 126.934 55.2573C126.086 53.7748 125.665 51.9968 125.665 49.929V49.9016C125.665 47.8557 126.086 46.0832 126.934 44.6007C127.178 44.1795 127.456 43.7856 127.761 43.4191H127.711H120.48C118.994 43.4191 117.729 43.6817 116.692 44.2068C115.65 44.732 114.868 45.476 114.347 46.4333C113.82 47.3907 113.559 48.5504 113.559 49.9016V49.929C113.559 51.2856 113.82 52.4454 114.347 53.4137C114.874 54.3819 115.655 55.1314 116.692 55.6566ZM149.847 53.4137C150.363 52.4454 150.618 51.2801 150.618 49.929V49.9071C150.618 48.5559 150.363 47.3961 149.847 46.4388C149.332 45.4815 148.55 44.7375 147.502 44.2123C146.454 43.6871 145.167 43.4245 143.643 43.4245H136.416C136.722 43.7911 136.999 44.1795 137.242 44.6062C138.091 46.0887 138.513 47.8557 138.513 49.9071V49.9344C138.513 52.0023 138.091 53.7802 137.242 55.2627C136.999 55.6839 136.722 56.0778 136.416 56.4443H143.643C145.167 56.4443 146.454 56.1818 147.502 55.6566C148.55 55.1314 149.332 54.3819 149.847 53.4137ZM9.44264 56.1053H26.7049V59.6885H5.5V40.1751H9.44264V56.1053ZM51.7142 43.5286H33.964V48.3207H50.1394V51.6194H33.964V56.3296H51.7142V59.683H30.1045V40.1751H51.7142V43.5286ZM54.1426 40.1751L63.9188 49.9017H63.9243L54.0373 59.683H59.0945L66.8965 51.9313L74.6986 59.683H79.7559L69.8965 49.9017L79.6117 40.1751H74.6099L66.9131 47.8995L59.2275 40.1751H54.1426ZM86.8977 59.6939V53.4302H98.5537C98.6016 53.4302 98.6493 53.43 98.6967 53.4297L102.962 59.6885H107.304L102.414 52.9084C102.689 52.82 102.951 52.7204 103.201 52.6097C104.432 52.068 105.336 51.3076 105.918 50.3284C106.5 49.3492 106.788 48.2058 106.788 46.8875C106.788 44.8196 106.101 43.1839 104.731 41.9804C103.361 40.7769 101.304 40.1751 98.5593 40.1751H83.0383V59.6939H86.8977ZM98.5593 50.1862H86.8977V43.5614H98.5593C100.023 43.5614 101.127 43.8404 101.859 44.3929C102.591 44.9454 102.957 45.7715 102.957 46.8601V46.8875C102.957 47.998 102.591 48.824 101.859 49.3711C101.127 49.9126 100.029 50.1862 98.5593 50.1862ZM183.084 40.1751H186.801V59.6885H182.969V46.7452L182.941 45.5909L173.536 56.0779H171.561L162.101 45.5909L162.129 46.7452V59.6885H158.242V40.1751H162.013L172.532 51.7945L183.084 40.1751ZM191.087 57.8008C191.087 58.4574 191.342 58.988 191.846 59.3929H191.841C192.345 59.7976 193.066 60 193.887 60C194.707 60 195.374 59.7976 195.889 59.3929C196.405 58.988 196.66 58.441 196.66 57.8008C196.66 57.1608 196.405 56.6357 195.9 56.22C195.395 55.8097 194.769 55.6018 193.915 55.6018C193.061 55.6018 192.373 55.8097 191.858 56.22C191.342 56.6357 191.087 57.1445 191.087 57.8008ZM223.217 59.6885L220.615 55.4324H205.982L203.436 59.6885H199.233L211.382 40.1751H215.269L227.42 59.6885H223.217ZM207.895 52.243H218.725L213.323 43.5887L207.895 52.243ZM234.5 40.1751H230.558V59.6885H234.5V40.1751Z" fill="white"/>
</svg>
