<svg width="672" height="712" viewBox="0 0 672 712" fill="none" xmlns="http://www.w3.org/2000/svg">
<path d="M351.56 525.38L68.0601 357.21L351.66 195.48L637.86 360.16L351.56 525.38Z" fill="#373737" stroke="black" stroke-width="3" stroke-linejoin="round"/>
<path d="M351.62 304.99L255.91 250.04L351.66 195.48L448.48 251.38L351.62 304.99Z" fill="#373737" stroke="black" stroke-width="3" stroke-linejoin="round"/>
<path d="M351.61 304.99L352.01 414.32L447.51 359.15L448.48 251.38L351.61 304.99Z" fill="#292929" stroke="black" stroke-width="3" stroke-linejoin="round"/>
<path d="M352.908 208.386C375.861 208.241 394.4 197.384 394.316 184.135C394.233 170.886 375.559 160.262 352.607 160.407C329.654 160.551 311.115 171.408 311.198 184.657C311.281 197.906 329.956 208.53 352.908 208.386Z" fill="#292929" stroke="black" stroke-width="3" stroke-linejoin="round"/>
<path d="M352.01 414.32L256.48 359.3L255.91 250.04L351.61 304.99L352.01 414.32Z" fill="#484848" stroke="black" stroke-width="3" stroke-linejoin="round"/>
<path d="M351.56 525.38L351.91 672.5L607.29 524.87L637.73 507.22L637.86 360.16L351.56 525.38Z" fill="#292929" stroke="black" stroke-width="3" stroke-linejoin="round"/>
<path d="M670.09 562.27L511.14 653.89L428.33 606.63L426.93 605.83L415.19 599.07L415.07 598.93L415.35 562.29L439.61 576.27L447 580.52L511.26 617.54L606.58 562.27L605.9 525.42L605.74 525.52H605.73L574.13 507.2L574.18 507.17L670.09 562.27Z" fill="#373737" stroke="black" stroke-width="3" stroke-linejoin="round"/>
<path d="M447 580.52L439.61 576.27L439.62 576.26L447 580.52Z" fill="#484848" stroke="black" stroke-width="3" stroke-linejoin="round"/>
<path d="M478.82 562.16L478.69 562.24L447 580.52L415.35 562.29V562.28L415.51 541.48V541.14L415.63 525.66L478.82 562.16Z" fill="#484848" stroke="black" stroke-width="3" stroke-linejoin="round"/>
<path d="M574.18 507.17L574.13 507.2L574.04 507.15L574.09 507.12L574.18 507.17Z" fill="#484848" stroke="black" stroke-width="3" stroke-linejoin="round"/>
<path d="M415.19 599.07L426.93 605.83L415.15 599.1L415.19 599.07Z" fill="#484848" stroke="black" stroke-width="3" stroke-linejoin="round"/>
<path d="M574.13 507.2L574.04 507.15L574.09 507.12L574.18 507.17L574.13 507.2Z" fill="#484848" stroke="black" stroke-width="3" stroke-linejoin="round"/>
<path d="M606.58 562.27L511.26 617.54L447.13 580.59L478.77 562.28L478.9 562.21L510.65 580.55L605.73 525.52H605.74L605.9 525.42L606.58 562.27Z" fill="#484848" stroke="black" stroke-width="3" stroke-linejoin="round"/>
<path d="M351.91 672.5L351.56 525.38L68.06 357.21L65.52 506.88L351.91 672.5Z" fill="#484848" stroke="black" stroke-width="3" stroke-linejoin="round"/>
<path d="M511.26 617.54L447.13 580.59L447 580.52L415.35 562.29V562.28L415.08 562.13L415.51 541.48V541.14L415.82 526.22L478.69 562.24L478.77 562.28L510.65 580.55L511.26 617.54Z" fill="#B3D955" stroke="black" stroke-width="3" stroke-linejoin="round"/>
<path d="M606.58 562.27L511.26 617.54L510.65 580.55L605.73 525.52H605.74L605.9 525.42L606.58 562.27Z" fill="#8DAB35" stroke="black" stroke-width="3" stroke-linejoin="round"/>
<path d="M415.23 525.43L415.63 525.32V525.66L415.23 525.43Z" fill="#484848" stroke="black" stroke-width="3" stroke-linejoin="round"/>
<path d="M511.37 690.95L415.1 635.88L414.96 598.94L511.24 654.31L511.37 690.95Z" fill="#484848" stroke="black" stroke-width="3" stroke-linejoin="round"/>
<path d="M670.31 562.26L670.35 598.72L511.37 690.94L511.24 654.31L670.31 562.26Z" fill="#292929" stroke="black" stroke-width="3" stroke-linejoin="round"/>
<path d="M192.69 617.03L97.05 561.96L96.3201 525.67L96.6901 525.46L192.3 580.26L192.69 617.03Z" fill="#484848" stroke="black" stroke-width="3" stroke-linejoin="round"/>
<path d="M287.61 598.98V635.46L160.82 709.8L160.94 672.86L287.61 598.98Z" fill="#292929" stroke="black" stroke-width="3" stroke-linejoin="round"/>
<path d="M160.94 672.86L160.82 709.8L1.96997 617.76V581.02L160.94 672.86Z" fill="#484848" stroke="black" stroke-width="3" stroke-linejoin="round"/>
<path d="M128.11 507.02L128.57 433.66L287.26 525.66L287.61 598.98L128.11 507.02Z" fill="black" stroke="black" stroke-width="3" stroke-linejoin="round"/>
<path d="M287.29 525.41L223.7 562.13L192.3 580.26L96.6899 525.46L128.11 507.02L192.03 470.91L287.29 525.41Z" fill="#B7FF58" stroke="black" stroke-width="3" stroke-linejoin="round"/>
<path d="M574.09 506.22L510.52 470.42L574.91 433.26L574.09 506.22Z" fill="black" stroke="black" stroke-width="3" stroke-linejoin="round"/>
<path d="M192.69 617.03L97.05 561.96L96.3201 525.67L96.3101 525.24L96.6901 525.46L192.3 580.26L192.69 617.03Z" fill="#B3D955" stroke="black" stroke-width="3" stroke-linejoin="round"/>
<path d="M287.72 525.66L287.67 562.01L255.65 580.55L192.69 617.03L192.3 580.26L223.7 562.13L287.29 525.41L287.72 525.66Z" fill="#8DAB35" stroke="black" stroke-width="3" stroke-linejoin="round"/>
<path d="M394.65 247.27V247.36C394.87 252.94 390.79 258.57 382.43 262.85C366.21 271.15 340.03 271.22 323.95 263C315.85 258.86 311.86 253.42 311.95 248L311.34 178.26L394.04 178.88L394.65 247.27Z" fill="#8DAB35" stroke="black" stroke-width="3" stroke-linejoin="round"/>
<path d="M476.45 122.48C476.43 153.774 464.276 183.841 442.544 206.357C420.811 228.874 391.194 242.086 359.921 243.215C328.647 244.344 298.155 233.301 274.856 212.41C251.556 191.519 237.266 162.407 234.99 131.196C232.714 99.9849 242.63 69.1075 262.652 45.0572C282.674 21.0069 311.242 5.65769 342.348 2.23766C373.454 -1.18236 404.675 7.59325 429.444 26.719C454.213 45.8447 470.6 73.8302 475.16 104.79C476.022 110.647 476.453 116.56 476.45 122.48V122.48Z" fill="#E3F9BB" stroke="black" stroke-width="3" stroke-linejoin="round"/>
<path d="M475.31 104.51C477.744 120.994 476.753 137.803 472.398 153.887C468.044 169.971 460.419 184.984 450.002 197.989C439.584 210.994 426.596 221.711 411.85 229.47C397.104 237.23 380.917 241.865 364.299 243.088C347.681 244.31 330.989 242.092 315.267 236.573C299.544 231.054 285.129 222.352 272.921 211.011C260.713 199.67 250.974 185.934 244.314 170.66C237.653 155.386 234.214 138.903 234.21 122.24" fill="#B3D955"/>
<path d="M475.31 104.51C477.744 120.994 476.753 137.803 472.398 153.887C468.044 169.971 460.419 184.984 450.002 197.989C439.584 210.994 426.596 221.711 411.85 229.47C397.104 237.23 380.917 241.865 364.299 243.088C347.681 244.31 330.989 242.092 315.267 236.573C299.544 231.054 285.129 222.352 272.921 211.011C260.713 199.67 250.974 185.934 244.314 170.66C237.653 155.386 234.214 138.903 234.21 122.24" stroke="black" stroke-width="3" stroke-linejoin="round"/>
<path d="M360.38 138.331C427.118 132.324 480.231 116.473 479.012 102.925C477.793 89.3776 422.703 83.2643 355.965 89.2708C289.226 95.2772 236.113 111.129 237.332 124.676C238.551 138.224 293.642 144.337 360.38 138.331Z" fill="#B7FF58" stroke="black" stroke-width="3.01213" stroke-linejoin="round"/>
<path d="M361.44 95.39C365.333 95.39 368.49 92.2336 368.49 88.34C368.49 84.4464 365.333 81.29 361.44 81.29C357.546 81.29 354.39 84.4464 354.39 88.34C354.39 92.2336 357.546 95.39 361.44 95.39Z" fill="#B7FF58" stroke="black" stroke-width="3" stroke-linejoin="round"/>
<path d="M332.59 85.4C338.748 85.4 343.74 80.4079 343.74 74.25C343.74 68.092 338.748 63.1 332.59 63.1C326.432 63.1 321.44 68.092 321.44 74.25C321.44 80.4079 326.432 85.4 332.59 85.4Z" fill="#B7FF58" stroke="black" stroke-width="3" stroke-linejoin="round"/>
<path d="M361.44 68.92C370.812 68.92 378.41 61.3223 378.41 51.95C378.41 42.5777 370.812 34.98 361.44 34.98C352.068 34.98 344.47 42.5777 344.47 51.95C344.47 61.3223 352.068 68.92 361.44 68.92Z" fill="#B7FF58" stroke="black" stroke-width="3" stroke-linejoin="round"/>
<path d="M287.67 562.01L287.61 598.98L160.94 672.86L1.96997 581.02L96.32 525.67L97.05 561.96L192.69 617.03L255.65 580.55L287.67 562.01Z" fill="#373737" stroke="black" stroke-width="3" stroke-linejoin="round"/>
<path d="M415.63 525.66V525.06L511.14 470.18L574.18 507.17L574.09 507.12L574.04 507.15L574.13 507.2L605.73 525.52L510.65 580.55L415.63 525.66Z" fill="#B7FF58" stroke="black" stroke-width="3" stroke-linejoin="round"/>
</svg>
