<svg width="240" height="100" viewBox="0 0 240 100" fill="none" xmlns="http://www.w3.org/2000/svg">
<path d="M128.143 23.8204C127.955 23.4747 127.607 23.2353 127.313 23.0491C127.205 22.9959 127.125 22.9162 127.045 22.863C126.964 22.8098 126.884 22.73 126.777 22.6768C126.536 22.4906 126.295 22.3311 126.107 22.1183C125.893 21.8789 125.732 21.5598 125.571 21.2407L125.464 21.0545C125.277 20.6822 125.063 20.2832 124.821 19.7779C124.554 19.2194 124.098 18.9535 123.563 19.0067C122.946 19.0864 122.705 19.5652 122.518 19.9375C122.277 20.3896 122.036 20.8417 121.821 21.2673L121.741 21.4002C121.58 21.6928 121.393 22.0119 121.179 22.2247C120.911 22.4906 120.616 22.7034 120.321 22.9427L120.134 23.0757C119.973 23.1821 119.813 23.2885 119.652 23.4215C119.384 23.6076 119.116 23.7938 118.848 24.0066C118.58 24.2193 118.446 24.5385 118.446 24.9108C118.446 25.1236 118.446 25.3097 118.446 25.5225C118.446 25.6289 118.446 25.7086 118.446 25.815V28.9001C118.446 28.9799 118.446 29.0596 118.446 29.1128C118.446 29.2724 118.446 29.432 118.446 29.5915C118.473 30.283 119.009 30.7351 119.813 30.7351H120.723C121.018 30.7351 121.339 30.7351 121.634 30.7351C121.929 30.7351 122.25 30.7351 122.545 30.7351C122.973 30.7351 123.375 30.549 123.589 30.2298C123.804 29.9639 123.857 29.6181 123.777 29.2724C123.536 28.4214 122.705 28.4214 122.223 28.4214H120.804C120.804 28.3682 120.804 28.3416 120.804 28.315V25.4959V25.4693C120.804 25.4693 120.83 25.4693 120.83 25.4427L120.884 25.3895C121.339 25.0704 121.714 24.7778 122.063 24.5119L122.116 24.4587C122.464 24.1927 122.786 23.9268 123.08 23.581C123.321 23.2885 123.536 22.9693 123.723 22.6502C123.938 22.9162 124.179 23.1555 124.42 23.3949C124.5 23.4481 124.554 23.5278 124.607 23.581C125.036 24.0066 125.491 24.4321 126.08 24.964L126.107 24.9906C126.429 25.2831 126.804 25.6289 127.393 25.4959C127.741 25.4161 128.036 25.1767 128.196 24.831C128.304 24.4853 128.304 24.1129 128.143 23.8204Z" fill="white"/>
<path d="M145.714 34.3256H146.036C146.036 32.4905 146.786 30.7086 148.071 29.4055C149.384 28.1023 151.152 27.3842 153 27.3576V27.0385C151.152 27.0385 149.384 26.2938 148.071 24.9907C146.759 23.6875 146.036 21.9322 146.036 20.0706H145.714C145.714 23.9003 142.446 27.0119 124.955 27.0119V27.331C142.312 27.3842 145.687 30.4959 145.714 34.3256ZM142.58 27.1449C143.437 27.1449 144.241 26.7991 144.83 26.214C145.42 25.6289 145.768 24.8045 145.768 23.9535H145.929C145.929 24.8045 146.277 25.6024 146.866 26.214C147.455 26.7991 148.286 27.1449 149.116 27.1449V27.2778C148.259 27.2778 147.455 27.6236 146.866 28.2087C146.277 28.7938 145.929 29.6182 145.929 30.4693H145.768C145.768 29.6182 145.42 28.8204 144.83 28.2087C144.241 27.6236 143.411 27.2778 142.58 27.2778V27.1449Z" fill="white"/>
<path d="M118.714 37.8627C118.098 37.8627 117.562 38.3414 117.536 38.9797L116.705 59.0856C116.679 59.6175 117.107 60.0696 117.643 60.0696C117.804 60.0696 117.964 60.0696 118.125 60.0696C118.607 60.043 119.009 59.6441 119.036 59.1654L119.866 39.1126C119.893 38.4744 119.384 37.9159 118.741 37.8627C118.741 37.8627 118.741 37.8627 118.714 37.8627Z" fill="white"/>
<path d="M126.777 49.139C126.777 49.1124 126.777 49.1124 126.777 49.139C127.071 48.6603 127.393 48.2082 127.741 47.7561C127.848 47.6231 127.875 47.4901 127.875 47.3306L127.741 39.0063C127.741 38.368 127.205 37.8627 126.562 37.8627C125.92 37.8627 125.384 38.3946 125.384 39.0595L125.545 48.8199C125.571 49.4848 126.429 49.6975 126.777 49.139Z" fill="white"/>
<path d="M127.741 34.3255C127.741 33.6872 127.205 33.1553 126.562 33.1553H118.634C117.991 33.1553 117.455 33.6872 117.455 34.3255C117.455 34.9637 117.991 35.4956 118.634 35.4956H126.589C127.232 35.4956 127.741 34.9903 127.741 34.3255Z" fill="white"/>
<path d="M120.884 74.2448C121.393 74.3778 121.848 74.5905 122.277 74.8299C122.732 75.0959 123.107 75.4416 123.429 75.8671C123.723 76.2926 123.857 76.8777 123.857 77.5426C123.857 78.2075 123.67 78.8192 123.268 79.3511C122.893 79.883 122.357 80.2819 121.688 80.5745C121.045 80.867 120.268 81 119.384 81C118.554 81 117.83 80.9202 117.161 80.7606C116.518 80.6011 115.955 80.4149 115.473 80.2021C115.286 80.1223 115.125 79.9894 114.991 79.8032C114.857 79.617 114.777 79.4043 114.777 79.1649C114.777 78.899 114.884 78.633 115.071 78.4203C115.259 78.2075 115.554 78.0745 115.875 78.0745C116.036 78.0745 116.196 78.1011 116.357 78.1809C116.679 78.3139 117.107 78.4734 117.589 78.5798C118.071 78.7128 118.634 78.766 119.25 78.766C119.732 78.766 120.161 78.7128 120.536 78.6064C120.857 78.5266 121.125 78.3671 121.312 78.1809C121.473 77.9947 121.554 77.7288 121.554 77.4096C121.554 77.1969 121.5 77.0639 121.339 76.9309C121.125 76.7713 120.857 76.6118 120.509 76.5054C120.134 76.3724 119.705 76.266 119.223 76.1331C118.741 76.0267 118.259 75.8937 117.777 75.7341C117.268 75.5746 116.813 75.3884 116.384 75.149C115.929 74.8831 115.554 74.5373 115.286 74.1384C114.991 73.7129 114.857 73.181 114.857 72.5427C114.857 71.8778 115.045 71.2662 115.393 70.7077C115.741 70.1492 116.25 69.697 116.946 69.3779C117.616 69.0588 118.42 68.8992 119.357 68.8992C120 68.8992 120.589 68.9524 121.152 69.0321C121.714 69.1119 122.196 69.2715 122.625 69.4311C122.812 69.4843 122.946 69.5906 123.107 69.7502C123.268 69.9364 123.348 70.1757 123.348 70.4683C123.348 70.7342 123.268 70.947 123.08 71.1864C122.893 71.4257 122.598 71.5587 122.277 71.5587C122.196 71.5587 122.089 71.5321 122.009 71.5055C122.009 71.5055 121.982 71.5055 121.955 71.5055C121.929 71.5055 121.929 71.5055 121.902 71.5055C121.875 71.5055 121.875 71.5055 121.848 71.5055C121.527 71.3725 121.152 71.2927 120.75 71.213C120.348 71.1332 119.92 71.1066 119.464 71.1066C118.741 71.1066 118.152 71.2396 117.696 71.5055C117.295 71.7183 117.107 72.0374 117.107 72.4629C117.107 72.7289 117.188 72.9416 117.321 73.0746C117.509 73.2608 117.777 73.4204 118.125 73.5267C118.5 73.6597 118.929 73.7661 119.384 73.8725C119.92 73.9789 120.402 74.1118 120.884 74.2448ZM89.2768 78.5798H93.9911C94.3125 78.5798 94.5804 78.6862 94.7946 78.899C95.0089 79.1117 95.1429 79.4043 95.1429 79.7234C95.1429 80.0425 95.0357 80.3085 94.7946 80.5213C94.5804 80.734 94.2857 80.8404 93.9911 80.8404H88.4196C88.0179 80.8404 87.6964 80.7074 87.4018 80.4415C87.1339 80.1755 87 79.8298 87 79.4309V70.1758C87 69.8566 87.1071 69.5907 87.3214 69.3779C87.5357 69.1651 87.8036 69.0321 88.125 69.0321C88.4464 69.0321 88.7143 69.1651 88.9554 69.3779C89.1696 69.5907 89.3036 69.8832 89.3036 70.2023V78.5798H89.2768ZM97.1518 69.3513C97.3661 69.1385 97.6339 69.0056 97.9554 69.0056C98.2768 69.0056 98.5446 69.1385 98.7857 69.3247C99 69.5375 99.1339 69.83 99.1339 70.1491V79.7766C99.1339 80.0957 99 80.3617 98.7857 80.5745C98.5714 80.7872 98.2768 80.8936 97.9821 80.8936C97.6607 80.8936 97.3929 80.7872 97.1786 80.5745C96.9643 80.3617 96.8571 80.0957 96.8571 79.7766V70.1491C96.8036 69.8566 96.9375 69.5906 97.1518 69.3513ZM111.348 69.0321C111.027 69.0321 110.759 69.1651 110.545 69.3779C110.33 69.5907 110.223 69.8832 110.223 70.1758V77.2235L104.973 69.6704C104.839 69.4843 104.652 69.3247 104.464 69.1917C104.25 69.0588 104.009 69.0056 103.768 69.0056H103.554C103.152 69.0056 102.804 69.1651 102.509 69.4311C102.241 69.7236 102.08 70.0694 102.08 70.4683V79.7766C102.08 80.0957 102.187 80.3617 102.402 80.5745C102.616 80.7872 102.884 80.8936 103.205 80.8936C103.527 80.8936 103.795 80.7872 104.009 80.5745C104.223 80.3617 104.357 80.0957 104.357 79.7766V72.7289L109.661 80.3085C109.795 80.4947 109.955 80.6276 110.17 80.734C110.384 80.8404 110.598 80.8936 110.839 80.8936H111.027C111.429 80.8936 111.777 80.7606 112.071 80.4681C112.366 80.2021 112.5 79.8298 112.5 79.4309V70.096C112.5 69.7768 112.393 69.5109 112.152 69.2715C111.937 69.1385 111.67 69.0321 111.348 69.0321ZM133.393 71.2927C133.688 71.2927 133.955 71.1864 134.17 70.9736C134.384 70.7608 134.491 70.4949 134.491 70.2023C134.491 69.9098 134.384 69.6172 134.17 69.4311C133.955 69.2183 133.688 69.1119 133.393 69.1119H127.098C126.777 69.1119 126.509 69.2449 126.295 69.4577C126.08 69.6704 125.973 69.963 125.973 70.2555V79.7234C125.973 80.0425 126.08 80.3085 126.295 80.5213C126.509 80.734 126.777 80.8404 127.098 80.8404H133.393C133.688 80.8404 133.955 80.734 134.17 80.5213C134.384 80.3085 134.491 80.0426 134.491 79.75C134.491 79.4575 134.384 79.1649 134.17 78.9787C133.955 78.766 133.688 78.6596 133.393 78.6596H128.25V76.0533H132.83C133.125 76.0533 133.393 75.9469 133.607 75.7341C133.821 75.5214 133.929 75.2554 133.929 74.9629C133.929 74.6703 133.821 74.3778 133.607 74.1916C133.393 73.9789 133.125 73.8725 132.83 73.8725H128.25V71.2927H133.393ZM145.232 69.3513C145.446 69.1385 145.714 69.0056 146.036 69.0056C146.357 69.0056 146.625 69.1385 146.866 69.3247C147.08 69.5375 147.214 69.83 147.214 70.1491V79.4841C147.214 79.883 147.054 80.2287 146.786 80.5213C146.491 80.8138 146.143 80.9468 145.741 80.9468H145.554C145.312 80.9468 145.098 80.8936 144.884 80.7872C144.67 80.6808 144.509 80.5479 144.375 80.3617L139.071 72.7289V79.8032C139.071 80.1223 138.964 80.3883 138.723 80.601C138.509 80.8138 138.214 80.9202 137.92 80.9202C137.598 80.9202 137.33 80.8138 137.116 80.601C136.902 80.3883 136.795 80.1223 136.795 79.8032V70.4949C136.795 70.096 136.929 69.7502 137.223 69.4577C137.491 69.1651 137.866 69.0321 138.268 69.0321H138.482C138.723 69.0321 138.964 69.0853 139.179 69.2183C139.366 69.3247 139.554 69.4843 139.688 69.697L144.938 77.2501V70.2023C144.911 69.8566 145.018 69.5906 145.232 69.3513Z" fill="white"/>
<path d="M140.25 63.66C137.839 63.1547 135.83 61.3462 135.027 59.0325C134.679 58.0218 134.411 56.7985 134.973 55.8144C135.482 54.9368 136.5 54.4581 137.518 54.5645C138.027 54.6177 138.536 54.8038 138.938 55.123C139.125 55.2825 139.286 55.4421 139.393 55.6283C139.5 55.8145 139.58 56.1868 139.875 56.0804C140.25 55.9474 139.902 54.9634 139.821 54.6975C139.688 54.2187 139.5 53.7666 139.259 53.3411C138.321 51.5592 136.634 50.2295 134.705 49.6976C132.375 49.0327 129.804 49.5114 127.848 50.9475C126.857 51.6656 126.027 52.5964 125.464 53.6602C124.902 54.6974 124.527 55.841 124.098 56.958C123.67 58.1016 123.268 59.2718 122.598 60.309C121.955 61.3196 121.098 62.0111 119.92 62.3835C118.688 62.7824 117.348 62.8356 116.036 62.7558C114.75 62.6494 113.491 62.3835 112.339 61.825C110.089 60.7346 108.241 58.7931 107.33 56.4793C106.5 54.3783 106.473 51.5326 108.616 50.2029C108.964 49.9901 109.42 49.7507 109.848 49.7507V49.7242C111.509 49.3518 113.33 50.0965 113.866 51.7986C113.946 52.1177 114.429 52.0113 114.402 51.6922C114.268 48.8731 112.714 46.187 110.438 44.5115C107.866 42.6232 104.464 42.0647 101.357 42.6498C99.8036 42.9424 98.3304 43.5275 96.9643 44.3253C96.2947 44.7243 95.6518 45.1764 95.0358 45.6817C94.7143 45.9476 94.4197 46.187 94.1251 46.4795C93.8572 46.7455 93.509 47.0114 93.3751 47.3572C93.1072 48.0221 93.5893 48.7933 94.3126 48.8731C95.0626 48.9529 95.5715 48.1816 96.0804 47.7295C97.259 46.7189 98.5983 45.8679 100.045 45.3094C103.098 44.1658 106.875 44.4051 109.446 46.5327C109.768 46.7987 110.063 47.0912 110.33 47.3838C108.643 47.5168 107.036 48.288 105.964 49.6178C104.866 51.0007 104.438 52.7826 104.571 54.5379C104.813 57.7559 106.875 60.8143 109.446 62.7026C112.339 64.8036 116.196 65.5483 119.705 64.777C121.393 64.4047 122.946 63.6068 124.018 62.2239C125.116 60.7877 125.732 59.0856 126.348 57.3836C126.67 56.4793 126.991 55.5751 127.446 54.7506C127.875 53.9528 128.464 53.2879 129.214 52.756C130.741 51.6656 132.75 51.3465 134.491 52.0113C134.92 52.1709 135.295 52.3837 135.67 52.623C134.518 52.9954 133.554 53.8198 132.991 54.857C132.402 55.9208 132.348 57.091 132.536 58.2878C132.911 60.5484 134.116 62.6228 135.938 64.0589C137.063 64.9366 138.402 65.5749 139.795 65.894L139.821 65.761L139.795 65.8142C140.411 65.9472 141.027 65.5217 141.134 64.8834C141.188 64.3249 140.813 63.7664 140.25 63.66Z" fill="white"/>
</svg>
