<svg  viewBox="0 0 60 60" fill="none" xmlns="http://www.w3.org/2000/svg">
<rect x="4" y="3" width="51" height="51" fill="black"/>
<path fill-rule="evenodd" clip-rule="evenodd" d="M9 0C4.02944 0 0 4.02944 0 9V51C0 55.9706 4.02944 60 9 60H51C55.9706 60 60 55.9706 60 51V9C60 4.02944 55.9706 0 51 0H9ZM41.1258 12.7992L40.9734 12.6469C36.2762 16.2016 33.7371 18.2328 33.3563 18.7406V42.5063L25.8914 36.4125V12.7992H25.5867L18.2742 18.7406V42.6586L25.5867 48.6C26.0945 48.6 28.7352 46.5688 33.5086 42.5063C38.2059 38.9262 40.7449 36.8949 41.1258 36.4125V12.7992Z" fill="#CBFC01"/>
</svg>
