<svg width="204" height="202" viewBox="0 0 204 202" fill="none" xmlns="http://www.w3.org/2000/svg">
<path d="M177.173 142.848V128.318L164.592 121.054V106.527L152.01 99.2607V70.2056L101.682 41.1482V99.263L177.173 142.848Z" fill="#090D06" stroke="black" stroke-width="1.5" stroke-linejoin="round"/>
<path d="M1.10742 113.828L13.6877 106.564L38.8507 121.092L26.2704 128.358L1.10742 113.828Z" fill="#090D06" stroke="white" stroke-width="2" stroke-linejoin="round"/>
<path d="M13.6875 92.0366L26.2701 84.7705L51.4331 99.3004L38.8505 106.564L13.6875 92.0366Z" fill="#090D06" stroke="white" stroke-width="2" stroke-linejoin="round"/>
<path d="M13.6875 106.564V92.0366L38.8504 106.564V121.092L13.6875 106.564Z" fill="#090D06" stroke="white" stroke-width="2" stroke-linejoin="round"/>
<path d="M101.896 186.47V201L1 142.585L1.10456 113.865L26.2675 128.393V142.892L101.896 186.47Z" fill="#090D06" stroke="white" stroke-width="2" stroke-linejoin="round"/>
<path d="M26.2695 84.7704V55.7153L51.4325 70.2429V99.3003L26.2695 84.7704Z" fill="#090D06" stroke="white" stroke-width="2" stroke-linejoin="round"/>
<path d="M26.2695 142.885V128.358L38.8498 121.092V106.564L51.4325 99.3004V70.243L101.682 41.1484L101.761 99.3004L26.2695 142.885Z" fill="#090D06" stroke="white" stroke-width="2" stroke-linejoin="round"/>
<path d="M177.174 142.883V128.355L202.337 113.825V143.008L101.896 201V186.47" fill="#090D06"/>
<path d="M177.174 142.883V128.355L202.337 113.825V143.008L101.896 201V186.47" stroke="white" stroke-width="2" stroke-linejoin="round"/>
<path d="M202.336 113.791L189.756 106.527L164.593 121.054L177.173 128.318L202.336 113.791Z" fill="#090D06" stroke="white" stroke-width="2" stroke-linejoin="round"/>
<path d="M189.756 106.527V91.9971L164.593 106.527V121.054L189.756 106.527Z" fill="#090D06" stroke="white" stroke-width="2" stroke-linejoin="round"/>
<path d="M189.755 91.9969L177.173 84.7332L152.01 99.2607L164.592 106.527L189.755 91.9969Z" fill="#090D06" stroke="white" stroke-width="2" stroke-linejoin="round"/>
<path d="M177.173 84.7332V55.6758L152.01 70.2056V99.2607L177.173 84.7332Z" fill="#090D06" stroke="white" stroke-width="2" stroke-linejoin="round"/>
<path d="M26.2695 142.885L101.682 99.2631L177.173 142.848L101.895 186.47L26.2695 142.885Z" fill="#090D06" stroke="white" stroke-width="2" stroke-linejoin="round"/>
<path d="M51.5703 128.318V142.848L101.682 171.94V157.413L51.5703 128.318Z" fill="#090D06" stroke="white" stroke-width="2" stroke-linejoin="round"/>
<path d="M152.117 128.36V142.888L101.682 171.943V157.415L152.117 128.36Z" fill="#090D06" stroke="white" stroke-width="2" stroke-linejoin="round"/>
<path d="M177.173 55.6781L152.01 70.2057L101.708 41.1622L51.4328 70.2452L26.2676 55.7153L101.896 12.1304L126.845 26.6207L177.173 55.6781Z" fill="#090D06" stroke="white" stroke-width="2" stroke-linejoin="round"/>
<path d="M92.1577 6.63721V16.3385C92.1577 17.8336 91.5638 19.2674 90.5066 20.3246C89.4495 21.3818 88.0156 21.9757 86.5205 21.9757H73.5917L64.5433 30.2596L64.4852 21.9757H64.1646C62.6695 21.9757 61.2356 21.3818 60.1784 20.3246C59.1213 19.2674 58.5273 17.8336 58.5273 16.3385V6.63721C58.5273 5.14213 59.1213 3.70828 60.1784 2.6511C61.2356 1.59392 62.6695 1 64.1646 1H86.5321C88.0252 1.00308 89.4561 1.59835 90.5107 2.6552C91.5654 3.71205 92.1577 5.14414 92.1577 6.63721Z" fill="white" stroke="black" stroke-width="2"/>
<path d="M56.647 55.7361C63.2035 55.7361 68.5186 50.421 68.5186 43.8645C68.5186 37.308 63.2035 31.9929 56.647 31.9929C50.0905 31.9929 44.7754 37.308 44.7754 43.8645C44.7754 50.421 50.0905 55.7361 56.647 55.7361Z" fill="#CBFC01" stroke="black" stroke-width="2" stroke-linejoin="round"/>
<path d="M140.652 55.7361C147.208 55.7361 152.523 50.421 152.523 43.8645C152.523 37.308 147.208 31.9929 140.652 31.9929C134.095 31.9929 128.78 37.308 128.78 43.8645C128.78 50.421 134.095 55.7361 140.652 55.7361Z" fill="#CBFC01" stroke="black" stroke-width="2" stroke-linejoin="round"/>
<path d="M65.7839 13.7895C66.9363 13.7895 67.8706 12.8553 67.8706 11.7029C67.8706 10.5504 66.9363 9.61621 65.7839 9.61621C64.6315 9.61621 63.6973 10.5504 63.6973 11.7029C63.6973 12.8553 64.6315 13.7895 65.7839 13.7895Z" fill="#090D06"/>
<path d="M75.3367 13.7895C76.4891 13.7895 77.4233 12.8553 77.4233 11.7029C77.4233 10.5504 76.4891 9.61621 75.3367 9.61621C74.1842 9.61621 73.25 10.5504 73.25 11.7029C73.25 12.8553 74.1842 13.7895 75.3367 13.7895Z" fill="#090D06"/>
<path d="M84.8894 13.7895C86.0418 13.7895 86.976 12.8553 86.976 11.7029C86.976 10.5504 86.0418 9.61621 84.8894 9.61621C83.737 9.61621 82.8027 10.5504 82.8027 11.7029C82.8027 12.8553 83.737 13.7895 84.8894 13.7895Z" fill="#090D06"/>
<path d="M103.817 6.63721V16.3385C103.817 17.8336 104.411 19.2674 105.468 20.3246C106.526 21.3818 107.959 21.9757 109.455 21.9757H122.383L131.432 30.2596L131.49 21.9757H131.822C133.317 21.9757 134.751 21.3818 135.808 20.3246C136.865 19.2674 137.459 17.8336 137.459 16.3385V6.63721C137.459 5.14213 136.865 3.70828 135.808 2.6511C134.751 1.59392 133.317 1 131.822 1H109.455C107.959 1 106.526 1.59392 105.468 2.6511C104.411 3.70828 103.817 5.14213 103.817 6.63721Z" fill="white" stroke="black" stroke-width="2"/>
<path d="M130.191 13.7895C131.344 13.7895 132.278 12.8553 132.278 11.7029C132.278 10.5504 131.344 9.61621 130.191 9.61621C129.039 9.61621 128.104 10.5504 128.104 11.7029C128.104 12.8553 129.039 13.7895 130.191 13.7895Z" fill="#090D06"/>
<path d="M120.638 13.7895C121.791 13.7895 122.725 12.8553 122.725 11.7029C122.725 10.5504 121.791 9.61621 120.638 9.61621C119.486 9.61621 118.552 10.5504 118.552 11.7029C118.552 12.8553 119.486 13.7895 120.638 13.7895Z" fill="#090D06"/>
<path d="M111.086 13.7895C112.238 13.7895 113.172 12.8553 113.172 11.7029C113.172 10.5504 112.238 9.61621 111.086 9.61621C109.933 9.61621 108.999 10.5504 108.999 11.7029C108.999 12.8553 109.933 13.7895 111.086 13.7895Z" fill="#090D06"/>
<path d="M88.7491 139.382L78.1672 133.546C78.1477 133.534 78.1296 133.52 78.1132 133.504C72.498 130.461 69.3994 123.851 69.3994 114.883C69.3994 96.9063 82.064 74.9738 97.6319 65.9813C104.875 61.7987 111.795 60.9743 117.118 63.6564L128.024 70.3852L125.357 75.0679C125.927 77.4927 126.206 79.9769 126.187 82.4676C126.187 100.444 113.522 122.377 97.9543 131.369C95.9803 132.519 93.8887 133.454 91.7153 134.158L88.7526 139.374C88.7108 139.457 88.8032 139.412 88.7491 139.382Z" fill="#CBFC01" stroke="black" stroke-width="2" stroke-linejoin="round"/>
<path d="M127.889 116.146C138.853 97.1568 138.852 76.6319 127.889 70.3021C116.925 63.9722 99.15 74.2345 88.1867 93.2234C77.2234 112.212 77.2237 132.737 88.1873 139.067C99.1509 145.397 116.926 135.135 127.889 116.146Z" fill="#CBFC01" stroke="black" stroke-width="2" stroke-linejoin="round"/>
<path d="M112.335 98.5925C110.887 99.0108 109.438 99.0108 108.352 98.3836C107.265 98.5927 106.903 97.5472 106.903 96.7107C106.903 95.8743 107.265 94.4105 107.99 93.574C109.076 92.1102 110.163 90.6464 111.249 90.4373C113.422 89.1826 115.233 89.3916 116.32 90.4371L119.579 83.5364C118.493 82.9091 117.406 82.7 116.32 82.491C115.233 82.2819 113.785 82.7002 112.336 83.5366L112.336 77.6816L107.99 80.191L107.99 86.0461C106.179 87.5099 104.368 89.8102 102.919 92.3195C101.47 95.2471 100.384 98.3838 100.746 100.684C100.746 103.193 101.47 105.284 102.919 106.121C104.73 107.166 107.265 106.957 109.438 106.957C110.524 106.748 111.973 106.748 113.06 106.957C113.784 107.375 114.146 108.421 114.146 109.675C114.146 110.93 113.784 112.394 113.059 114.067C111.973 115.949 110.524 117.203 109.437 117.831C107.989 118.667 106.178 119.295 105.091 118.667C104.005 118.458 102.918 117.831 102.194 116.995L98.572 123.686C99.6585 124.732 100.745 125.359 102.194 125.777C104.005 125.986 106.178 125.986 108.351 124.731L108.351 130.168L112.335 127.868L112.335 121.595C114.508 119.922 116.319 117.621 117.768 115.112C119.579 111.975 120.665 108.002 120.665 105.075C120.665 102.565 119.941 100.056 118.13 99.4288C116.319 98.3833 114.509 98.1742 112.335 98.5925Z" fill="#090D06"/>
</svg>
