<svg width="240" height="100" viewBox="0 0 240 100" fill="none" xmlns="http://www.w3.org/2000/svg">
<path d="M137.333 64.5701V43.8971H143.766V64.5701H137.333Z" fill="white"/>
<path d="M130.136 64.8437C127.621 64.8437 125.715 64.2966 124.417 63.2023C123.147 62.0821 122.511 60.4407 122.511 58.2783V49.1728H118.262V43.8971H122.511V38.5823L128.944 37.2145V43.8971H134.821V49.1728H128.944V57.0278C128.944 57.9396 129.143 58.591 129.54 58.9818C129.963 59.3465 130.691 59.5289 131.724 59.5289C132.253 59.5289 132.73 59.5028 133.153 59.4507C133.604 59.3726 134.093 59.2553 134.623 59.099V64.2184C134.04 64.4008 133.299 64.5441 132.399 64.6483C131.499 64.7785 130.744 64.8437 130.136 64.8437Z" fill="white"/>
<path d="M104.685 65C102.461 65 100.383 64.6092 98.4508 63.8276C96.5447 63.046 94.9695 61.9648 93.7253 60.584L97.8551 56.8324C98.8876 57.9266 99.8803 58.6822 100.833 59.099C101.813 59.5158 103.07 59.7243 104.606 59.7243C105.612 59.7243 106.485 59.594 107.227 59.3335C107.994 59.0469 108.577 58.6561 108.974 58.1611C109.397 57.64 109.609 57.0408 109.609 56.3634C109.609 55.7642 109.45 55.2562 109.133 54.8393C108.842 54.4225 108.418 54.0968 107.862 53.8624C107.333 53.6279 106.697 53.5106 105.956 53.5106H102.382V48.5475H105.321C106.459 48.5475 107.346 48.287 107.981 47.766C108.616 47.2188 108.934 46.4633 108.934 45.4993C108.934 44.848 108.736 44.2749 108.339 43.7798C107.968 43.2588 107.452 42.855 106.79 42.5684C106.154 42.2818 105.413 42.1385 104.566 42.1385C103.216 42.1385 102.064 42.373 101.111 42.8419C100.185 43.2848 99.1788 44.0925 98.0934 45.2649L93.9238 41.5523C95.2475 40.0673 96.8624 38.9079 98.7684 38.0742C100.701 37.2145 102.713 36.7846 104.804 36.7846C106.843 36.7846 108.63 37.1233 110.165 37.8007C111.701 38.452 112.905 39.3769 113.779 40.5753C114.652 41.7477 115.089 43.1155 115.089 44.6787C115.089 46.1637 114.599 47.4663 113.62 48.5866C112.64 49.7069 111.37 50.4885 109.808 50.9314C111.634 51.2701 113.09 51.9735 114.176 53.0417C115.261 54.0838 115.804 55.3604 115.804 56.8715C115.804 58.4347 115.327 59.8285 114.374 61.053C113.421 62.2775 112.111 63.2414 110.443 63.9449C108.775 64.6483 106.856 65 104.685 65Z" fill="white"/>
<path d="M158.169 64.9609C156.025 64.9609 154.092 64.492 152.372 63.5541C150.651 62.5901 149.287 61.3005 148.281 59.6852C147.275 58.0699 146.772 56.2592 146.772 54.2531C146.772 52.2471 147.275 50.4364 148.281 48.8211C149.287 47.1798 150.651 45.8901 152.372 44.9522C154.092 43.9883 156.025 43.5063 158.169 43.5063C160.313 43.5063 162.246 43.9883 163.967 44.9522C165.688 45.8901 167.051 47.1798 168.057 48.8211C169.063 50.4364 169.566 52.2471 169.566 54.2531C169.566 56.2592 169.063 58.0699 168.057 59.6852C167.051 61.3005 165.688 62.5901 163.967 63.5541C162.246 64.492 160.313 64.9609 158.169 64.9609ZM158.169 59.4898C159.149 59.4898 160.022 59.2553 160.79 58.7864C161.558 58.3174 162.167 57.6921 162.617 56.9105C163.067 56.1029 163.292 55.2171 163.292 54.2531C163.292 53.2631 163.067 52.3773 162.617 51.5957C162.167 50.7881 161.544 50.1498 160.75 49.6808C159.983 49.2119 159.122 48.9774 158.169 48.9774C157.216 48.9774 156.342 49.2119 155.548 49.6808C154.781 50.1498 154.172 50.7881 153.722 51.5957C153.272 52.3773 153.047 53.2631 153.047 54.2531C153.047 55.2171 153.272 56.1029 153.722 56.9105C154.172 57.6921 154.781 58.3174 155.548 58.7864C156.342 59.2553 157.216 59.4898 158.169 59.4898Z" fill="white"/>
<path fill-rule="evenodd" clip-rule="evenodd" d="M47 53.4976C47 47.958 51.5632 43.4672 57.1922 43.4672C62.8212 43.4672 67.3844 47.958 67.3844 53.4976V64.5701H61.0308V53.4976C61.0308 51.4113 59.3122 49.7199 57.1922 49.7199C55.0722 49.7199 53.3536 51.4113 53.3536 53.4976V64.5701H47V53.4976Z" fill="white"/>
<path fill-rule="evenodd" clip-rule="evenodd" d="M91.078 54.9305C91.078 60.4702 86.5148 64.9609 80.8858 64.9609C75.2568 64.9609 70.6936 60.4702 70.6936 54.9305L70.6936 43.858H77.0471V54.9305C77.0471 57.0169 78.7658 58.7082 80.8858 58.7082C83.0058 58.7082 84.7244 57.0169 84.7244 54.9305V43.858L91.078 43.858V54.9305Z" fill="white"/>
<path fill-rule="evenodd" clip-rule="evenodd" d="M172.616 53.8884C172.616 48.3488 177.179 43.858 182.808 43.858C188.437 43.858 193 48.3488 193 53.8884V64.9609L186.646 64.9609V53.8884C186.646 51.8021 184.928 50.1107 182.808 50.1107C180.688 50.1107 178.969 51.8021 178.969 53.8884V64.9609H172.616V53.8884Z" fill="white"/>
<path d="M137.274 42.0343C137.274 38.1494 140.474 35 144.422 35H150.246C150.246 38.8849 147.046 42.0343 143.098 42.0343H137.274Z" fill="white"/>
</svg>
