<svg width="240" height="100" viewBox="0 0 240 100" fill="none" xmlns="http://www.w3.org/2000/svg">
<path d="M117.571 42.7237L122.265 59.392L126.6 42.7237H132.886L125.669 67.0855H118.934L114.286 50.3804L109.638 67.0855H102.904L95.6869 42.7237H101.973L106.31 59.392L111.004 42.7237H117.571ZM141.599 42.7237V67.0855H135.396V42.7237H141.599ZM150.221 66.4012C148.628 65.6855 147.361 64.7064 146.436 63.4796C145.503 62.2454 144.996 60.8822 144.905 59.392H151.153C151.266 60.3333 151.736 61.1088 152.548 61.7259C153.359 62.343 154.368 62.6516 155.581 62.6516C156.794 62.6516 157.681 62.4186 158.349 61.9516C159.016 61.4846 159.342 60.8832 159.342 60.1518C159.342 59.3616 158.932 58.7666 158.122 58.3678C157.31 57.9689 156.02 57.5397 154.247 57.0728C152.412 56.6362 150.917 56.1775 149.75 55.7096C148.587 55.2428 147.554 54.5044 146.74 53.5571C145.898 52.5937 145.481 51.2839 145.481 49.6426C145.474 48.3189 145.885 47.0264 146.656 45.9464C147.437 44.832 148.559 43.9505 150.023 43.3113C151.487 42.6638 153.2 42.347 155.179 42.347C158.106 42.347 160.434 43.07 162.178 44.5234C163.922 45.9759 164.877 47.9332 165.06 50.3951H159.123C159.031 49.4317 158.629 48.6562 157.902 48.0833C157.181 47.5122 156.211 47.2258 154.997 47.2258C153.875 47.2258 153.01 47.4284 152.404 47.8429C151.798 48.2574 151.494 48.822 151.494 49.5597C151.494 50.3795 151.903 51.0058 152.737 51.4267C153.564 51.8486 154.846 52.2851 156.589 52.7217C158.364 53.1583 159.82 53.6179 160.972 54.0849C162.124 54.5509 163.118 55.2813 163.959 56.2604C164.802 57.2459 165.234 58.5409 165.264 60.1518C165.264 61.5601 164.869 62.8174 164.088 63.9318C163.307 65.0463 162.186 65.9186 160.722 66.5513C159.259 67.1841 157.553 67.5 155.604 67.5C153.655 67.5 151.798 67.139 150.197 66.4233L150.22 66.4012H150.221ZM176.503 47.783V59.5642C176.503 60.3858 176.7 60.9799 177.102 61.3492C177.504 61.7176 178.171 61.8982 179.119 61.8982H182V67.0855H178.103C172.878 67.0855 170.262 64.5637 170.262 59.52V47.783H167.343V42.7237H170.262V36.2791H176.51V42.7311H182V47.7904H176.51L176.503 47.783ZM95.6934 61.3262H88.3833C91.2547 58.1618 92.8408 54.0519 92.8343 49.7928C92.8269 40.2396 85.0325 32.5 75.4097 32.5C65.7869 32.5 58 40.2396 58 49.7854C58 59.3312 65.7953 67.0708 75.4097 67.0708H97.392L95.6851 61.3188L95.6934 61.3262ZM64.2025 49.7854C64.2025 43.6346 69.2221 38.6508 75.4181 38.6508C81.6122 38.6508 86.6319 43.6346 86.6319 49.7854C86.6319 55.9362 81.6131 60.92 75.4172 60.92C69.2221 60.92 64.2025 55.9362 64.2025 49.7854ZM141.599 32.8997H135.396V39.0579H141.599V32.8997Z" fill="white"/>
</svg>
