<svg width="249" height="59" viewBox="0 0 249 59" fill="none" xmlns="http://www.w3.org/2000/svg">
<mask id="mask0_121_54" style="mask-type:luminance" maskUnits="userSpaceOnUse" x="0" y="0" width="249" height="59">
<path d="M249 0H0V59H249V0Z" fill="white"/>
</mask>
<g mask="url(#mask0_121_54)">
<path fill-rule="evenodd" clip-rule="evenodd" d="M61.8864 29.5C61.8864 21.9949 59.0763 15.1448 54.4506 9.93537C49.0331 3.84437 41.1308 0 32.3206 0C24.3754 0 17.1665 3.13426 11.8595 8.22133H18.2463C22.2833 5.5584 27.1179 4.00353 32.3206 4.00353C39.9345 4.00353 46.763 7.32144 51.4501 12.5921C51.4751 12.6227 51.4996 12.6533 51.5241 12.6839C48.4561 10.9026 44.8918 9.88029 41.0879 9.88029H0V13.8777H30.026V51.1645H34.6459V13.8777H41.0879C48.7694 13.8777 55.248 19.0321 57.2358 26.0597C59.3955 27.4003 61.0336 29.4939 61.77 31.9854C61.8065 31.5385 61.8375 31.0855 61.8559 30.6264H61.8864C61.8864 30.4366 61.8744 30.2529 61.8744 30.0632C61.8744 29.8734 61.8864 29.6898 61.8864 29.5Z" fill="#F5F3FF"/>
<path fill-rule="evenodd" clip-rule="evenodd" d="M32.3207 55.0028C18.2035 55.0028 6.76123 43.5858 6.76123 29.5C6.76123 24.3885 8.27047 19.6381 10.8657 15.6469H6.21518C4.00648 19.7789 2.75488 24.4926 2.75488 29.5C2.75488 45.7896 15.9948 59 32.3207 59C38.7628 59 44.7262 56.9433 49.5793 53.4476H41.1065C38.364 54.4515 35.4068 54.9963 32.3146 54.9963L32.3207 55.0028Z" fill="#F5F3FF"/>
<path d="M48.9412 51.1645C46.9779 51.1645 45.3397 50.8336 44.039 50.1726C42.7383 49.5116 41.769 48.6298 41.137 47.5282C40.5051 46.4261 40.186 45.2325 40.186 43.9408C40.186 41.5473 41.1063 39.7047 42.9469 38.4131C44.7875 37.1214 47.2906 36.4786 50.4625 36.4786H56.8372V36.197C56.8372 34.1524 56.2971 32.6098 55.2175 31.5691C54.1374 30.4978 52.6956 29.9652 50.8921 29.9652C49.3399 29.9652 47.99 30.357 46.849 31.1467C45.7385 31.8997 45.039 33.0199 44.7568 34.5014H40.6646C40.8241 32.7995 41.3947 31.3671 42.3763 30.204C43.3887 29.0409 44.6464 28.1594 46.1311 27.5595C47.6219 26.9289 49.205 26.6167 50.8861 26.6167C54.1804 26.6167 56.6593 27.4982 58.3034 29.2612C59.9845 30.9937 60.8253 33.3076 60.8253 36.2031V50.6073H57.2603L57.021 46.4017C56.3526 47.7241 55.3709 48.8566 54.07 49.7992C52.8 50.7114 51.0884 51.1705 48.9348 51.1705L48.9412 51.1645ZM49.5607 47.8098C51.0824 47.8098 52.3829 47.418 53.463 46.6284C54.5731 45.8385 55.4138 44.8163 55.9844 43.5613C56.5549 42.3003 56.8432 40.978 56.8432 39.5945V39.5455H50.8002C48.4562 39.5455 46.7875 39.9557 45.806 40.776C44.855 41.5657 44.3764 42.5574 44.3764 43.7511C44.3764 44.9448 44.8182 45.9732 45.7078 46.7262C46.6282 47.4484 47.9101 47.8098 49.5607 47.8098Z" fill="#F5F3FF"/>
<path d="M66.8252 50.5953V16.5957H70.8194V50.6013H66.8252V50.5953Z" fill="#F5F3FF"/>
<path d="M87.9797 51.1645C85.728 51.1645 83.7277 50.6626 81.9856 49.6522C80.2431 48.6119 78.8627 47.1793 77.8441 45.355C76.8624 43.5308 76.3718 41.3698 76.3718 38.8845C76.3718 36.3991 76.8624 34.2871 77.8441 32.4629C78.8258 30.608 80.1941 29.1756 81.9362 28.1655C83.7097 27.1248 85.7585 26.6045 88.0716 26.6045C90.3847 26.6045 92.3235 27.1248 93.9677 28.1655C95.6488 29.1756 96.9312 30.5101 97.8205 32.1813C98.7102 33.8525 99.1519 35.6461 99.1519 37.5622C99.1519 37.9111 99.1334 38.2539 99.1029 38.6029V39.7843H80.3166C80.415 41.5779 80.8261 43.0716 81.556 44.2714C82.3169 45.4346 83.2496 46.3159 84.3597 46.9161C85.5012 47.5157 86.7037 47.8158 87.9737 47.8158C89.6238 47.8158 91.0042 47.4365 92.1087 46.6833C93.2193 45.9304 94.0291 44.902 94.5322 43.6164H98.4769C97.8454 45.7896 96.6244 47.6015 94.8145 49.0465C93.0414 50.4602 90.7528 51.1705 87.9672 51.1705L87.9797 51.1645ZM87.9797 29.9591C86.0777 29.9591 84.3782 30.5407 82.8874 31.7038C81.4271 32.8363 80.5868 34.5075 80.366 36.7113H95.2071C95.1152 34.5993 94.3848 32.9465 93.0169 31.7528C91.6546 30.5591 89.9735 29.9591 87.9737 29.9591H87.9797Z" fill="#F5F3FF"/>
<path d="M104.453 50.5953V27.1677H108.066L108.306 31.3733C109.067 29.8918 110.159 28.7287 111.588 27.8778C113.018 27.0269 114.631 26.6045 116.441 26.6045C119.233 26.6045 121.454 27.4554 123.098 29.1572C124.779 30.8284 125.62 33.4056 125.62 36.901V50.5953H121.626V37.3234C121.626 32.4445 119.595 30.002 115.539 30.002C113.508 30.002 111.815 30.7427 110.447 32.2241C109.116 33.6749 108.447 35.7502 108.447 38.4559V50.5953H104.453Z" fill="#F5F3FF"/>
<path d="M140.994 50.5953C138.841 50.5953 137.142 50.0749 135.908 49.0341C134.675 47.9933 134.056 46.12 134.056 43.4144V30.5223H129.963V27.1677H134.056L134.577 21.548H138.049V27.1677H144.995V30.5223H138.049V43.4144C138.049 44.8958 138.35 45.8998 138.952 46.4385C139.553 46.9405 140.614 47.1912 142.135 47.1912H144.608V50.5888H140.994V50.5953Z" fill="#F5F3FF"/>
<path d="M154.817 50.5953L147.921 27.1677H151.915L156.91 45.5386L162.425 27.1677H166.941L172.505 45.5386L177.451 27.1677H181.494L174.597 50.5953H170.505L164.701 31.2814L158.897 50.5953H154.805H154.817Z" fill="#F5F3FF"/>
<path d="M192.936 51.1645C190.973 51.1645 189.334 50.8336 188.034 50.1726C186.733 49.5116 185.764 48.6298 185.132 47.5282C184.5 46.4261 184.181 45.2325 184.181 43.9408C184.181 41.5473 185.101 39.7047 186.942 38.4131C188.782 37.1214 191.286 36.4786 194.458 36.4786H200.832V36.197C200.832 34.1524 200.292 32.6098 199.212 31.5691C198.133 30.4978 196.691 29.9652 194.887 29.9652C193.335 29.9652 191.985 30.357 190.844 31.1467C189.734 31.8997 189.034 33.0199 188.752 34.5014H184.659C184.819 32.7995 185.39 31.3671 186.371 30.204C187.383 29.0409 188.641 28.1594 190.126 27.5595C191.617 26.9289 193.2 26.6167 194.881 26.6167C198.175 26.6167 200.654 27.4982 202.299 29.2612C203.979 30.9937 204.82 33.3076 204.82 36.2031V50.6073H201.255L201.016 46.4017C200.347 47.7241 199.366 48.8566 198.065 49.7992C196.795 50.7114 195.083 51.1705 192.93 51.1705L192.936 51.1645ZM193.555 47.8098C195.077 47.8098 196.378 47.418 197.458 46.6284C198.568 45.8385 199.408 44.8163 199.979 43.5613C200.55 42.3003 200.838 40.978 200.838 39.5945V39.5455H194.795C192.451 39.5455 190.783 39.9557 189.801 40.776C188.85 41.5657 188.371 42.5574 188.371 43.7511C188.371 44.9448 188.813 45.9732 189.703 46.7262C190.623 47.4484 191.905 47.8098 193.555 47.8098Z" fill="#F5F3FF"/>
<path d="M210.82 50.5953V27.1677H214.434L214.765 31.6548C215.495 30.1122 216.606 28.8817 218.097 27.9696C219.588 27.0575 221.428 26.5984 223.612 26.5984V30.755H222.52C221.127 30.755 219.839 31.0059 218.667 31.5079C217.495 31.9792 216.557 32.7996 215.863 33.9627C215.164 35.1258 214.814 36.7358 214.814 38.7804V50.5888H210.82V50.5953Z" fill="#F5F3FF"/>
<path d="M237.821 51.1645C235.57 51.1645 233.57 50.6626 231.827 49.6522C230.085 48.6119 228.704 47.1793 227.686 45.355C226.704 43.5308 226.213 41.3698 226.213 38.8845C226.213 36.3991 226.704 34.2871 227.686 32.4629C228.667 30.608 230.036 29.1756 231.778 28.1655C233.551 27.1248 235.601 26.6045 237.913 26.6045C240.226 26.6045 242.165 27.1248 243.809 28.1655C245.49 29.1756 246.773 30.5101 247.662 32.1813C248.552 33.8525 248.994 35.6461 248.994 37.5622C248.994 37.9111 248.975 38.2539 248.944 38.6029V39.7843H230.159C230.257 41.5779 230.668 43.0716 231.398 44.2714C232.158 45.4346 233.091 46.3159 234.202 46.9161C235.343 47.5157 236.545 47.8158 237.815 47.8158C239.466 47.8158 240.846 47.4365 241.95 46.6833C243.061 45.9304 243.871 44.902 244.374 43.6164H248.319C247.687 45.7896 246.466 47.6015 244.656 49.0465C242.883 50.4602 240.594 51.1705 237.809 51.1705L237.821 51.1645ZM237.821 29.9591C235.919 29.9591 234.22 30.5407 232.729 31.7038C231.269 32.8363 230.428 34.5075 230.208 36.7113H245.049C244.951 34.5993 244.226 32.9465 242.858 31.7528C241.496 30.5591 239.816 29.9591 237.815 29.9591H237.821Z" fill="#F5F3FF"/>
</g>
</svg>
