<svg width="134" height="202" viewBox="0 0 134 202" fill="none" xmlns="http://www.w3.org/2000/svg">
<path d="M1.33594 147.726V163.156L66.8627 201L66.9298 185.572L1.33594 147.726Z" fill="#090D06" stroke="white" stroke-width="2" stroke-linejoin="round"/>
<path d="M132.341 147.732L132.419 163.217L66.8633 201L66.9304 185.572L132.341 147.732Z" fill="#090D06" stroke="white" stroke-width="2" stroke-linejoin="round"/>
<path d="M132.34 147.73L66.8023 109.638L1.33594 147.726L66.9298 185.572L132.34 147.73Z" fill="#090D06" stroke="white" stroke-width="2" stroke-linejoin="round"/>
<path d="M66.8939 119.971C50.9891 119.971 37.2584 125.583 31.0518 133.637H102.736C96.5271 125.583 82.7986 119.971 66.8939 119.971Z" fill="#512C12" stroke="black" stroke-width="1.5" stroke-linejoin="round"/>
<path d="M66.8938 155.109C88.1267 155.109 105.339 145.085 105.339 132.72C105.339 120.355 88.1267 110.331 66.8938 110.331C45.6609 110.331 28.4482 120.355 28.4482 132.72C28.4482 145.085 45.6609 155.109 66.8938 155.109Z" fill="white"/>
<path d="M106.264 133.648V143.293C106.264 156.149 88.6055 166.607 66.899 166.607C45.1924 166.607 27.5342 156.149 27.5342 143.293V133.648H106.264Z" fill="#090D06" stroke="white" stroke-width="2" stroke-linejoin="round"/>
<path d="M66.8941 156.035C45.1853 156.035 27.5293 145.576 27.5293 132.72C27.5293 119.864 45.1987 109.408 66.8941 109.408C88.5895 109.408 106.259 119.866 106.259 132.72C106.259 145.574 88.6029 156.035 66.8941 156.035Z" fill="#090D06" stroke="white" stroke-width="2" stroke-linejoin="round"/>
<path d="M97.8022 128.079V123.684C97.8021 116.156 95.7551 108.77 91.8803 102.317C88.0055 95.8629 82.4488 90.5843 75.8049 87.0456L72.6736 85.3837C72.3602 85.2166 72.0967 84.9694 71.9097 84.6675C71.7227 84.3655 71.619 84.0194 71.609 83.6644C71.599 83.3094 71.6831 82.958 71.8528 82.646C72.0225 82.334 72.2717 82.0724 72.5752 81.8879L77.8111 78.7119C83.9128 75.0132 88.958 69.8041 92.4597 63.5873C95.9614 57.3705 97.8014 50.3561 97.8022 43.2209V30.6152H35.9883V42.8921C35.9886 50.1128 37.8724 57.2085 41.4536 63.4786C45.0348 69.7486 50.1895 74.9761 56.4088 78.6448L61.7096 81.7761C62.019 81.9589 62.2739 82.2213 62.4476 82.5359C62.6214 82.8506 62.7077 83.206 62.6976 83.5653C62.6876 83.9246 62.5815 84.2746 62.3905 84.5791C62.1994 84.8835 61.9303 85.1312 61.6112 85.2965L58.4016 86.9583C51.6484 90.4577 45.9864 95.7451 42.0338 102.243C38.0812 108.742 35.9899 116.201 35.9883 123.807V127.833C35.9883 132.787 38.5045 137.797 45.0511 141.577C51.09 145.064 58.9809 146.824 66.874 146.855C74.8431 146.889 82.8145 145.156 88.878 141.655C95.324 137.936 97.8022 133.002 97.8022 128.079Z" fill="#090D06" stroke="white" stroke-width="2" stroke-linejoin="round"/>
<path d="M59.7343 91.5189L59.7075 91.5323C53.9918 94.4938 49.1998 98.9689 45.855 104.469C42.5101 109.969 40.741 116.283 40.7408 122.72V126.129C40.3315 130.3 42.8723 134.561 48.4102 137.759C58.6831 143.691 75.2879 143.722 85.4959 137.826C90.9511 134.677 93.4471 130.474 93.049 126.337V122.615C93.0501 116.245 91.3185 109.995 88.0397 104.534C84.7609 99.0726 80.0584 94.6062 74.4357 91.6128C72.6998 90.6882 70.7662 90.1963 68.7994 90.1791L65.4556 90.15C63.4656 90.1342 61.5017 90.6041 59.7343 91.5189Z" fill="#CBFC01" stroke="black" stroke-width="2"/>
<path d="M105.34 23.2344H28.4492V27.4079H28.4626C28.4626 27.5108 28.4492 30.1612 28.4492 30.2641C28.4492 42.6282 45.6713 52.6506 66.8948 52.6506C88.1182 52.6506 105.34 42.6171 105.34 30.2574C105.34 30.1545 105.34 27.5041 105.327 27.4012H105.34V23.2344Z" fill="#090D06" stroke="white" stroke-width="2" stroke-linejoin="round"/>
<path d="M66.8948 45.7775C88.1276 45.7775 105.34 35.7537 105.34 23.3887C105.34 11.0238 88.1276 1 66.8948 1C45.6619 1 28.4492 11.0238 28.4492 23.3887C28.4492 35.7537 45.6619 45.7775 66.8948 45.7775Z" fill="#090D06" stroke="white" stroke-width="2" stroke-linejoin="round"/>
</svg>
