<svg width="240" height="100" viewBox="0 0 240 100" fill="none" xmlns="http://www.w3.org/2000/svg">
<path d="M77.7669 39.795L72.9737 57.5622H66.9744L64.1811 46.0358L61.2925 57.5622H55.3249L50.5 39.795H55.928L58.4356 52.4995L61.4194 39.795H67.1649L70.1804 52.4358L72.6563 39.795H77.7669Z" fill="white"/>
<path d="M96.5334 48.392C96.5334 48.9015 96.5017 49.4322 96.4382 49.9841H84.1538C84.2385 51.0879 84.5876 51.937 85.2013 52.5313C85.8362 53.1045 86.6086 53.391 87.5185 53.391C88.8729 53.391 89.8146 52.8179 90.3436 51.6716H96.1208C95.8245 52.8391 95.2849 53.8899 94.5019 54.8239C93.7401 55.7579 92.7772 56.4902 91.6133 57.0209C90.4494 57.5516 89.148 57.8169 87.709 57.8169C85.9737 57.8169 84.4289 57.4454 83.0746 56.7025C81.7202 55.9595 80.6621 54.8982 79.9003 53.5184C79.1385 52.1386 78.7576 50.5254 78.7576 48.6786C78.7576 46.8318 79.1279 45.2186 79.8686 43.8388C80.6304 42.459 81.6885 41.3977 83.0428 40.6547C84.3972 39.9118 85.9526 39.5403 87.709 39.5403C89.4231 39.5403 90.9467 39.9012 92.2799 40.6229C93.6131 41.3446 94.65 42.3741 95.3907 43.7114C96.1525 45.0488 96.5334 46.609 96.5334 48.392ZM90.9785 46.9592C90.9785 46.0252 90.6611 45.2823 90.0262 44.7303C89.3914 44.1784 88.5978 43.9025 87.6455 43.9025C86.7356 43.9025 85.9632 44.1678 85.3283 44.6985C84.7146 45.2292 84.3337 45.9828 84.1856 46.9592H90.9785Z" fill="white"/>
<path d="M98.3177 48.6468C98.3177 46.8212 98.6563 45.2186 99.3335 43.8388C100.032 42.459 100.974 41.3977 102.159 40.6547C103.344 39.9118 104.666 39.5403 106.126 39.5403C107.29 39.5403 108.348 39.7844 109.301 40.2726C110.274 40.7609 111.036 41.4189 111.586 42.2468V34H117.014V57.5622H111.586V55.0149C111.078 55.864 110.348 56.5433 109.396 57.0527C108.465 57.5622 107.375 57.8169 106.126 57.8169C104.666 57.8169 103.344 57.4454 102.159 56.7025C100.974 55.9383 100.032 54.8663 99.3335 53.4866C98.6563 52.0856 98.3177 50.4723 98.3177 48.6468ZM111.586 48.6786C111.586 47.3201 111.205 46.2481 110.443 45.4627C109.703 44.6773 108.793 44.2846 107.714 44.2846C106.634 44.2846 105.714 44.6773 104.952 45.4627C104.211 46.2269 103.841 47.2882 103.841 48.6468C103.841 50.0053 104.211 51.0879 104.952 51.8945C105.714 52.6799 106.634 53.0726 107.714 53.0726C108.793 53.0726 109.703 52.6799 110.443 51.8945C111.205 51.1091 111.586 50.0371 111.586 48.6786Z" fill="white"/>
<path d="M137.638 48.392C137.638 48.9015 137.606 49.4322 137.542 49.9841H125.258C125.343 51.0879 125.692 51.937 126.305 52.5313C126.94 53.1045 127.713 53.391 128.623 53.391C129.977 53.391 130.919 52.8179 131.448 51.6716H137.225C136.929 52.8391 136.389 53.8899 135.606 54.8239C134.844 55.7579 133.881 56.4902 132.717 57.0209C131.554 57.5516 130.252 57.8169 128.813 57.8169C127.078 57.8169 125.533 57.4454 124.179 56.7025C122.824 55.9595 121.766 54.8982 121.004 53.5184C120.243 52.1386 119.862 50.5254 119.862 48.6786C119.862 46.8318 120.232 45.2186 120.973 43.8388C121.735 42.459 122.793 41.3977 124.147 40.6547C125.501 39.9118 127.057 39.5403 128.813 39.5403C130.527 39.5403 132.051 39.9012 133.384 40.6229C134.717 41.3446 135.754 42.3741 136.495 43.7114C137.257 45.0488 137.638 46.609 137.638 48.392ZM132.083 46.9592C132.083 46.0252 131.765 45.2823 131.13 44.7303C130.496 44.1784 129.702 43.9025 128.75 43.9025C127.84 43.9025 127.067 44.1678 126.432 44.6985C125.819 45.2292 125.438 45.9828 125.29 46.9592H132.083Z" fill="white"/>
<path d="M145.929 34V57.5622H140.501V34H145.929Z" fill="white"/>
<path d="M148.783 48.6468C148.783 46.8212 149.122 45.2186 149.799 43.8388C150.498 42.459 151.439 41.3977 152.624 40.6547C153.809 39.9118 155.132 39.5403 156.592 39.5403C157.841 39.5403 158.931 39.795 159.862 40.3045C160.814 40.8139 161.544 41.4826 162.052 42.3104V39.795H167.48V57.5622H162.052V55.0468C161.523 55.8746 160.782 56.5433 159.83 57.0527C158.899 57.5622 157.809 57.8169 156.56 57.8169C155.121 57.8169 153.809 57.4454 152.624 56.7025C151.439 55.9383 150.498 54.8663 149.799 53.4866C149.122 52.0856 148.783 50.4723 148.783 48.6468ZM162.052 48.6786C162.052 47.3201 161.671 46.2481 160.909 45.4627C160.168 44.6773 159.258 44.2846 158.179 44.2846C157.1 44.2846 156.179 44.6773 155.418 45.4627C154.677 46.2269 154.307 47.2882 154.307 48.6468C154.307 50.0053 154.677 51.0879 155.418 51.8945C156.179 52.6799 157.1 53.0726 158.179 53.0726C159.258 53.0726 160.168 52.6799 160.909 51.8945C161.671 51.1091 162.052 50.0371 162.052 48.6786Z" fill="white"/>
<path d="M189.5 39.795L178.39 66H172.549L176.613 56.9572L169.407 39.795H175.47L179.565 50.9075L183.628 39.795H189.5Z" fill="white"/>
</svg>
