<svg width="240" height="100" viewBox="0 0 240 100" fill="none" xmlns="http://www.w3.org/2000/svg">
<path d="M63.6058 39.3531L67.3884 47.9905L71.2604 39.3531H77.5747L70.2775 53.5007V60.5H64.4993V53.4411L57.3213 39.3531H63.6058Z" fill="white"/>
<path d="M93.3223 44.0515V45.3753C93.3223 51.7471 89.7578 54.6415 85.3614 54.6415H84.0997C84.2403 52.648 84.8626 51.4414 86.4866 50.0077C87.2853 49.3028 87.2176 48.8958 86.8242 49.1294C84.1149 50.7378 82.7689 52.9114 82.7092 56.3823L82.7072 56.6272H81.3804C81.3804 55.725 81.4573 54.9063 81.6099 54.157C81.4573 53.3006 81.3804 52.1383 81.3804 50.6703C81.3804 47.0147 84.3504 44.0515 88.0144 44.0515C89.3412 44.0515 90.6687 44.7134 93.3223 44.0515Z" fill="white"/>
<path d="M99.1209 60.5V39.3531H108.235C109.267 39.3531 110.221 39.5615 111.094 39.9785C111.968 40.3955 112.722 40.9614 113.358 41.6762C113.993 42.3712 114.48 43.1555 114.817 44.0292C115.175 44.9029 115.353 45.7865 115.353 46.68C115.353 47.931 115.056 49.1124 114.46 50.2244C113.884 51.3363 113.07 52.2497 112.018 52.9645C110.985 53.6595 109.774 54.007 108.384 54.007H104.929V60.5H99.1209ZM104.929 48.9436H107.997C108.235 48.9436 108.463 48.8741 108.682 48.7352C108.9 48.5962 109.079 48.3579 109.218 48.0203C109.377 47.6828 109.456 47.236 109.456 46.68C109.456 46.0843 109.367 45.6276 109.188 45.3099C109.029 44.9724 108.821 44.744 108.563 44.6249C108.324 44.4859 108.086 44.4164 107.848 44.4164H104.929V48.9436ZM124 39.3531H130.493L137.224 60.5H131.327L130.046 56.36H124.417L123.166 60.5H117.238L124 39.3531ZM129.122 52.488L127.246 45.0419L125.28 52.488H129.122ZM156.481 44.4164H150.405V60.5H144.597V44.4164H138.492V39.3531H156.481V44.4164ZM180.28 39.3531V60.5H174.472V52.2199H167.383V60.5H161.575V39.3531H167.383V47.1566H174.472V39.3531H180.28Z" fill="white"/>
</svg>
