<svg width="240" height="100" viewBox="0 0 240 100" fill="none" xmlns="http://www.w3.org/2000/svg">
<path d="M77.4932 52.7361H74.4403C71.614 52.7361 69.249 53.307 67.9892 56.8514C67.9146 57.0417 67.7986 57.1189 67.6079 57.1189C67.4173 57.1189 67.304 57.0417 67.2267 56.8514C67.1493 56.6611 67.1493 56.319 67.1493 55.8612C67.1493 53.1167 67.3013 51.3652 70.6995 51.3652H81.1953C81.4633 51.3652 81.7285 51.5169 81.7285 51.8976C81.7285 52.1265 81.6125 52.201 81.4219 52.4299C81.0406 52.9264 80.314 53.6491 79.3608 55.0585L70.4287 68.2043H74.1309C77.2224 68.2043 79.7034 67.3658 80.9632 63.4022C81.0019 63.2891 81.1539 63.2119 81.3058 63.2119C81.4578 63.2119 81.5738 63.2505 81.6484 63.4022C81.7645 63.6311 81.7645 64.0504 81.7645 64.7758C81.7645 67.7106 81.3058 69.6165 77.8717 69.6165H66.4973C66.268 69.6165 66 69.4648 66 69.0842C66 68.8939 66.0387 68.7808 66.268 68.5518C66.7266 68.094 67.4118 67.3327 68.3677 65.9232L77.4904 52.7388L77.4932 52.7361Z" fill="white"/>
<path d="M87.9945 57.1576C87.9171 57.4252 87.8425 57.7286 87.8039 57.9575C87.7265 58.3381 87.6906 58.6802 87.6906 58.7574C87.6906 58.8346 87.7652 58.9091 87.8812 58.9091C90.8595 58.9091 96.9653 57.8417 96.9653 56.8515C96.9653 54.9069 95.2855 53.0782 93.0725 53.0396C90.4396 53.0396 88.6824 54.9841 87.9973 57.1549L87.9945 57.1576ZM99.9049 55.8999C99.9049 56.5867 99.7529 57.8444 99.0263 58.2637C96.6973 59.56 91.506 60.0924 87.8425 60.0924C87.6906 60.0924 87.6519 60.1696 87.6519 60.2827C87.6519 61.2729 87.8425 62.2273 88.1105 63.0272C89.0637 65.733 91.2795 67.1424 93.9511 67.1424C96.0508 67.1424 98.1118 66.2267 99.601 64.3594C99.6783 64.2077 99.869 64.056 100.06 64.056C100.366 64.056 100.596 64.2463 100.596 64.5138C100.596 64.5911 100.557 64.6655 100.518 64.7428C98.9517 68.2871 95.7856 70 92.7686 70C87.6934 69.9614 85.2483 65.6944 85.2483 61.5791C85.2483 56.8156 88.4172 50.8716 94.371 50.8716C97.5786 50.8716 99.9049 53.1968 99.9049 55.9026V55.8999Z" fill="white"/>
<path d="M108.149 60.244L107.997 64.4365C107.997 64.933 108.074 65.1592 108.265 65.4267C109.638 67.181 111.738 68.0553 113.763 68.0553C117.733 68.0553 119.756 64.511 119.756 60.8536C119.756 57.1961 117.924 53.4229 114.031 53.3843C109.984 53.3843 108.307 57.0031 108.155 60.244H108.149ZM122.156 58.9862C122.156 64.1304 118.836 69.9227 113.072 69.9999C111.813 69.9999 110.514 69.8482 109.293 69.4676C107.729 68.9352 107.536 68.516 107.041 68.516C106.621 68.516 106.049 69.4676 105.743 69.6965C105.552 69.8868 105.323 69.9999 105.132 69.9999C104.828 69.9999 104.712 69.771 104.712 69.542C104.712 69.4648 104.751 69.2745 104.79 68.9711C104.941 67.9809 105.171 65.9591 105.248 63.256L105.781 47.5947C105.781 45.5757 104.215 45.3081 102.422 45.3081C102.306 45.1564 102.306 44.9661 102.306 44.8116C102.306 44.4696 102.535 44.1635 102.994 44.089C104.102 43.86 105.397 43.2505 106.353 42.6409C106.851 42.3375 107.193 41.9541 107.881 41.9541C108.226 41.9541 108.569 42.1058 108.721 42.412L108.301 54.4544C108.301 54.8737 108.226 55.5991 108.149 55.9798C108.149 56.0928 108.149 56.1315 108.188 56.1315C108.226 56.1315 108.226 56.0928 108.262 56.0156C109.37 53.3484 111.851 50.8715 115.056 50.8715C119.941 50.8715 122.156 54.7192 122.156 58.989V58.9862Z" fill="white"/>
<path d="M131.514 51.5171L131.133 56.1289C131.133 56.2447 131.171 56.2806 131.21 56.2806C131.249 56.2806 131.287 56.2419 131.326 56.1647C132.166 53.8395 134.837 50.8689 137.7 50.8689C138.808 50.8689 138.885 53.5361 138.885 55.8613C138.885 56.0902 138.656 56.2419 138.426 56.2419C138.161 56.2419 138.045 56.1647 138.006 56.013C137.854 55.5938 137.205 54.336 135.409 54.336C132.395 54.336 131.326 57.69 131.249 60.3959L131.097 64.5498C131.097 67.5232 132.395 68.2072 135.335 68.552C135.603 68.5906 135.832 68.7809 135.832 69.1229C135.832 69.4263 135.603 69.6194 135.296 69.6194H125.601C125.333 69.6194 125.03 69.4677 125.03 69.1229C125.03 68.7782 125.22 68.6265 125.563 68.552C127.966 68.0941 128.196 66.7233 128.273 64.5884L128.541 56.3578C128.541 54.8711 127.243 54.4132 125.259 54.4132C125.107 54.2615 125.068 54.0712 125.068 53.9554C125.068 53.5747 125.372 53.2686 125.831 53.1555C126.9 52.9265 128.198 52.3556 129.152 51.7846C129.646 51.404 129.992 51.0234 130.641 51.0234C130.983 51.0234 131.365 51.1751 131.519 51.5198L131.514 51.5171Z" fill="white"/>
<path d="M148.389 67.6749C151.481 67.6749 152.624 64.5884 152.74 61.9984L152.779 60.8565C152.779 60.7406 152.74 60.7048 152.666 60.7048C152.591 60.7048 152.514 60.7048 152.436 60.7434C150.718 61.0468 145.22 62.5721 145.22 63.943C145.22 66.0778 146.519 67.6776 148.389 67.6776V67.6749ZM143.999 57.9962C143.159 57.9962 142.242 57.2708 142.242 56.5095C142.242 55.7096 143.427 54.1098 144.19 53.3844C145.831 51.7846 147.892 50.8689 150.105 50.8689C153.196 50.8689 155.716 52.6231 155.716 56.9674L155.448 64.5498C155.448 66.3399 156.21 67.8266 158.045 67.8266C158.504 67.8266 158.998 67.7135 159.114 67.7135C159.266 67.7135 159.305 67.8266 159.305 67.981C159.305 68.1355 159.266 68.2844 159.153 68.4003C158.429 69.2002 157.13 69.887 155.793 69.887C153.238 69.887 152.779 67.5618 152.779 66.1137C152.779 66.0751 152.74 66.0365 152.666 66.0365C152.591 66.0365 152.55 66.0751 152.55 66.1137C151.445 68.7037 149.229 70.0001 146.939 70.0001C143.847 70.0001 142.015 67.3715 142.015 64.285C142.015 63.8657 142.245 63.4851 142.626 63.1045C144.574 61.1985 150.679 59.8663 152.55 59.6373C152.779 59.5987 152.818 59.2181 152.818 58.4568C152.818 54.3801 151.099 53.1224 148.848 53.1224C147.665 53.1224 146.405 53.4258 145.604 53.8837C145.336 54.0354 145.223 54.2257 145.223 54.6063C145.223 57.0446 144.803 57.9989 144.002 57.9989L143.999 57.9962Z" fill="white"/>
<path d="M173.505 53.9167C173.505 54.5262 173.389 55.8612 173.389 56.0874C173.389 56.2391 173.273 56.4294 173.008 56.4294C172.701 56.4294 172.627 56.2005 172.627 56.1619C172.168 53.7236 170.146 52.5789 168.201 52.5789C166.256 52.5789 164.689 53.5305 164.689 55.4364C164.689 57.3424 167.284 58.2168 168.85 58.9422C170.911 59.9324 173.011 60.6964 173.735 62.561C173.925 63.0575 174 63.5512 174 64.1608C174 64.8089 173.887 65.4571 173.657 66.0281C172.627 68.6567 169.535 69.9917 166.557 69.9917C162.167 69.9917 161.404 68.6208 161.404 65.5702V64.58C161.404 64.3897 161.52 64.238 161.786 64.238C162.092 64.238 162.167 64.3897 162.167 64.4283C163.007 66.7894 165.449 68.2374 167.739 68.2374C169.571 68.2374 171.212 67.2859 171.212 65.493C171.212 63.0547 169.074 62.5968 167.129 61.6452C165.336 60.7681 163.427 60.0813 162.474 58.636C162.131 58.0264 161.938 57.301 161.938 56.5784C161.938 55.9688 162.089 55.282 162.357 54.711C163.349 52.5761 166.021 50.8633 169.342 50.8633C172.663 50.8633 173.503 51.9307 173.503 53.9111L173.505 53.9167Z" fill="white"/>
<path d="M142.808 33.478C142.808 41.4576 134.393 41.8796 134.393 41.8796C134.393 41.8796 134.816 33.478 142.808 33.478Z" fill="white"/>
<path d="M130.735 41.8797C130.735 41.8797 125.082 35.6406 130.735 30C136.385 35.6406 130.735 41.8797 130.735 41.8797Z" fill="white"/>
<path d="M127.074 41.8796C127.074 41.8796 118.661 41.4576 118.661 33.478C126.651 33.478 127.074 41.8796 127.074 41.8796Z" fill="white"/>
</svg>
