<svg width="240" height="100" viewBox="0 0 240 100" fill="none" xmlns="http://www.w3.org/2000/svg">
<path d="M58.0427 46.5495H66.5568V49.5H52.6054L60.7402 36.7498H53.4062V33.7993H66.2829L58.0427 46.5495ZM78.0982 49.5H68.3617V33.7993H76.7073V36.7498H71.6283V39.6792H77.5292V42.6296H71.6283V46.5495H78.0982V49.5ZM85.353 46.7814H83.7092V49.5H80.4426V33.7993H85.901C89.589 33.7993 92.4131 36.5601 92.4131 39.9742C92.4131 42.7982 91.0643 44.8636 88.8725 45.8751L92.2655 49.5H87.9241L85.353 46.7814ZM83.7092 43.8309H85.5005C87.8188 43.8309 89.1254 42.4189 89.1254 40.2271C89.1254 38.3093 87.9663 36.7498 85.6902 36.7498H83.7092V43.8309ZM102.145 49.774C97.6355 49.774 94.0106 46.128 94.0106 41.6391C94.0106 37.1502 97.6355 33.5254 102.124 33.5254C106.634 33.5254 110.259 37.1502 110.259 41.6391C110.259 46.128 106.634 49.774 102.145 49.774ZM102.124 36.6444C99.4479 36.6444 97.3615 38.8783 97.3615 41.6391C97.3615 44.4421 99.4479 46.6338 102.145 46.6338C104.801 46.6338 106.908 44.4421 106.908 41.6391C106.908 38.8783 104.78 36.6444 102.124 36.6444ZM124.371 44.147L126.9 45.9594C125.445 48.2566 122.916 49.774 120.008 49.774C115.519 49.774 111.936 46.1491 111.936 41.6602C111.936 37.1713 115.519 33.5254 119.987 33.5254C122.853 33.5254 125.382 35.0427 126.773 37.3399L124.223 39.1523C123.148 37.4663 121.568 36.6444 120.008 36.6444C117.374 36.6444 115.287 38.8783 115.287 41.6602C115.287 44.421 117.374 46.6549 120.008 46.6549C121.631 46.6549 123.233 45.833 124.371 44.147ZM138.585 49.5H128.849V33.7993H137.194V36.7498H132.115V39.6792H138.016V42.6296H132.115V46.5495H138.585V49.5ZM152.099 42.8825V33.7993H155.366V49.774L144.196 40.48V49.5H140.93V33.5043L152.099 42.8825ZM164.41 49.5H161.143V36.7498H157.266V33.7993H168.541V36.7498H164.41V49.5ZM177.039 49.774C172.529 49.774 168.904 46.128 168.904 41.6391C168.904 37.1502 172.529 33.5254 177.018 33.5254C181.528 33.5254 185.153 37.1502 185.153 41.6391C185.153 46.128 181.528 49.774 177.039 49.774ZM177.018 36.6444C174.341 36.6444 172.255 38.8783 172.255 41.6391C172.255 44.4421 174.341 46.6338 177.039 46.6338C179.694 46.6338 181.802 44.4421 181.802 41.6391C181.802 38.8783 179.673 36.6444 177.018 36.6444Z" fill="white"/>
<path d="M145.282 59.6634C143.772 59.4878 142.789 58.5394 142.789 57.1696C142.789 55.6943 144.147 54.6523 145.353 54.6523C146.219 54.6523 147.039 54.9801 147.706 55.7763L146.278 56.8183C146.043 56.5724 145.657 56.3851 145.353 56.3851C144.873 56.3851 144.545 56.6778 144.545 57.1578C144.545 57.5559 144.837 57.9189 145.762 57.9774C147.249 58.0711 148.479 59.078 148.479 60.764C148.479 62.4617 147.062 63.6793 145.528 63.6793C144.533 63.6793 143.538 63.3164 142.707 62.4031L144.205 61.3025C144.603 61.806 145.013 61.9348 145.528 61.9348C146.125 61.9348 146.594 61.4548 146.594 60.8928C146.594 60.1903 146.125 59.7571 145.282 59.6634ZM152.435 63.5271H150.62V56.4437H148.466V54.8045H154.73V56.4437H152.435V63.5271ZM159.475 63.6793C156.922 63.6793 155.705 61.9114 155.705 59.4878V54.8045H157.519V59.7922C157.519 61.162 158.187 61.9348 159.475 61.9348C160.821 61.9348 161.407 61.1035 161.407 59.7922V54.8045H163.221V59.64C163.221 62.1807 161.805 63.6793 159.475 63.6793ZM164.796 54.8045H168.332C170.85 54.8045 172.899 56.6778 172.899 59.1599C172.899 61.6655 170.85 63.5271 168.344 63.5271H164.796V54.8045ZM166.611 61.888H168.344C169.854 61.888 171.037 60.7288 171.037 59.1599C171.037 57.5793 169.854 56.4437 168.332 56.4437H166.611V61.888ZM176.01 54.8045V63.5271H174.195V54.8045H176.01ZM181.827 63.6793C179.322 63.6793 177.308 61.6538 177.308 59.1599C177.308 56.6661 179.322 54.6523 181.816 54.6523C184.321 54.6523 186.335 56.6661 186.335 59.1599C186.335 61.6538 184.321 63.6793 181.827 63.6793ZM181.816 56.3851C180.329 56.3851 179.17 57.6262 179.17 59.1599C179.17 60.7171 180.329 61.9348 181.827 61.9348C183.303 61.9348 184.473 60.7171 184.473 59.1599C184.473 57.6262 183.291 56.3851 181.816 56.3851Z" fill="white"/>
</svg>
