<svg width="250" height="100" viewBox="0 0 250 100" fill="none" xmlns="http://www.w3.org/2000/svg">
<path d="M14.5 39.8899H24.1316C27.9343 39.8899 29.9328 42.0902 29.9328 45.126C29.9328 47.1592 28.9891 48.7467 27.3237 49.5544V49.6101C29.5442 50.3064 30.8488 52.1724 30.8488 54.5676C30.8488 57.7149 28.8225 60.0265 24.9088 60.0265H14.5V39.8899ZM23.632 48.0504C25.2697 48.0504 26.0191 47.0756 26.0191 45.7944C26.0191 44.4854 25.4084 43.5385 23.6042 43.5385H18.4415V48.0504H23.632ZM24.2427 56.4058C26.0746 56.4058 26.824 55.3196 26.824 54.0106C26.824 52.6459 25.9081 51.5875 24.2704 51.5875H18.4415V56.4337H24.2427V56.4058ZM33.2081 48.2454C33.2081 42.8422 36.2891 39.5 41.9793 39.5C47.6694 39.5 50.806 42.87 50.806 48.2454V60.0544H46.8645V54.0106H37.0663V60.0544H33.2359V48.2454H33.2081ZM46.8645 50.4456V48.2454C46.8645 45.0146 45.2546 43.1485 41.9515 43.1485C38.6762 43.1485 37.0663 44.9867 37.0663 48.2454V50.4456H46.8645ZM53.998 47.9111C53.998 42.7308 57.0512 39.5 62.5471 39.5C68.043 39.5 71.0962 42.7308 71.0962 47.9111V60.0544H67.1547V47.9111C67.1547 44.931 65.6281 43.1485 62.5471 43.1485C59.4661 43.1485 57.9395 44.9032 57.9395 47.9111V60.0544H53.998V47.9111ZM73.7331 49.9721C73.7331 43.9284 78.1464 39.5 84.4195 39.5C89.6655 39.5 93.6348 42.6194 94.7728 47.2149H90.637C89.6933 44.7918 87.4172 43.1764 84.4195 43.1764C80.4225 43.1764 77.7301 46.0451 77.7301 50C77.7301 53.9549 80.4225 56.8515 84.4195 56.8515C87.3895 56.8515 89.6655 55.2082 90.637 52.7851H94.7728C93.6348 57.3806 89.6655 60.5 84.4195 60.5C78.1464 60.4721 73.7331 56.0159 73.7331 49.9721ZM97.3264 48.2454C97.3264 42.8422 100.407 39.5 106.07 39.5C111.732 39.5 114.897 42.87 114.897 48.2454V60.0544H110.955V54.0106H101.157V60.0544H97.3264V48.2454ZM110.983 50.4456V48.2454C110.983 45.0146 109.373 43.1485 106.07 43.1485C102.794 43.1485 101.185 44.9867 101.185 48.2454V50.4456H110.983ZM126.249 48.2454C126.249 42.8422 129.33 39.5 135.02 39.5C140.71 39.5 143.847 42.87 143.847 48.2454V60.0544H139.905V54.0106H130.107V60.0544H126.277V48.2454H126.249ZM139.878 50.4456V48.2454C139.878 45.0146 138.268 43.1485 134.965 43.1485C131.689 43.1485 130.08 44.9867 130.08 48.2454V50.4456H139.878ZM147.511 39.8899H151.452V60.0544H147.511V39.8899ZM155.588 39.8899H162.722C169.772 39.8899 173.436 43.9284 173.436 49.9721C173.436 56.0159 169.744 60.0544 162.722 60.0544H155.588V39.8899ZM162.722 56.4058C167.357 56.4058 169.439 53.8714 169.439 49.9721C169.439 46.0451 167.357 43.5663 162.722 43.5663H159.53V56.4337H162.722V56.4058ZM176.544 39.8899H191.367V43.5663H180.486V48.0782H189.59V51.5875H180.486V56.4337H191.367V60.0822H176.544V39.8899ZM217.902 48.2454C217.902 42.8422 220.983 39.5 226.673 39.5C232.363 39.5 235.5 42.87 235.5 48.2454V60.0544H231.559V54.0106H221.76V60.0544H217.93L217.902 48.2454ZM231.559 50.4456V48.2454C231.559 45.0146 229.949 43.1485 226.646 43.1485C223.37 43.1485 221.76 44.9867 221.76 48.2454V50.4456H231.559Z" fill="white"/>
<path d="M210.658 39.89L203.052 49.9444L210.741 60.0266H216.403L208.742 49.9444L216.32 39.89H210.658Z" fill="white"/>
<path d="M193.365 39.89L200.97 49.9444L193.31 60.0266H198.972L206.633 49.9444L199.055 39.89H193.365Z" fill="white"/>
</svg>
