<svg width="130" height="100" viewBox="0 0 130 100" fill="none" xmlns="http://www.w3.org/2000/svg">
<mask id="mask0_6354_415" style="mask-type:luminance" maskUnits="userSpaceOnUse" x="10" y="30" width="110" height="40">
<path d="M10.5 30H119.5V70H10.5V30Z" fill="white"/>
</mask>
<g mask="url(#mask0_6354_415)">
<path d="M38.6858 69.1915C39.9411 69.1706 41.1801 68.9006 42.3318 68.3969C43.4836 67.8932 44.5255 67.1657 45.3978 66.2559C46.2708 65.3461 46.9568 64.2719 47.4168 63.0947C47.8778 61.9176 48.1028 60.6605 48.0808 59.3954C48.1028 58.1303 47.8778 56.8733 47.4168 55.6961C46.9568 54.519 46.2708 53.4448 45.3978 52.535C44.5255 51.6252 43.4836 50.8977 42.3318 50.394C41.1801 49.8902 39.9411 49.6202 38.6858 49.5994C37.4304 49.6202 36.1914 49.8902 35.0397 50.394C33.8879 50.8977 32.846 51.6252 31.9734 52.535C31.1009 53.4448 30.4148 54.519 29.9544 55.6961C29.4941 56.8733 29.2684 58.1303 29.2905 59.3954C29.2684 60.6605 29.4941 61.9176 29.9544 63.0947C30.4148 64.2719 31.1009 65.3461 31.9734 66.2559C32.846 67.1657 33.8879 67.8932 35.0397 68.3969C36.1914 68.9006 37.4304 69.1706 38.6858 69.1915Z" fill="white"/>
<path d="M38.6858 49.5994C39.9415 49.5776 41.1806 49.3067 42.3324 48.8022C43.4842 48.2977 44.5261 47.5695 45.3988 46.6591C46.2708 45.7487 46.9568 44.6741 47.4168 43.4965C47.8778 42.3189 48.1028 41.0615 48.0808 39.7961C48.1028 38.531 47.8778 37.2739 47.4168 36.0968C46.9568 34.9196 46.2708 33.8454 45.3978 32.9356C44.5255 32.0258 43.4836 31.2983 42.3318 30.7946C41.1801 30.2909 39.9411 30.0209 38.6858 30C37.4304 30.0209 36.1914 30.2909 35.0397 30.7946C33.8879 31.2983 32.846 32.0258 31.9734 32.9356C31.1009 33.8454 30.4148 34.9196 29.9544 36.0968C29.4941 37.2739 29.2684 38.531 29.2905 39.7961C29.2684 41.0615 29.494 42.3189 29.9543 43.4965C30.4146 44.6741 31.1005 45.7487 31.973 46.6591C32.8455 47.5695 33.8873 48.2977 35.0391 48.8022C36.1909 49.3067 37.4301 49.5776 38.6858 49.5994Z" fill="white"/>
<path d="M29.2906 39.7961C29.2864 38.511 29.0412 37.2384 28.5679 36.0452C28.1004 34.8629 27.408 33.7842 26.5299 32.8696C25.6733 31.9652 24.6463 31.2422 23.5089 30.7429C22.3678 30.2467 21.1381 29.9907 19.8953 29.9907C18.6525 29.9907 17.4229 30.2467 16.2818 30.7429C15.1413 31.2442 14.1099 31.9669 13.2464 32.8696C12.3754 33.7871 11.6883 34.8653 11.2228 36.0452C10.7495 37.2384 10.5043 38.511 10.5 39.7961V59.3955C10.4933 61.9751 11.4775 64.4573 13.2464 66.3219C14.1011 67.229 15.1301 67.9513 16.2707 68.4449C17.4113 68.9385 18.6396 69.193 19.8809 69.193C21.1222 69.193 22.3505 68.9385 23.4911 68.4449C24.6316 67.9513 25.6606 67.229 26.5154 66.3219C28.2974 64.4636 29.2926 61.9798 29.2906 59.3955V39.7961Z" fill="white"/>
<path d="M56.7539 51.4348H61.3209L64.6599 63.2484L68.0209 51.4348H72.6539V65.7174H69.7629V54.6176L66.6259 65.7174H62.6869L59.5649 54.6759V65.7174H56.7539V51.4348ZM79.4689 65.8776C78.5289 65.8952 77.6039 65.6426 76.8019 65.1493C75.9889 64.6448 75.3199 63.9373 74.8579 63.0954C74.1439 61.8229 73.9469 60.3208 74.3099 58.9053C74.6719 57.4898 75.5659 56.2712 76.8019 55.5062C77.6059 55.0151 78.5289 54.7554 79.4689 54.7554C80.4089 54.7554 81.3319 55.0151 82.1359 55.5062C82.9479 56.006 83.6159 56.7117 84.0729 57.5528C84.5509 58.4008 84.8019 59.3596 84.8019 60.335C84.8019 61.3105 84.5509 62.2692 84.0729 63.1173C83.6149 63.9561 82.9469 64.6593 82.1359 65.1566C81.3309 65.6444 80.4069 65.8942 79.4689 65.8776ZM79.4689 63.1828C79.9499 63.1895 80.4229 63.0527 80.8279 62.7895C81.2359 62.5235 81.5719 62.1577 81.8029 61.7261C82.1709 61.0606 82.2689 60.2779 82.0779 59.5411C81.8999 58.8162 81.4519 58.1878 80.8279 57.7859C80.4219 57.5258 79.9499 57.3892 79.4689 57.3926C78.9879 57.3876 78.5149 57.5243 78.1099 57.7859C77.6979 58.0509 77.3579 58.4171 77.1249 58.8502C76.8909 59.2833 76.7699 59.7691 76.7729 60.2622C76.7689 60.7708 76.8929 61.2723 77.1339 61.7189C77.3659 62.1504 77.7009 62.5162 78.1099 62.7822C78.5149 63.046 78.9869 63.1852 79.4689 63.1828ZM86.0959 54.8725H88.9359V55.8776C89.2939 55.5066 89.7209 55.2119 90.1939 55.0109C90.7109 54.793 91.2669 54.684 91.8269 54.6905C92.5649 54.6878 93.2919 54.8678 93.9449 55.2149C94.6209 55.5624 95.1809 56.1017 95.5569 56.7662C95.9429 57.4276 96.1409 58.1838 96.1269 58.9512V65.6591H93.2869V59.7596C93.2949 59.347 93.2009 58.939 93.0129 58.5725C92.8499 58.2412 92.5999 57.9614 92.2899 57.764C91.9789 57.5733 91.6199 57.4749 91.2559 57.48C90.8249 57.4747 90.4029 57.5989 90.0419 57.8369C89.6919 58.0754 89.4119 58.4051 89.2329 58.791C89.0389 59.2102 88.9419 59.6686 88.9509 60.1311V65.7174H86.1109L86.0959 54.8725ZM102.798 65.8776C101.858 65.8843 100.933 65.6325 100.124 65.1493C99.3059 64.652 98.6329 63.946 98.1729 63.1027C97.7039 62.2485 97.4549 61.2894 97.4499 60.3132C97.4499 59.3364 97.6989 58.3759 98.1729 57.5237C98.6359 56.6861 99.3089 55.9854 100.124 55.4916C100.876 55.0324 101.732 54.7763 102.611 54.7482C103.49 54.7202 104.361 54.921 105.14 55.3314C105.868 55.7091 106.501 56.2497 106.99 56.9119C107.49 57.5846 107.835 58.3607 108.002 59.1843C108.185 59.9184 108.207 60.6839 108.067 61.4275H100.269C100.354 61.7989 100.528 62.1439 100.775 62.4326C101.021 62.719 101.334 62.9392 101.685 63.0736C102.043 63.2098 102.423 63.2789 102.805 63.2775C103.259 63.2771 103.708 63.1982 104.135 63.0444C104.551 62.8967 104.933 62.6635 105.255 62.3598L107.72 63.0881C107.275 63.9488 106.568 64.6431 105.703 65.0692C104.82 65.585 103.819 65.8634 102.798 65.8776ZM105.277 59.1624C105.168 58.8225 104.993 58.5078 104.762 58.2365C104.531 57.9652 104.249 57.7427 103.933 57.5819C103.572 57.4076 103.176 57.3203 102.776 57.327C102.374 57.321 101.976 57.4082 101.613 57.5819C101.282 57.7414 100.991 57.9728 100.76 58.2593C100.536 58.524 100.367 58.831 100.261 59.1624H105.277ZM112.403 65.6519L108.168 54.8725H111.174L113.848 62.1559L116.407 54.8725H119.413L113.689 69.9781H110.755L112.403 65.6519Z" fill="white"/>
<path d="M56.7539 33.7509H63.0989C63.8879 33.7365 64.6679 33.9113 65.3759 34.2607C65.9869 34.5658 66.4999 35.0388 66.8549 35.6252C67.2109 36.2116 67.3949 36.8875 67.3849 37.5746C67.3929 38.2117 67.2409 38.8404 66.9439 39.4027C66.6699 39.9466 66.2649 40.4124 65.7659 40.7574C66.4539 41.0613 67.0339 41.5694 67.4279 42.2141C67.7869 42.8222 67.9739 43.5171 67.9699 44.2243C67.9829 44.9124 67.7999 45.5898 67.4429 46.1762C67.0749 46.7837 66.5439 47.2736 65.9109 47.5892C65.1819 47.9456 64.3789 48.1204 63.5689 48.099H56.7539V33.7509ZM63.0049 39.6868C63.2169 39.6967 63.4289 39.6594 63.6249 39.5775C63.8209 39.4957 63.9969 39.3714 64.1399 39.2134C64.4229 38.9095 64.5809 38.5085 64.5809 38.0917C64.5809 37.675 64.4229 37.2739 64.1399 36.9701C63.9919 36.8172 63.8149 36.6959 63.6199 36.6132C63.4249 36.5335 63.2159 36.4963 63.0049 36.504H59.5649V39.6868H63.0049ZM63.3959 45.2731C63.6029 45.2834 63.8099 45.2486 64.0029 45.1711C64.1979 45.0912 64.3769 44.9751 64.5299 44.8288C64.6729 44.6847 64.7859 44.514 64.8629 44.3263C64.9349 44.1332 64.9719 43.9282 64.9709 43.7217C64.9709 43.5153 64.9339 43.3107 64.8629 43.1172C64.7859 42.9295 64.6729 42.7587 64.5299 42.6147C64.3819 42.4618 64.2049 42.3404 64.0099 42.2578C63.8139 42.1846 63.6049 42.15 63.3959 42.1558H59.5649V45.2731H63.3959ZM69.2709 33.7509H79.1579V36.5914H72.2059V39.5047H78.3919V42.2724H72.1979V45.1857H79.1579V48.0189H69.2709V33.7509ZM84.7659 43.678L80.1189 33.7873H83.2409L86.2119 40.2112L89.1889 33.7509H92.3189L87.7219 43.5688V48.0335H84.7659V43.678ZM98.9679 48.2228C97.7339 48.233 96.5219 47.895 95.4699 47.2469C94.4089 46.5998 93.5319 45.6863 92.9259 44.5957C92.3049 43.4841 91.9779 42.2299 91.9779 40.9541C91.9779 39.6783 92.3049 38.4241 92.9259 37.3124C93.5319 36.2181 94.4079 35.2999 95.4699 34.6467C96.5249 34.0034 97.7349 33.6633 98.9679 33.6633C100.201 33.6633 101.411 34.0034 102.466 34.6467C103.527 35.303 104.404 36.2203 105.017 37.3124C105.631 38.4263 105.954 39.6797 105.954 40.9541C105.954 42.2285 105.631 43.4819 105.017 44.5957C104.414 45.6914 103.534 46.6062 102.466 47.2469C101.414 47.8971 100.202 48.2354 98.9679 48.2228ZM98.9679 45.3678C99.7039 45.3796 100.427 45.1745 101.049 44.7778C101.667 44.3802 102.166 43.8215 102.495 43.1609C102.841 42.4725 103.022 41.7115 103.022 40.9395C103.022 40.1676 102.841 39.4065 102.495 38.7181C102.164 38.0569 101.666 37.4963 101.049 37.0939C100.428 36.6992 99.7089 36.4898 98.9749 36.4898C98.2409 36.4898 97.5219 36.6992 96.9009 37.0939C96.2869 37.4989 95.7879 38.0589 95.4549 38.7181C95.1089 39.4065 94.9279 40.1676 94.9279 40.9395C94.9279 41.7115 95.1089 42.4725 95.4549 43.1609C95.7859 43.82 96.2849 44.3782 96.9009 44.7778C97.5159 45.1816 98.2329 45.399 98.9679 45.4042V45.3678ZM107.344 33.7509H112.027L116.645 45.0983V33.7509H119.536V48.0626H114.99L110.235 36.351V48.0626H107.344V33.7509Z" fill="white"/>
</g>
</svg>
