<svg width="108" height="100" viewBox="0 0 108 100" fill="none" xmlns="http://www.w3.org/2000/svg">
<path d="M23.6616 53.8837L23.6528 68.2236H20.5497L20.5623 56.8652H15.7927L15.7851 68.2224H12.677L12.6845 56.8652H10.5V53.8824H12.6833V53.586C12.6833 49.7141 14.8426 47.7655 19.1801 47.7681C20.254 47.773 21.3239 47.8999 22.3691 48.1464V50.9854C21.313 50.8325 20.2473 50.755 19.1801 50.7533C16.8818 50.7533 15.7889 51.4962 15.7876 53.5898V53.8774L23.6616 53.8837ZM39.743 59.4292V68.2337H36.64V59.7445C36.692 59.3052 36.645 58.8599 36.504 58.4407C36.362 58.0216 36.129 57.639 35.822 57.3206C35.514 57.0022 35.139 56.7559 34.725 56.5995C34.31 56.4431 33.8662 56.3805 33.4245 56.4162C31.2412 56.4162 29.7743 57.7619 29.7731 60.5441V68.23H26.67L26.6788 53.89H29.7819V55.725C30.2606 54.9948 30.9259 54.4054 31.709 54.0176C32.4922 53.6299 33.3649 53.4578 34.237 53.5192C37.54 53.5204 39.751 55.7591 39.743 59.4292ZM42.501 68.2337L42.515 47.2976H45.618L45.611 68.2337H42.501ZM51.066 62.3918C51.319 63.2223 51.794 63.9683 52.44 64.5496C53.086 65.131 53.878 65.5257 54.732 65.6914C55.585 65.8571 56.468 65.7876 57.285 65.4902C58.102 65.1929 58.822 64.6789 59.369 64.0036L61.925 65.4969C61.239 66.5195 60.297 67.3455 59.193 67.893C58.089 68.4406 56.861 68.6906 55.63 68.6184C54.592 68.6598 53.557 68.493 52.585 68.1277C51.613 67.7625 50.724 67.2063 49.971 66.492C48.593 65.0348 47.824 63.1081 47.82 61.1046C47.816 59.101 48.578 57.1713 49.95 55.7086C50.657 54.9853 51.508 54.4178 52.449 54.0429C53.389 53.668 54.398 53.4939 55.41 53.5318C56.381 53.5066 57.345 53.6913 58.238 54.0731C59.13 54.4549 59.929 55.0249 60.58 55.744C61.929 57.2019 62.659 59.1251 62.617 61.1092C62.612 61.5416 62.573 61.9729 62.501 62.3994L51.066 62.3918ZM59.486 59.8694C59.37 58.874 58.884 57.9585 58.123 57.3043C57.362 56.6502 56.383 56.3053 55.38 56.338C54.346 56.2833 53.329 56.6145 52.527 57.2669C51.724 57.9194 51.193 58.8466 51.037 59.8681L59.486 59.8694ZM76.069 53.9127H79.172L79.164 68.2527H76.06V66.1881C75.495 66.9838 74.738 67.6241 73.859 68.0497C72.979 68.4752 72.007 68.6721 71.031 68.6222C70.082 68.6349 69.141 68.447 68.269 68.0707C67.398 67.6945 66.617 67.1384 65.977 66.439C64.631 64.9768 63.885 63.0631 63.886 61.0774C63.887 59.0917 64.636 57.1791 65.984 55.7187C66.625 55.0205 67.407 54.4655 68.278 54.0904C69.149 53.7152 70.09 53.5282 71.038 53.5419C72.011 53.4945 72.98 53.6904 73.858 54.1117C74.736 54.533 75.494 55.1665 76.064 55.9546L76.069 53.9127ZM71.521 65.6684C72.121 65.685 72.719 65.5793 73.277 65.3577C73.836 65.1361 74.343 64.8032 74.768 64.3795C75.194 63.9446 75.528 63.4286 75.751 62.8623C75.973 62.296 76.079 61.6908 76.063 61.0827C76.081 60.4802 75.976 59.8804 75.755 59.3198C75.533 58.7593 75.199 58.2497 74.773 57.8224C73.905 56.9766 72.739 56.5031 71.526 56.5031C70.312 56.5031 69.147 56.9766 68.279 57.8224C67.851 58.2504 67.515 58.7611 67.293 59.3233C67.07 59.8855 66.965 60.4872 66.984 61.0915C66.966 61.6998 67.072 62.3053 67.294 62.872C67.516 63.4388 67.849 63.9553 68.275 64.3908C68.701 64.8135 69.208 65.1451 69.766 65.3657C70.325 65.5862 70.922 65.6909 71.522 65.6735L71.521 65.6684ZM95.406 55.7654C96.753 57.2221 97.501 59.1325 97.5 61.1154C97.499 63.0983 96.749 65.0079 95.399 66.463C94.758 67.1612 93.977 67.7162 93.106 68.0914C92.235 68.4666 91.294 68.6535 90.345 68.6399C89.373 68.6872 88.403 68.4914 87.526 68.07C86.648 67.6487 85.89 67.0152 85.319 66.2271V74H82.216L82.229 53.924H85.332V55.9886C85.897 55.1928 86.654 54.5524 87.534 54.1269C88.413 53.7013 89.386 53.5045 90.362 53.5545C91.311 53.5483 92.251 53.7421 93.12 54.123C93.989 54.504 94.768 55.0636 95.406 55.7654ZM89.854 65.6848C90.454 65.7014 91.052 65.5957 91.61 65.3741C92.169 65.1525 92.676 64.8196 93.101 64.3959C93.527 63.961 93.861 63.445 94.084 62.8787C94.306 62.3124 94.412 61.7072 94.396 61.0991C94.416 60.4949 94.311 59.893 94.089 59.3306C93.867 58.7682 93.532 58.2571 93.105 57.8287C92.237 56.983 91.071 56.5095 89.858 56.5095C88.645 56.5095 87.48 56.983 86.612 57.8287C86.184 58.2566 85.848 58.7673 85.625 59.3295C85.403 59.8918 85.298 60.4935 85.317 61.0978C85.299 61.7061 85.405 62.3116 85.627 62.8783C85.849 63.4451 86.182 63.9616 86.608 64.3971C87.033 64.8205 87.54 65.153 88.098 65.3744C88.656 65.5958 89.254 65.7014 89.854 65.6848ZM69.849 37.4324C70.201 35.4897 70.014 33.4878 69.308 31.6435C68.746 30.2717 67.848 29.0621 66.698 28.1246C65.548 27.1872 64.181 26.5516 62.722 26.2757L62.606 26.2455C59.065 25.7731 55.466 25.9838 52.005 26.866L50.615 27.3352C50.54 27.3604 50.459 27.3648 50.382 27.3478C47.331 26.6407 44.166 26.5815 41.091 27.1737C41.003 27.1972 40.925 27.2474 40.866 27.3174C40.808 27.3873 40.773 27.4737 40.766 27.5644C40.759 27.6551 40.781 27.7458 40.828 27.8238C40.875 27.9018 40.945 27.9633 41.028 27.9998C41.677 28.2593 42.203 28.7557 42.499 29.3881C42.795 30.0205 42.839 30.7417 42.621 31.4051C42.601 31.5132 42.541 31.6098 42.453 31.6763C38.103 35.2023 34.91 39.9483 33.2868 45.3024C33.2569 45.3975 33.2605 45.5 33.297 45.5928C33.3334 45.6857 33.4005 45.7633 33.4872 45.8129C33.5738 45.8624 33.6748 45.881 33.7735 45.8654C33.8722 45.8499 33.9625 45.8012 34.03 45.7274C49.674 28.5094 68.381 40.0709 68.341 40.0192L68.406 40.0469C68.54 40.1178 68.687 40.1589 68.838 40.1672C68.989 40.1756 69.14 40.1511 69.28 40.0954C69.421 40.0398 69.548 39.9542 69.652 39.8448C69.756 39.7354 69.835 39.6047 69.883 39.4617C69.883 39.4617 69.91 39.3797 69.907 39.3797C69.915 39.3448 69.919 39.3094 69.921 39.2738C69.928 39.2232 69.931 39.1722 69.931 39.1212C69.989 38.6209 69.962 38.1145 69.853 37.6229C69.837 37.5605 69.836 37.4954 69.849 37.4324Z" fill="white"/>
</svg>
