<svg width="180" height="100" viewBox="0 0 180 100" fill="none" xmlns="http://www.w3.org/2000/svg">
<path d="M59.4647 44.9456H53.3052V49.2374H58.9143V53.5033H53.3052V59.3464H48.168V40.6797H59.4647V44.9456Z" fill="white"/>
<path d="M66.83 40.6797H62.0859V59.3464H66.83V40.6797Z" fill="white"/>
<path d="M80.3552 46.109H85.1252V59.3463H80.3552V57.8726C79.3322 59.1395 77.9692 59.76 76.2402 59.76C75.2702 59.76 74.3792 59.579 73.5402 59.2429C72.7272 58.881 71.9932 58.3897 71.3912 57.7692C70.7882 57.1229 70.3162 56.3731 69.9755 55.5199C69.6348 54.6667 69.4775 53.736 69.4775 52.7018C69.4775 51.7452 69.6348 50.8662 69.9755 50.013C70.3162 49.1598 70.7622 48.41 71.3642 47.7895C71.9672 47.1432 72.6752 46.652 73.4872 46.29C74.3002 45.928 75.2172 45.7471 76.2132 45.7471C77.8912 45.7471 79.2802 46.3159 80.3812 47.4793V46.109H80.3552ZM74.4052 52.676C74.4052 53.1155 74.4832 53.5033 74.6412 53.8653C74.7982 54.2272 75.0082 54.5633 75.2702 54.8219C75.5322 55.1063 75.8732 55.3131 76.2402 55.4682C76.6072 55.6233 77.0262 55.7009 77.4452 55.7009C77.8652 55.7009 78.2582 55.6233 78.6252 55.4682C78.9922 55.3131 79.3322 55.1063 79.5942 54.8219C79.8572 54.5375 80.0922 54.2272 80.2502 53.8653C80.4072 53.5033 80.4862 53.1155 80.4862 52.7018C80.4862 52.2882 80.4072 51.9003 80.2502 51.5384C80.0922 51.1764 79.8572 50.8403 79.5942 50.5818C79.3322 50.2974 78.9922 50.0906 78.6252 49.9354C78.2582 49.7803 77.8652 49.7027 77.4452 49.7027C77.0002 49.7027 76.6072 49.7803 76.2402 49.9354C75.8732 50.0906 75.5322 50.2974 75.2702 50.5818C75.0082 50.8662 74.7982 51.1764 74.6412 51.5125C74.4832 51.9003 74.4052 52.2623 74.4052 52.676Z" fill="white"/>
<path d="M97.2338 49.5216C96.3688 49.0821 95.5038 48.8494 94.6648 48.8494C94.2198 48.8494 93.8788 48.927 93.6168 49.108C93.3548 49.289 93.2238 49.5216 93.2238 49.806C93.2238 49.9612 93.2498 50.0904 93.2758 50.168C93.3288 50.2714 93.4068 50.349 93.5648 50.4265C93.7218 50.5041 93.9318 50.5817 94.2198 50.6592C94.5078 50.7368 94.8748 50.8144 95.3468 50.9178C96.6568 51.1763 97.6268 51.6417 98.2818 52.288C98.9378 52.9602 99.2518 53.7876 99.2518 54.8217C99.2518 55.5974 99.0948 56.2954 98.7798 56.9159C98.4658 57.5364 98.0198 58.0535 97.4698 58.4672C96.9198 58.8808 96.2378 59.2169 95.4518 59.4496C94.6648 59.6823 93.7998 59.7857 92.8568 59.7857C91.0478 59.7857 89.2658 59.2686 87.5098 58.2603L89.2398 54.951C90.5768 55.8559 91.8088 56.2954 93.0138 56.2954C93.4598 56.2954 93.7998 56.192 94.0888 56.011C94.3768 55.83 94.5078 55.5715 94.5078 55.2871C94.5078 55.1061 94.4818 54.9769 94.4558 54.8734C94.4028 54.77 94.3248 54.6666 94.1938 54.5632C94.0628 54.4598 93.8528 54.3822 93.5908 54.3047C93.3288 54.2271 92.9618 54.1495 92.5418 54.072C91.0748 53.7876 90.0518 53.3481 89.4758 52.7793C88.8988 52.2105 88.6108 51.409 88.6108 50.4007C88.6108 49.6509 88.7418 49.0046 89.0298 48.4099C89.3188 47.8153 89.7118 47.324 90.2358 46.9104C90.7598 46.4967 91.3888 46.1865 92.1228 45.9538C92.8568 45.7211 93.6958 45.6177 94.5868 45.6177C96.0808 45.6177 97.4958 45.9021 98.9118 46.4709L97.2338 49.5216Z" fill="white"/>
<path d="M101.637 40.6797H106.382V47.7896C107.037 47.0139 107.692 46.4969 108.347 46.2383C109.003 45.9798 109.789 45.8505 110.68 45.8505C112.357 45.8505 113.642 46.3159 114.507 47.2208C115.372 48.1515 115.791 49.3925 115.791 50.9438V59.3464H111.047V52.6501C111.047 51.9779 110.995 51.435 110.89 51.0213C110.785 50.6077 110.601 50.2974 110.366 50.0647C109.946 49.7028 109.448 49.5218 108.845 49.5218C108.033 49.5218 107.43 49.7545 107.011 50.2199C106.591 50.6852 106.382 51.3574 106.382 52.2365V59.2946H101.637V40.6797Z" fill="white"/>
<path d="M123.733 40.6797V50.8921L128.713 46.109H135.187L128.477 52.2106L135.58 59.3464H128.922L123.733 53.9428V59.3464H118.989V40.6797H123.733Z" fill="white"/>
<path d="M140.455 53.5032C140.455 55.5198 141.425 56.5282 143.338 56.5282C144.36 56.5282 145.147 56.1145 145.671 55.2872H150.258C149.34 58.3121 147.034 59.8375 143.338 59.8375C142.211 59.8375 141.163 59.6824 140.219 59.3463C139.275 59.0102 138.463 58.5448 137.808 57.9243C137.126 57.3038 136.628 56.554 136.261 55.7008C135.894 54.8476 135.711 53.891 135.711 52.8052C135.711 51.6934 135.894 50.711 136.235 49.8319C136.576 48.9529 137.074 48.2031 137.729 47.5826C138.384 46.9621 139.144 46.4968 140.062 46.1607C140.979 45.8246 142.001 45.6694 143.155 45.6694C144.282 45.6694 145.304 45.8246 146.221 46.1607C147.139 46.4968 147.899 46.988 148.528 47.6085C149.157 48.2548 149.629 49.0305 149.969 49.9354C150.31 50.8661 150.467 51.9003 150.467 53.0379V53.5291H140.455V53.5032ZM145.985 50.8144C145.828 50.168 145.513 49.6251 145.015 49.2373C144.517 48.8495 143.941 48.6427 143.233 48.6427C142.499 48.6427 141.896 48.8236 141.451 49.2114C140.979 49.5993 140.691 50.1163 140.586 50.8144H145.985Z" fill="white"/>
<path d="M156.994 57.5364L150.494 46.1089H155.998L159.562 52.8827L163.048 46.1089H168.5L158.776 63.9999H153.455L156.994 57.5364Z" fill="white"/>
<g opacity="0.5">
<path d="M35.1679 59.3463H16.2441V40.6796H35.1679V59.3463ZM39.8858 36H11.5V64H39.8858V36Z" fill="white"/>
</g>
<g opacity="0.5">
<path d="M30.2145 45.5662H21.1982V54.46H30.2145V45.5662Z" fill="white"/>
</g>
</svg>
