<svg width="124" height="100" viewBox="0 0 124 100" fill="none" xmlns="http://www.w3.org/2000/svg">
<path d="M59.9628 43.7632L63.8997 58.0503L67.5355 43.7632H72.8076L66.7546 64.6447H61.1059L57.2076 50.3261L53.3093 64.6447H47.6614L41.6084 43.7632H46.8806L50.5181 58.0503L54.455 43.7632H59.9628ZM80.1153 43.7632V64.6447H74.9128V43.7632H80.1153ZM87.3466 64.0582C86.0106 63.4447 84.9479 62.6055 84.1721 61.5539C83.3896 60.4961 82.9644 59.3276 82.8881 58.0503H88.1283C88.2231 58.8571 88.6173 59.5218 89.2983 60.0508C89.9785 60.5797 90.8248 60.8442 91.8421 60.8442C92.8595 60.8442 93.6034 60.6445 94.1637 60.2442C94.7231 59.8439 94.9965 59.3285 94.9965 58.7015C94.9965 58.0242 94.6526 57.5142 93.9733 57.1724C93.2923 56.8305 92.2103 56.4626 90.7233 56.0624C89.1843 55.6882 87.9304 55.295 86.9516 54.8939C85.9762 54.4938 85.1098 53.8609 84.4271 53.0489C83.7209 52.2232 83.3712 51.1005 83.3712 49.6937C83.3653 48.5591 83.71 47.4512 84.3566 46.5255C85.0117 45.5703 85.9527 44.8147 87.1806 44.2668C88.4084 43.7118 89.8452 43.4403 91.505 43.4403C93.9599 43.4403 95.9124 44.06 97.3751 45.3058C98.8378 46.5508 99.6388 48.2285 99.7923 50.3387H94.8128C94.7357 49.5129 94.3985 48.8482 93.7888 48.3571C93.1841 47.8676 92.3705 47.6221 91.3523 47.6221C90.4113 47.6221 89.6858 47.7958 89.1776 48.1511C88.6693 48.5063 88.4143 48.9903 88.4143 49.6226C88.4143 50.3253 88.7574 50.8621 89.4568 51.2229C90.1504 51.5845 91.2257 51.9587 92.6875 52.3329C94.1763 52.7071 95.3974 53.1011 96.3636 53.5013C97.3298 53.9008 98.1635 54.5268 98.8688 55.3661C99.5759 56.2108 99.9382 57.3208 99.9634 58.7015C99.9634 59.9087 99.6321 60.9863 98.977 61.9415C98.322 62.8968 97.3818 63.6445 96.1539 64.1868C94.9269 64.7292 93.4961 65 91.8614 65C90.2268 65 88.6693 64.6906 87.3265 64.0771L87.3466 64.0582ZM109.39 48.0997V58.1979C109.39 58.9021 109.555 59.4113 109.892 59.7279C110.229 60.0437 110.789 60.1985 111.584 60.1985H114V64.6447H110.732C106.349 64.6447 104.155 62.4832 104.155 58.16V48.0997H101.707V43.7632H104.155V38.2392H109.395V43.7695H114V48.1061H109.395L109.39 48.0997ZM41.6138 59.7082H35.4828C37.891 56.9958 39.2213 53.4731 39.2159 49.8224C39.2097 41.6339 32.6724 35 24.6017 35C16.5309 35 10 41.6339 10 49.8161C10 57.9982 16.538 64.6321 24.6017 64.6321H43.0384L41.6069 59.7018L41.6138 59.7082ZM15.2021 49.8161C15.2021 44.5439 19.4121 40.2721 24.6087 40.2721C29.8038 40.2721 34.0138 44.5439 34.0138 49.8161C34.0138 55.0882 29.8045 59.36 24.608 59.36C19.4121 59.36 15.2021 55.0882 15.2021 49.8161ZM80.1153 35.3426H74.9128V40.6211H80.1153V35.3426Z" fill="white"/>
</svg>
