<svg width="365" height="180" viewBox="0 0 365 180" fill="none" xmlns="http://www.w3.org/2000/svg">
<mask id="mask0_8285_1136" style="mask-type:luminance" maskUnits="userSpaceOnUse" x="24" y="52" width="317" height="76">
<path d="M340.525 52.5H24V127.5H340.525V52.5Z" fill="white"/>
</mask>
<g mask="url(#mask0_8285_1136)">
<path fill-rule="evenodd" clip-rule="evenodd" d="M102.669 90C102.669 80.4596 99.097 71.7519 93.2169 65.1297C86.3302 57.3869 76.2849 52.5 65.0855 52.5C54.9857 52.5 45.8218 56.4842 39.0756 62.9508H47.1945C52.3262 59.5658 58.4719 57.5892 65.0855 57.5892C74.7642 57.5892 83.4445 61.8069 89.4027 68.5069C89.4345 68.5458 89.4656 68.5847 89.4967 68.6236C85.5967 66.3592 81.0659 65.0597 76.2304 65.0597H24V70.1411H62.1686V117.54H68.0414V70.1411H76.2304C85.995 70.1411 94.2305 76.6933 96.7574 85.6267C99.5028 87.3309 101.585 89.9922 102.521 93.1594C102.568 92.5913 102.607 92.0155 102.63 91.4319H102.669C102.669 91.1906 102.654 90.9571 102.654 90.7159C102.654 90.4747 102.669 90.2413 102.669 90Z" fill="white"/>
<path fill-rule="evenodd" clip-rule="evenodd" d="M65.0866 122.419C47.141 122.419 32.5957 107.906 32.5957 90C32.5957 83.5023 34.5143 77.4637 37.8133 72.3901H31.9016C29.0939 77.6427 27.5029 83.6347 27.5029 90C27.5029 110.707 44.3333 127.5 65.0866 127.5C73.2757 127.5 80.8563 124.886 87.0255 120.442H76.255C72.7688 121.718 69.0096 122.411 65.0789 122.411L65.0866 122.419Z" fill="white"/>
<path d="M86.2145 117.54C83.7187 117.54 81.6363 117.119 79.9828 116.279C78.3294 115.439 77.0972 114.318 76.2939 112.917C75.4906 111.516 75.085 109.999 75.085 108.357C75.085 105.315 76.2548 102.972 78.5946 101.33C80.9343 99.6884 84.1162 98.8713 88.1483 98.8713H96.2517V98.5133C96.2517 95.9142 95.5652 93.9533 94.1928 92.6304C92.8198 91.2686 90.987 90.5915 88.6944 90.5915C86.7213 90.5915 85.0053 91.0896 83.5549 92.0934C82.1432 93.0506 81.254 94.4746 80.8953 96.3579H75.6934C75.8961 94.1945 76.6214 92.3736 77.8692 90.8951C79.1562 89.4166 80.755 88.296 82.6423 87.5334C84.5374 86.7318 86.5498 86.335 88.6868 86.335C92.8745 86.335 96.0256 87.4555 98.1156 89.6966C100.253 91.8989 101.321 94.8403 101.321 98.5211V116.831H96.7896L96.4854 111.485C95.6357 113.166 94.3878 114.606 92.7341 115.804C91.1197 116.964 88.9439 117.547 86.2063 117.547L86.2145 117.54ZM87.002 113.275C88.9363 113.275 90.5895 112.777 91.9625 111.774C93.3736 110.769 94.4423 109.47 95.1677 107.875C95.8929 106.272 96.2594 104.591 96.2594 102.832V102.77H88.5776C85.5979 102.77 83.4767 103.291 82.229 104.334C81.0201 105.338 80.4117 106.599 80.4117 108.116C80.4117 109.633 80.9734 110.941 82.1042 111.898C83.2742 112.816 84.9037 113.275 87.002 113.275Z" fill="white"/>
<path d="M108.947 116.816V73.5962H114.025V116.824H108.947V116.816Z" fill="white"/>
<path d="M135.838 117.539C132.976 117.539 130.433 116.901 128.218 115.617C126.003 114.295 124.248 112.473 122.954 110.154C121.706 107.836 121.082 105.089 121.082 101.929C121.082 98.7699 121.706 96.0851 122.954 93.7662C124.202 91.4083 125.941 89.5874 128.155 88.3034C130.41 86.9805 133.014 86.3191 135.955 86.3191C138.895 86.3191 141.36 86.9805 143.45 88.3034C145.587 89.5874 147.217 91.2838 148.347 93.4082C149.478 95.5327 150.04 97.8126 150.04 100.248C150.04 100.692 150.016 101.128 149.977 101.571V103.073H126.097C126.222 105.353 126.744 107.252 127.672 108.777C128.639 110.256 129.825 111.376 131.236 112.139C132.687 112.901 134.216 113.283 135.83 113.283C137.928 113.283 139.683 112.8 141.087 111.843C142.498 110.886 143.528 109.579 144.167 107.944H149.182C148.379 110.707 146.827 113.01 144.526 114.847C142.272 116.644 139.363 117.547 135.822 117.547L135.838 117.539ZM135.838 90.5834C133.42 90.5834 131.26 91.3227 129.365 92.8013C127.508 94.2409 126.44 96.3653 126.159 99.1667H145.025C144.908 96.482 143.98 94.381 142.241 92.8635C140.509 91.3461 138.372 90.5834 135.83 90.5834H135.838Z" fill="white"/>
<path d="M156.779 116.816V87.035H161.372L161.677 92.3811C162.645 90.4979 164.033 89.0193 165.849 87.9377C167.667 86.856 169.717 86.3191 172.018 86.3191C175.567 86.3191 178.391 87.4007 180.481 89.564C182.617 91.6885 183.687 94.9646 183.687 99.4079V116.816H178.609V99.9448C178.609 93.7428 176.028 90.6379 170.872 90.6379C168.29 90.6379 166.138 91.5795 164.399 93.4626C162.707 95.3069 161.856 97.945 161.856 101.384V116.816H156.779Z" fill="white"/>
<path d="M203.229 116.816C200.492 116.816 198.332 116.155 196.763 114.832C195.196 113.509 194.409 111.127 194.409 107.688V91.2996H189.206V87.0353H194.409L195.071 79.8916H199.485V87.0353H208.315V91.2996H199.485V107.688C199.485 109.571 199.867 110.847 200.633 111.532C201.397 112.17 202.745 112.489 204.679 112.489H207.823V116.808H203.229V116.816Z" fill="white"/>
<path d="M220.802 116.816L212.036 87.0352H217.113L223.463 110.388L230.473 87.0352H236.214L243.287 110.388L249.574 87.0352H254.714L245.946 116.816H240.745L233.367 92.2644L225.989 116.816H220.787H220.802Z" fill="white"/>
<path d="M269.256 117.54C266.761 117.54 264.677 117.119 263.025 116.279C261.371 115.439 260.139 114.318 259.336 112.917C258.532 111.516 258.127 109.999 258.127 108.357C258.127 105.315 259.296 102.972 261.637 101.33C263.976 99.6884 267.159 98.8713 271.191 98.8713H279.293V98.5133C279.293 95.9142 278.607 93.9533 277.234 92.6304C275.863 91.2686 274.029 90.5915 271.736 90.5915C269.763 90.5915 268.047 91.0896 266.597 92.0934C265.186 93.0506 264.296 94.4746 263.938 96.3579H258.735C258.938 94.1945 259.664 92.3736 260.911 90.8951C262.197 89.4166 263.796 88.296 265.684 87.5334C267.58 86.7318 269.592 86.335 271.729 86.335C275.916 86.335 279.067 87.4555 281.158 89.6966C283.294 91.8989 284.363 94.8403 284.363 98.5211V116.831H279.831L279.527 111.485C278.677 113.166 277.43 114.606 275.776 115.804C274.162 116.964 271.985 117.547 269.249 117.547L269.256 117.54ZM270.043 113.275C271.978 113.275 273.632 112.777 275.004 111.774C276.416 110.769 277.483 109.47 278.209 107.875C278.935 106.272 279.301 104.591 279.301 102.832V102.77H271.619C268.64 102.77 266.519 103.291 265.271 104.334C264.062 105.338 263.453 106.599 263.453 108.116C263.453 109.633 264.015 110.941 265.146 111.898C266.316 112.816 267.946 113.275 270.043 113.275Z" fill="white"/>
<path d="M291.991 116.816V87.035H296.585L297.006 92.7389C297.934 90.778 299.346 89.2138 301.242 88.0543C303.137 86.8949 305.476 86.3113 308.252 86.3113V91.5951H306.864C305.093 91.5951 303.456 91.914 301.966 92.5522C300.476 93.1513 299.284 94.1942 298.402 95.6727C297.513 97.1512 297.068 99.1978 297.068 101.797V116.808H291.991V116.816Z" fill="white"/>
<path d="M326.316 117.539C323.454 117.539 320.912 116.901 318.696 115.617C316.482 114.295 314.726 112.473 313.432 110.154C312.184 107.836 311.56 105.089 311.56 101.929C311.56 98.7699 312.184 96.0851 313.432 93.7662C314.679 91.4083 316.419 89.5874 318.634 88.3034C320.888 86.9805 323.493 86.3191 326.432 86.3191C329.373 86.3191 331.838 86.9805 333.927 88.3034C336.064 89.5874 337.695 91.2838 338.825 93.4082C339.957 95.5327 340.518 97.8126 340.518 100.248C340.518 100.692 340.494 101.128 340.455 101.571V103.073H316.576C316.7 105.353 317.223 107.252 318.151 108.777C319.117 110.256 320.303 111.376 321.715 112.139C323.166 112.901 324.693 113.283 326.308 113.283C328.407 113.283 330.161 112.8 331.564 111.843C332.977 110.886 334.006 109.579 334.646 107.944H339.66C338.857 110.707 337.305 113.01 335.004 114.847C332.75 116.644 329.841 117.547 326.3 117.547L326.316 117.539ZM326.316 90.5834C323.898 90.5834 321.738 91.3227 319.843 92.8013C317.987 94.2409 316.918 96.3653 316.638 99.1667H335.504C335.379 96.482 334.457 94.381 332.718 92.8635C330.987 91.3461 328.852 90.5834 326.308 90.5834H326.316Z" fill="white"/>
</g>
</svg>
