<svg width="187" height="180" viewBox="0 0 187 180" fill="none" xmlns="http://www.w3.org/2000/svg">
<g clip-path="url(#clip0_8288_907)">
<mask id="mask0_8288_907" style="mask-type:luminance" maskUnits="userSpaceOnUse" x="25" y="61" width="138" height="57">
<path d="M163 61.5H25.3438V117.557H163V61.5Z" fill="white"/>
</mask>
<g mask="url(#mask0_8288_907)">
<path d="M128.127 74.0968H136.67V84.2144H128.127V101.87C128.127 105.516 129.852 106.755 133.137 106.755C134.324 106.767 135.509 106.65 136.67 106.409V115.843C134.616 116.594 132.435 116.944 130.247 116.873C121.987 116.873 116.784 111.987 116.784 103.839V84.2144H109.093V74.0968H111.25C115.738 74.0968 117.812 71.1891 117.812 67.4156V61.5H128.127V74.0968ZM44.4137 61.5H34.0619V67.4156C34.0619 71.1891 31.9879 74.0968 27.5004 74.0968H25.3438V84.2144H33.0249V103.839C33.0249 111.987 38.2008 116.873 46.4877 116.873C48.6911 116.95 50.8886 116.6 52.9575 115.843V106.409C51.7957 106.65 50.6112 106.767 49.4243 106.755C46.139 106.755 44.4137 105.552 44.4137 101.87V84.2144H52.9575V74.0968H44.4137V61.5ZM155.061 101.952C153.511 101.968 152.001 102.44 150.72 103.307C149.439 104.174 148.445 105.398 147.863 106.825C147.281 108.252 147.137 109.818 147.45 111.326C147.762 112.834 148.516 114.217 149.618 115.3C150.72 116.383 152.12 117.118 153.641 117.412C155.163 117.707 156.738 117.547 158.169 116.955C159.599 116.362 160.822 115.362 161.681 114.081C162.541 112.799 162.999 111.294 163 109.754C162.995 108.724 162.785 107.705 162.384 106.755C161.982 105.805 161.396 104.944 160.659 104.219C159.921 103.494 159.048 102.921 158.087 102.532C157.127 102.143 156.099 101.946 155.061 101.952ZM82.838 72.7843C70.1643 72.7843 60.5837 82.1179 60.5837 95.1433C60.5837 108.168 70.1643 117.539 82.838 117.539C95.5116 117.539 105.101 108.114 105.101 95.1705C105.101 82.2273 95.5208 72.7843 82.838 72.7843ZM82.838 107.138C77.2309 107.138 72.055 103.028 72.055 95.1433C72.055 87.2588 77.2309 83.1479 82.838 83.1479C88.445 83.1479 93.6209 87.2041 93.6209 95.1705C93.6209 103.137 88.445 107.166 82.838 107.166V107.138Z" fill="white"/>
</g>
</g>
<defs>
<clipPath id="clip0_8288_907">
<rect width="139" height="57" fill="white" transform="translate(24 61.5)"/>
</clipPath>
</defs>
</svg>
