<svg width="160" height="100" viewBox="0 0 160 100" fill="none" xmlns="http://www.w3.org/2000/svg">
<path d="M37.7669 39.795L32.9737 57.5622H26.9744L24.1811 46.0358L21.2925 57.5622H15.3249L10.5 39.795H15.928L18.4356 52.4995L21.4194 39.795H27.1649L30.1804 52.4358L32.6563 39.795H37.7669Z" fill="white"/>
<path d="M56.5336 48.392C56.5336 48.9015 56.5019 49.4322 56.4384 49.9841H44.154C44.2387 51.0879 44.5878 51.937 45.2015 52.5313C45.8364 53.1045 46.6088 53.391 47.5187 53.391C48.8731 53.391 49.8148 52.8179 50.3438 51.6716H56.121C55.8247 52.8391 55.2851 53.8899 54.5021 54.8239C53.7403 55.7579 52.7774 56.4902 51.6135 57.0209C50.4496 57.5516 49.1482 57.8169 47.7092 57.8169C45.9739 57.8169 44.4291 57.4454 43.0748 56.7025C41.7204 55.9595 40.6623 54.8982 39.9005 53.5184C39.1387 52.1386 38.7578 50.5254 38.7578 48.6786C38.7578 46.8318 39.1281 45.2186 39.8688 43.8388C40.6306 42.459 41.6887 41.3977 43.043 40.6547C44.3974 39.9118 45.9528 39.5403 47.7092 39.5403C49.4233 39.5403 50.9469 39.9012 52.2801 40.6229C53.6133 41.3446 54.6502 42.3741 55.3909 43.7114C56.1527 45.0488 56.5336 46.609 56.5336 48.392ZM50.9787 46.9592C50.9787 46.0252 50.6613 45.2823 50.0264 44.7303C49.3916 44.1784 48.598 43.9025 47.6457 43.9025C46.7358 43.9025 45.9634 44.1678 45.3285 44.6985C44.7148 45.2292 44.3339 45.9828 44.1858 46.9592H50.9787Z" fill="white"/>
<path d="M58.3174 48.6468C58.3174 46.8212 58.656 45.2186 59.3332 43.8388C60.0317 42.459 60.9737 41.3977 62.1587 40.6547C63.3437 39.9118 64.6657 39.5403 66.1257 39.5403C67.2897 39.5403 68.3477 39.7844 69.3007 40.2726C70.2737 40.7609 71.0357 41.4189 71.5857 42.2468V34H77.0137V57.5622H71.5857V55.0149C71.0777 55.864 70.3477 56.5433 69.3957 57.0527C68.4647 57.5622 67.3747 57.8169 66.1257 57.8169C64.6657 57.8169 63.3437 57.4454 62.1587 56.7025C60.9737 55.9383 60.0317 54.8663 59.3332 53.4866C58.656 52.0856 58.3174 50.4723 58.3174 48.6468ZM71.5857 48.6786C71.5857 47.3201 71.2047 46.2481 70.4427 45.4627C69.7027 44.6773 68.7927 44.2846 67.7137 44.2846C66.6337 44.2846 65.7137 44.6773 64.9517 45.4627C64.2107 46.2269 63.8407 47.2882 63.8407 48.6468C63.8407 50.0053 64.2107 51.0879 64.9517 51.8945C65.7137 52.6799 66.6337 53.0726 67.7137 53.0726C68.7927 53.0726 69.7027 52.6799 70.4427 51.8945C71.2047 51.1091 71.5857 50.0371 71.5857 48.6786Z" fill="white"/>
<path d="M97.6383 48.392C97.6383 48.9015 97.6063 49.4322 97.5423 49.9841H85.2583C85.3433 51.0879 85.6923 51.937 86.3053 52.5313C86.9403 53.1045 87.7133 53.391 88.6233 53.391C89.9773 53.391 90.9193 52.8179 91.4483 51.6716H97.2253C96.9293 52.8391 96.3893 53.8899 95.6063 54.8239C94.8443 55.7579 93.8813 56.4902 92.7173 57.0209C91.5543 57.5516 90.2523 57.8169 88.8133 57.8169C87.0783 57.8169 85.5333 57.4454 84.1793 56.7025C82.8243 55.9595 81.7663 54.8982 81.0043 53.5184C80.2433 52.1386 79.8623 50.5254 79.8623 48.6786C79.8623 46.8318 80.2323 45.2186 80.9733 43.8388C81.7353 42.459 82.7933 41.3977 84.1473 40.6547C85.5013 39.9118 87.0573 39.5403 88.8133 39.5403C90.5273 39.5403 92.0513 39.9012 93.3843 40.6229C94.7173 41.3446 95.7543 42.3741 96.4953 43.7114C97.2573 45.0488 97.6383 46.609 97.6383 48.392ZM92.0833 46.9592C92.0833 46.0252 91.7653 45.2823 91.1303 44.7303C90.4963 44.1784 89.7023 43.9025 88.7503 43.9025C87.8403 43.9025 87.0673 44.1678 86.4323 44.6985C85.8193 45.2292 85.4383 45.9828 85.2903 46.9592H92.0833Z" fill="white"/>
<path d="M105.929 34V57.5622H100.501V34H105.929Z" fill="white"/>
<path d="M108.783 48.6468C108.783 46.8212 109.122 45.2186 109.799 43.8388C110.498 42.459 111.439 41.3977 112.624 40.6547C113.809 39.9118 115.132 39.5403 116.592 39.5403C117.841 39.5403 118.931 39.795 119.862 40.3045C120.814 40.8139 121.544 41.4826 122.052 42.3104V39.795H127.48V57.5622H122.052V55.0468C121.523 55.8746 120.782 56.5433 119.83 57.0527C118.899 57.5622 117.809 57.8169 116.56 57.8169C115.121 57.8169 113.809 57.4454 112.624 56.7025C111.439 55.9383 110.498 54.8663 109.799 53.4866C109.122 52.0856 108.783 50.4723 108.783 48.6468ZM122.052 48.6786C122.052 47.3201 121.671 46.2481 120.909 45.4627C120.168 44.6773 119.258 44.2846 118.179 44.2846C117.1 44.2846 116.179 44.6773 115.418 45.4627C114.677 46.2269 114.307 47.2882 114.307 48.6468C114.307 50.0053 114.677 51.0879 115.418 51.8945C116.179 52.6799 117.1 53.0726 118.179 53.0726C119.258 53.0726 120.168 52.6799 120.909 51.8945C121.671 51.1091 122.052 50.0371 122.052 48.6786Z" fill="white"/>
<path d="M149.5 39.795L138.39 66H132.549L136.613 56.9572L129.407 39.795H135.47L139.565 50.9075L143.628 39.795H149.5Z" fill="white"/>
</svg>
