<svg width="155" height="100" viewBox="0 0 155 100" fill="none" xmlns="http://www.w3.org/2000/svg">
<path d="M16.0428 47.5495H24.5569V50.5H10.6055L18.7403 37.7498H11.4063V34.7993H24.283L16.0428 47.5495ZM36.0983 50.5H26.3618V34.7993H34.7074V37.7498H29.6284V40.6792H35.5293V43.6296H29.6284V47.5495H36.0983V50.5ZM43.3531 47.7814H41.7093V50.5H38.4427V34.7993H43.9011C47.5891 34.7993 50.4132 37.5601 50.4132 40.9742C50.4132 43.7982 49.0644 45.8636 46.8726 46.8751L50.2656 50.5H45.9242L43.3531 47.7814ZM41.7093 44.8309H43.5006C45.8189 44.8309 47.1255 43.4189 47.1255 41.2271C47.1255 39.3093 45.9664 37.7498 43.6903 37.7498H41.7093V44.8309ZM60.1451 50.774C55.6356 50.774 52.0107 47.128 52.0107 42.6391C52.0107 38.1502 55.6356 34.5254 60.1241 34.5254C64.6341 34.5254 68.2591 38.1502 68.2591 42.6391C68.2591 47.128 64.6341 50.774 60.1451 50.774ZM60.1241 37.6444C57.448 37.6444 55.3616 39.8783 55.3616 42.6391C55.3616 45.4421 57.448 47.6338 60.1451 47.6338C62.8011 47.6338 64.9081 45.4421 64.9081 42.6391C64.9081 39.8783 62.7801 37.6444 60.1241 37.6444ZM82.3711 45.147L84.9001 46.9594C83.4451 49.2566 80.9161 50.774 78.0081 50.774C73.5191 50.774 69.9361 47.1491 69.9361 42.6602C69.9361 38.1713 73.5191 34.5254 77.9871 34.5254C80.8531 34.5254 83.3821 36.0427 84.7731 38.3399L82.2231 40.1523C81.1481 38.4663 79.5681 37.6444 78.0081 37.6444C75.3741 37.6444 73.2871 39.8783 73.2871 42.6602C73.2871 45.421 75.3741 47.6549 78.0081 47.6549C79.6311 47.6549 81.2331 46.833 82.3711 45.147ZM96.5851 50.5H86.8491V34.7993H95.1941V37.7498H90.1151V40.6792H96.0161V43.6296H90.1151V47.5495H96.5851V50.5ZM110.099 43.8825V34.7993H113.366V50.774L102.196 41.48V50.5H98.9301V34.5043L110.099 43.8825ZM122.41 50.5H119.143V37.7498H115.266V34.7993H126.541V37.7498H122.41V50.5ZM135.039 50.774C130.529 50.774 126.904 47.128 126.904 42.6391C126.904 38.1502 130.529 34.5254 135.018 34.5254C139.528 34.5254 143.153 38.1502 143.153 42.6391C143.153 47.128 139.528 50.774 135.039 50.774ZM135.018 37.6444C132.341 37.6444 130.255 39.8783 130.255 42.6391C130.255 45.4421 132.341 47.6338 135.039 47.6338C137.694 47.6338 139.802 45.4421 139.802 42.6391C139.802 39.8783 137.673 37.6444 135.018 37.6444Z" fill="white"/>
<path d="M103.282 60.6634C101.772 60.4878 100.789 59.5394 100.789 58.1696C100.789 56.6943 102.147 55.6523 103.353 55.6523C104.219 55.6523 105.039 55.9801 105.706 56.7763L104.278 57.8183C104.043 57.5724 103.657 57.3851 103.353 57.3851C102.873 57.3851 102.545 57.6778 102.545 58.1578C102.545 58.5559 102.837 58.9189 103.762 58.9774C105.249 59.0711 106.479 60.078 106.479 61.764C106.479 63.4617 105.062 64.6793 103.528 64.6793C102.533 64.6793 101.538 64.3164 100.707 63.4031L102.205 62.3025C102.603 62.806 103.013 62.9348 103.528 62.9348C104.125 62.9348 104.594 62.4548 104.594 61.8928C104.594 61.1903 104.125 60.7571 103.282 60.6634ZM110.435 64.5271H108.62V57.4437H106.466V55.8045H112.73V57.4437H110.435V64.5271ZM117.475 64.6793C114.922 64.6793 113.705 62.9114 113.705 60.4878V55.8045H115.519V60.7922C115.519 62.162 116.187 62.9348 117.475 62.9348C118.821 62.9348 119.407 62.1035 119.407 60.7922V55.8045H121.221V60.64C121.221 63.1807 119.805 64.6793 117.475 64.6793ZM122.796 55.8045H126.332C128.85 55.8045 130.899 57.6778 130.899 60.1599C130.899 62.6655 128.85 64.5271 126.344 64.5271H122.796V55.8045ZM124.611 62.888H126.344C127.854 62.888 129.037 61.7288 129.037 60.1599C129.037 58.5793 127.854 57.4437 126.332 57.4437H124.611V62.888ZM134.01 55.8045V64.5271H132.195V55.8045H134.01ZM139.827 64.6793C137.322 64.6793 135.308 62.6538 135.308 60.1599C135.308 57.6661 137.322 55.6523 139.816 55.6523C142.321 55.6523 144.335 57.6661 144.335 60.1599C144.335 62.6538 142.321 64.6793 139.827 64.6793ZM139.816 57.3851C138.329 57.3851 137.17 58.6262 137.17 60.1599C137.17 61.7171 138.329 62.9348 139.827 62.9348C141.303 62.9348 142.473 61.7171 142.473 60.1599C142.473 58.6262 141.291 57.3851 139.816 57.3851Z" fill="white"/>
</svg>
