<svg width="128" height="128" viewBox="0 0 50 50" fill="none" xmlns="http://www.w3.org/2000/svg">
<path fill-rule="evenodd" clip-rule="evenodd" d="M7.5 0C3.35786 0 0 3.35786 0 7.5V42.5C0 46.6421 3.35786 50 7.5 50H42.5C46.6421 50 50 46.6421 50 42.5V7.5C50 3.35786 46.6421 0 42.5 0H7.5ZM34.2715 10.666L34.1445 10.5391C30.2301 13.5013 28.1143 15.194 27.7969 15.6172V35.4219L21.5762 30.3438V10.666H21.3223L15.2285 15.6172V35.5488L21.3223 40.5C21.7454 40.5 23.946 38.8073 27.9238 35.4219C31.8382 32.4385 33.9541 30.7458 34.2715 30.3438V10.666Z" fill="#CBFC01"/>
</svg>
