<svg width="140" height="32" viewBox="0 0 140 32" fill="none" xmlns="http://www.w3.org/2000/svg">
<path d="M27.3512 5.79502L22.5433 23.5622H16.5254L13.7234 12.0358L10.8259 23.5622H4.8398L0 5.79502H5.44478L7.9602 18.4995L10.9532 5.79502H16.7164L19.7413 18.4358L22.2249 5.79502H27.3512Z" fill="#FFB129"/>
<path d="M46.1759 14.392C46.1759 14.9015 46.144 15.4322 46.0803 15.9841H33.758C33.8429 17.0879 34.1931 17.937 34.8087 18.5313C35.4455 19.1045 36.2203 19.391 37.1331 19.391C38.4916 19.391 39.4362 18.8179 39.9669 17.6716H45.7619C45.4648 18.8391 44.9235 19.8899 44.1381 20.8239C43.3739 21.7579 42.408 22.4902 41.2405 23.0209C40.073 23.5516 38.7676 23.8169 37.3241 23.8169C35.5835 23.8169 34.0339 23.4454 32.6754 22.7025C31.3168 21.9595 30.2555 20.8982 29.4913 19.5184C28.7271 18.1386 28.345 16.5254 28.345 14.6786C28.345 12.8318 28.7165 11.2186 29.4595 9.83881C30.2236 8.45904 31.285 7.39768 32.6435 6.65473C34.0021 5.91177 35.5623 5.5403 37.3241 5.5403C39.0435 5.5403 40.5719 5.90116 41.9092 6.62289C43.2465 7.34461 44.2866 8.37413 45.0296 9.71144C45.7938 11.0488 46.1759 12.609 46.1759 14.392ZM40.6037 12.9592C40.6037 12.0252 40.2853 11.2823 39.6485 10.7303C39.0117 10.1784 38.2157 9.90249 37.2604 9.90249C36.3477 9.90249 35.5729 10.1678 34.9361 10.6985C34.3205 11.2292 33.9384 11.9828 33.7898 12.9592H40.6037Z" fill="#FFB129"/>
<path d="M47.9657 14.6468C47.9657 12.8212 48.3053 11.2186 48.9846 9.83881C49.6851 8.45904 50.6297 7.39768 51.8184 6.65473C53.0071 5.91177 54.3338 5.5403 55.7985 5.5403C56.966 5.5403 58.0274 5.78441 58.9826 6.27264C59.959 6.76086 60.7232 7.4189 61.2751 8.24677V0H66.7199V23.5622H61.2751V21.0149C60.7657 21.864 60.0333 22.5433 59.0781 23.0527C58.1441 23.5622 57.0509 23.8169 55.7985 23.8169C54.3338 23.8169 53.0071 23.4454 51.8184 22.7025C50.6297 21.9383 49.6851 20.8663 48.9846 19.4866C48.3053 18.0856 47.9657 16.4723 47.9657 14.6468ZM61.2751 14.6786C61.2751 13.3201 60.893 12.2481 60.1289 11.4627C59.3859 10.6773 58.4731 10.2846 57.3905 10.2846C56.308 10.2846 55.3846 10.6773 54.6204 11.4627C53.8774 12.2269 53.506 13.2882 53.506 14.6468C53.506 16.0053 53.8774 17.0879 54.6204 17.8945C55.3846 18.6799 56.308 19.0726 57.3905 19.0726C58.4731 19.0726 59.3859 18.6799 60.1289 17.8945C60.893 17.1091 61.2751 16.0371 61.2751 14.6786Z" fill="#1B50F5"/>
<path d="M87.4072 14.392C87.4072 14.9015 87.3754 15.4322 87.3117 15.9841H74.9893C75.0742 17.0879 75.4245 17.937 76.04 18.5313C76.6769 19.1045 77.4517 19.391 78.3644 19.391C79.723 19.391 80.6676 18.8179 81.1982 17.6716H86.9933C86.6961 18.8391 86.1548 19.8899 85.3694 20.8239C84.6052 21.7579 83.6394 22.4902 82.4719 23.0209C81.3044 23.5516 79.9989 23.8169 78.5555 23.8169C76.8148 23.8169 75.2653 23.4454 73.9067 22.7025C72.5482 21.9595 71.4868 20.8982 70.7226 19.5184C69.9585 18.1386 69.5764 16.5254 69.5764 14.6786C69.5764 12.8318 69.9478 11.2186 70.6908 9.83881C71.455 8.45904 72.5163 7.39768 73.8749 6.65473C75.2334 5.91177 76.7936 5.5403 78.5555 5.5403C80.2749 5.5403 81.8032 5.90116 83.1405 6.62289C84.4779 7.34461 85.518 8.37413 86.2609 9.71144C87.0251 11.0488 87.4072 12.609 87.4072 14.392ZM81.8351 12.9592C81.8351 12.0252 81.5167 11.2823 80.8798 10.7303C80.243 10.1784 79.447 9.90249 78.4918 9.90249C77.579 9.90249 76.8042 10.1678 76.1674 10.6985C75.5518 11.2292 75.1697 11.9828 75.0211 12.9592H81.8351Z" fill="#1B50F5"/>
<path d="M95.7244 0V23.5622H90.2796V0H95.7244Z" fill="#1B50F5"/>
<path d="M98.5876 14.6468C98.5876 12.8212 98.9272 11.2186 99.6065 9.83881C100.307 8.45904 101.252 7.39768 102.44 6.65473C103.629 5.91177 104.956 5.5403 106.42 5.5403C107.673 5.5403 108.766 5.79502 109.7 6.30448C110.655 6.81393 111.388 7.48259 111.897 8.31045V5.79502H117.342V23.5622H111.897V21.0468C111.366 21.8746 110.623 22.5433 109.668 23.0527C108.734 23.5622 107.641 23.8169 106.389 23.8169C104.945 23.8169 103.629 23.4454 102.44 22.7025C101.252 21.9383 100.307 20.8663 99.6065 19.4866C98.9272 18.0856 98.5876 16.4723 98.5876 14.6468ZM111.897 14.6786C111.897 13.3201 111.515 12.2481 110.751 11.4627C110.008 10.6773 109.095 10.2846 108.012 10.2846C106.93 10.2846 106.006 10.6773 105.242 11.4627C104.499 12.2269 104.128 13.2882 104.128 14.6468C104.128 16.0053 104.499 17.0879 105.242 17.8945C106.006 18.6799 106.93 19.0726 108.012 19.0726C109.095 19.0726 110.008 18.6799 110.751 17.8945C111.515 17.1091 111.897 16.0371 111.897 14.6786Z" fill="#1B50F5"/>
<path d="M139.43 5.79502L128.286 32H122.427L126.503 22.9572L119.275 5.79502H125.356L129.464 16.9075L133.54 5.79502H139.43Z" fill="#1B50F5"/>
</svg>
