<svg width="406" height="240" viewBox="0 0 406 240" fill="none" xmlns="http://www.w3.org/2000/svg">
<path d="M229.27 71.834C229.272 72.1965 229.018 72.665 228.304 73.0872C227.609 73.4986 226.597 73.7808 225.437 73.7881C224.277 73.7954 223.262 73.5259 222.562 73.1233C221.843 72.7101 221.583 72.2448 221.58 71.8823C221.578 71.5199 221.833 71.0513 222.546 70.6291C223.241 70.2177 224.253 69.9356 225.413 69.9283C226.573 69.921 227.588 70.1904 228.289 70.593C229.008 71.0063 229.268 71.4715 229.27 71.834Z" fill="white" stroke="white" stroke-width="1.5"/>
<path d="M221.583 71.1481L221.601 63.5532L229.219 63.5929L229.268 71.1448L221.583 71.1481Z" fill="white" stroke="white" stroke-width="1.5"/>
<path d="M229.965 62.7618C229.917 63.4001 229.47 64.0326 228.623 64.5207C226.844 65.5544 223.947 65.5603 222.174 64.5346C221.352 64.0602 220.913 63.4495 220.856 62.827C220.848 62.7336 220.848 62.6397 220.856 62.5463C220.913 61.9159 221.361 61.2933 222.197 60.8111C223.976 59.7794 226.872 59.7735 228.646 60.7973C229.478 61.2795 229.917 61.9001 229.965 62.5325C229.97 62.6088 229.97 62.6855 229.965 62.7618Z" fill="black" stroke="white" stroke-width="1.5" stroke-linejoin="round"/>
<path d="M190.672 125.062C190.674 125.424 190.419 125.893 189.706 126.315C189.01 126.726 187.999 127.008 186.839 127.016C185.679 127.023 184.664 126.754 183.963 126.351C183.244 125.938 182.984 125.472 182.982 125.11C182.979 124.748 183.234 124.279 183.948 123.857C184.643 123.445 185.655 123.163 186.814 123.156C187.974 123.149 188.99 123.418 189.69 123.821C190.409 124.234 190.669 124.699 190.672 125.062Z" fill="white" stroke="white" stroke-width="1.5"/>
<path d="M153.3 162.085C153.303 162.448 153.048 162.916 152.335 163.339C151.639 163.75 150.628 164.032 149.468 164.04C148.308 164.047 147.292 163.777 146.592 163.375C145.873 162.962 145.613 162.496 145.611 162.134C145.608 161.771 145.863 161.303 146.576 160.881C147.272 160.469 148.283 160.187 149.443 160.18C150.603 160.172 151.619 160.442 152.319 160.844C153.038 161.258 153.298 161.723 153.3 162.085Z" fill="white" stroke="white" stroke-width="1.5"/>
<path d="M211.742 60.9534L236.656 75.3373L269.875 56.1587L244.961 41.7748L211.742 60.9534Z" fill="#222222" stroke="white" stroke-width="1.5" stroke-linejoin="round"/>
<path d="M236.656 75.3373L269.875 56.1587V137.67L236.656 156.848V75.3373Z" fill="black" stroke="white" stroke-width="1.5" stroke-linejoin="round"/>
<path d="M211.742 60.9534V142.464L236.656 156.848V75.3373L211.742 60.9534Z" fill="#222222" stroke="white" stroke-width="1.5" stroke-linejoin="round"/>
<path d="M174.371 120.886L199.285 135.272L232.504 116.092L207.59 101.708L174.371 120.886Z" fill="#222222" stroke="white" stroke-width="1.5" stroke-linejoin="round"/>
<path d="M199.285 135.272L232.504 116.092V159.246L199.285 178.424V135.272Z" fill="black" stroke="white" stroke-width="1.5" stroke-linejoin="round"/>
<path d="M174.371 120.886V164.04L199.285 178.424V135.272L174.371 120.886Z" fill="#222222" stroke="white" stroke-width="1.5" stroke-linejoin="round"/>
<path d="M137 161.643L161.914 176.027L195.133 156.848L170.219 142.464L137 161.643Z" fill="#222222" stroke="white" stroke-width="1.5" stroke-linejoin="round"/>
<path d="M161.914 176.027L195.133 156.848V180.821L161.914 200V176.027Z" fill="black" stroke="white" stroke-width="1.5" stroke-linejoin="round"/>
<path d="M137 161.643V185.616L161.914 200V176.027L137 161.643Z" fill="#222222" stroke="white" stroke-width="1.5" stroke-linejoin="round"/>
<path d="M239.838 65.1274C246.777 65.1274 252.402 59.5025 252.402 52.5637C252.402 45.625 246.777 40 239.838 40C232.899 40 227.274 45.625 227.274 52.5637C227.274 59.5025 232.899 65.1274 239.838 65.1274Z" fill="#CBFC01" stroke="black" stroke-width="1.5" stroke-linejoin="round"/>
<path d="M201.975 124.1C208.914 124.1 214.539 118.475 214.539 111.536C214.539 104.597 208.914 98.9725 201.975 98.9725C195.036 98.9725 189.411 104.597 189.411 111.536C189.411 118.475 195.036 124.1 201.975 124.1Z" fill="#CBFC01" stroke="black" stroke-width="1.5" stroke-linejoin="round"/>
<path d="M163.59 162.762C170.529 162.762 176.154 157.137 176.154 150.198C176.154 143.259 170.529 137.634 163.59 137.634C156.651 137.634 151.026 143.259 151.026 150.198C151.026 157.137 156.651 162.762 163.59 162.762Z" fill="#CBFC01" stroke="black" stroke-width="1.5" stroke-linejoin="round"/>
</svg>
