<svg width="48" height="48" viewBox="0 0 48 48" fill="none" xmlns="http://www.w3.org/2000/svg">
<path d="M13.936 15.6167L13.938 35.6518L19.7195 38.9899V18.9558L13.936 15.6167Z" fill="#222222" stroke="white" stroke-linejoin="round"/>
<path d="M13.9373 25.6348L19.7193 28.9744L18.2751 29.8085L12.4917 26.4694L13.9373 25.6348Z" fill="#222222" stroke="white" stroke-linejoin="round"/>
<path d="M18.2747 29.8086V31.4784L12.4902 28.1388L12.4912 26.4695L18.2747 29.8086Z" fill="#222222" stroke="white" stroke-linejoin="round"/>
<path d="M12.4915 28.1387L18.2735 31.4788L16.8288 32.3129L11.0454 28.9738L12.4915 28.1387Z" fill="#222222" stroke="white" stroke-linejoin="round"/>
<path d="M16.8293 32.313V33.9828L11.0454 30.6432L11.0459 28.9739L16.8293 32.313Z" fill="#222222" stroke="white" stroke-linejoin="round"/>
<path d="M11.0462 30.6433L16.8282 33.9834L15.3835 34.8171L9.6001 31.478L11.0462 30.6433Z" fill="#222222" stroke="white" stroke-linejoin="round"/>
<path d="M15.383 34.8169V36.4867L9.59912 33.1476L9.59961 31.4778L15.383 34.8169Z" fill="#222222" stroke="white" stroke-linejoin="round"/>
<path d="M9.6004 33.1477L15.3824 36.4873L13.9382 37.3215L8.15479 33.9824L9.6004 33.1477Z" fill="#222222" stroke="white" stroke-linejoin="round"/>
<path d="M13.9382 37.3213V38.9911L8.15381 35.6515L8.15479 33.9822L13.9382 37.3213Z" fill="#222222" stroke="white" stroke-linejoin="round"/>
<path d="M8.15558 35.6516L13.9375 38.9917L12.4929 39.8259L6.70947 36.4868L8.15558 35.6516Z" fill="#222222" stroke="white" stroke-linejoin="round"/>
<path d="M12.4924 39.8259V41.4957L6.7085 38.1561L6.70899 36.4868L12.4924 39.8259Z" fill="#222222" stroke="white" stroke-linejoin="round"/>
<path d="M6.71027 38.1558L12.4922 41.4958L11.0476 42.3295L5.26416 38.9904L6.71027 38.1558Z" fill="#222222" stroke="white" stroke-linejoin="round"/>
<path d="M11.0471 42.3298V43.9996L5.26318 40.6605L5.26368 38.9907L11.0471 42.3298Z" fill="#222222" stroke="white" stroke-linejoin="round"/>
<path d="M42.8528 23.9639V25.6337L32.732 31.4787L21.5066 37.9583L11.0469 43.9999V42.3296L12.4915 41.496L12.4925 39.8257L13.9366 38.9915L13.9376 37.3212L15.3822 36.4871L15.3832 34.8168L16.8278 33.9831L16.8288 32.3128L18.273 31.4787L18.274 29.8084L19.7186 28.9742L19.7196 28.9792V18.9555L32.732 11.4441V19.7901L34.1777 18.9555V20.6253L35.6238 19.7901V21.4599L37.0694 20.6253V22.2946L38.5155 21.4599V23.1292L39.9611 22.2946V23.9639L41.4072 23.1292V24.799L42.8528 23.9639Z" fill="black" stroke="white" stroke-linejoin="round"/>
<path d="M32.7319 18.1208L34.178 18.9555L32.7319 19.7902V18.1208Z" fill="#222222" stroke="white" stroke-linejoin="round"/>
<path d="M35.6238 19.79L34.1782 18.9553V20.6246L35.6238 19.79Z" fill="#222222" stroke="white" stroke-linejoin="round"/>
<path d="M35.6245 19.7903L37.0706 20.6249L35.6245 21.4601V19.7903Z" fill="#222222" stroke="white" stroke-linejoin="round"/>
<path d="M37.0698 20.6248L38.5154 21.4599L37.0698 22.2946V20.6248Z" fill="#222222" stroke="white" stroke-linejoin="round"/>
<path d="M38.5156 21.4602L39.9617 22.2949L38.5156 23.1295V21.4602Z" fill="#222222" stroke="white" stroke-linejoin="round"/>
<path d="M39.9619 22.2947L41.4075 23.1293L39.9619 23.964V22.2947Z" fill="#222222" stroke="white" stroke-linejoin="round"/>
<path d="M41.4072 23.1292L42.8528 23.9638L41.4072 24.7985V23.1292Z" fill="#222222" stroke="white" stroke-linejoin="round"/>
<path d="M12.3193 13.8297L25.3323 6.31689L34.0075 11.3273L20.9945 18.8386L12.3193 13.8297Z" fill="#222222" stroke="white" stroke-linejoin="round"/>
<path d="M23.266 13.3327C25.567 13.3327 27.4323 11.4674 27.4323 9.16636C27.4323 6.86534 25.567 5 23.266 5C20.965 5 19.0996 6.86534 19.0996 9.16636C19.0996 11.4674 20.965 13.3327 23.266 13.3327Z" fill="#CBFC01" stroke="black" stroke-linejoin="round"/>
<path d="M12.3193 13.8298L20.9945 18.8387V20.508L12.3193 15.4996V13.8298Z" fill="#222222" stroke="white" stroke-linejoin="round"/>
<path d="M20.9946 20.5083V18.839L34.0076 11.3276V12.9969L20.9946 20.5083Z" fill="black" stroke="white" stroke-linejoin="round"/>
<path d="M27.4926 20.5544L26.0199 24.3897L24.1909 23.2564L24.5131 27.4859L30.6228 23.9595L30.8888 19.4182L29.1239 22.5617L27.4926 20.5544Z" fill="#CBFC01" stroke="white"/>
</svg>
