<svg width="49" height="48" viewBox="0 0 49 48" fill="none" xmlns="http://www.w3.org/2000/svg">
<path d="M9.46777 34.5129V37.9848L24.2113 46.4997L24.2264 43.0283L9.46777 34.5129Z" fill="#222222" stroke="white" stroke-linejoin="round"/>
<path d="M38.9439 34.5144L38.9615 37.9984L24.2114 46.4996L24.2265 43.0283L38.9439 34.5144Z" fill="black" stroke="white" stroke-linejoin="round"/>
<path d="M38.9437 34.5138L24.1977 25.9431L9.46777 34.5128L24.2264 43.0282L38.9437 34.5138Z" fill="#222222" stroke="white" stroke-linejoin="round"/>
<path d="M24.2178 28.2683C20.6392 28.2683 17.5498 29.5309 16.1533 31.3431H32.2823C30.8853 29.5309 27.7964 28.2683 24.2178 28.2683Z" fill="black" stroke="white" stroke-linejoin="round"/>
<path d="M33.077 31.3457V33.5157C33.077 36.4083 29.1038 38.7615 24.2199 38.7615C19.3359 38.7615 15.3628 36.4083 15.3628 33.5157V31.3457H33.077Z" fill="black" stroke="white" stroke-linejoin="round"/>
<path d="M32.3689 31.1366C32.3689 32.2756 31.5724 33.3996 30.0836 34.2665C28.6073 35.1263 26.5348 35.674 24.2186 35.674C21.9024 35.674 19.8299 35.1263 18.3536 34.2665C16.8648 33.3996 16.0684 32.2756 16.0684 31.1366C16.0684 29.9976 16.8648 28.8736 18.3536 28.0066C19.8299 27.1469 21.9024 26.5991 24.2186 26.5991C26.5348 26.5991 28.6073 27.1469 30.0836 28.0066C31.5724 28.8736 32.3689 29.9976 32.3689 31.1366Z" fill="white" stroke="white"/>
<path d="M24.2179 36.3827C19.3334 36.3827 15.3608 34.0295 15.3608 31.1369C15.3608 28.2443 19.3365 25.8916 24.2179 25.8916C29.0994 25.8916 33.075 28.2448 33.075 31.1369C33.075 34.029 29.1024 36.3827 24.2179 36.3827Z" fill="#222222" stroke="white" stroke-linejoin="round"/>
<path d="M31.1723 30.0924V29.1035C31.1723 27.4098 30.7117 25.748 29.8399 24.2959C28.968 22.8438 27.7178 21.6561 26.2229 20.8599L25.5184 20.486C25.4478 20.4484 25.3886 20.3928 25.3465 20.3248C25.3044 20.2569 25.2811 20.179 25.2788 20.0991C25.2766 20.0193 25.2955 19.9402 25.3337 19.87C25.3719 19.7998 25.4279 19.741 25.4962 19.6994L26.6743 18.9848C28.0472 18.1526 29.1823 16.9806 29.9702 15.5818C30.7581 14.183 31.1721 12.6048 31.1723 10.9994V8.16309H17.2642V10.9254C17.2642 12.55 17.6881 14.1466 18.4939 15.5573C19.2996 16.9681 20.4594 18.1443 21.8588 18.9697L23.0515 19.6743C23.1211 19.7154 23.1784 19.7744 23.2175 19.8452C23.2566 19.916 23.276 19.996 23.2738 20.0768C23.2715 20.1577 23.2476 20.2364 23.2047 20.3049C23.1617 20.3734 23.1011 20.4292 23.0293 20.4664L22.3072 20.8403C20.7877 21.6276 19.5137 22.8173 18.6244 24.2794C17.7351 25.7415 17.2645 27.4199 17.2642 29.1312V30.0371C17.2642 31.1517 17.8303 32.279 19.3033 33.1295C20.6621 33.914 22.4375 34.3101 24.2134 34.3171C26.0065 34.3247 27.8001 33.9347 29.1644 33.1471C30.6147 32.3102 31.1723 31.2 31.1723 30.0924Z" fill="#222222" stroke="white" stroke-linejoin="round"/>
<path d="M22.8314 22.3139L22.8315 22.3139L22.8377 22.3107C23.1631 22.1423 23.5247 22.0557 23.8911 22.0587L24.6431 22.0652C24.6431 22.0652 24.6431 22.0652 24.6431 22.0652C25.0051 22.0684 25.3611 22.1589 25.6806 22.3291L25.6807 22.3292C26.8657 22.96 27.8568 23.9014 28.5479 25.0524C29.2389 26.2034 29.6039 27.5207 29.6036 28.8632V28.8633V29.7007V29.7247L29.6059 29.7485C29.6701 30.416 29.2811 31.2023 28.1542 31.8528L28.1541 31.8528C27.1002 32.4615 25.6841 32.7788 24.2384 32.7762C22.793 32.7735 21.3723 32.4511 20.31 31.8377C19.1627 31.1752 18.7659 30.3756 18.8319 29.7027L18.8343 29.6783V29.6539V28.8869C18.8343 28.8869 18.8343 28.8869 18.8343 28.8869C18.8343 27.5301 19.2072 26.1995 19.9122 25.0403C20.6165 23.882 21.6254 22.9394 22.8287 22.3153L22.8314 22.3139Z" fill="#CBFC01" stroke="black"/>
<path d="M32.8689 6.50244H15.5684V7.44149H15.5714C15.5714 7.46464 15.5684 8.06099 15.5684 8.08413C15.5684 10.8661 19.4433 13.1211 24.2186 13.1211C28.9939 13.1211 32.8689 10.8635 32.8689 8.08263C32.8689 8.05948 32.8689 7.46313 32.8658 7.43998H32.8689V6.50244Z" fill="black" stroke="white" stroke-linejoin="round"/>
<path d="M24.2186 11.5747C28.996 11.5747 32.8689 9.31933 32.8689 6.53722C32.8689 3.75511 28.996 1.49976 24.2186 1.49976C19.4412 1.49976 15.5684 3.75511 15.5684 6.53722C15.5684 9.31933 19.4412 11.5747 24.2186 11.5747Z" fill="#222222" stroke="white" stroke-linejoin="round"/>
</svg>
