<svg width="406" height="240" viewBox="0 0 406 240" fill="none" xmlns="http://www.w3.org/2000/svg">
<path d="M205.247 152.74V200L159 173.66V125.96L205.247 152.74Z" fill="#222222" stroke="white" stroke-width="1.5" stroke-linejoin="round"/>
<path d="M246.354 129.007V176.265L205.247 200V152.74L246.354 129.007Z" fill="black" stroke="white" stroke-width="1.5" stroke-linejoin="round"/>
<path d="M189.731 137.518L189.808 137.651H189.962L189.731 137.518Z" fill="#222222" stroke="white" stroke-width="1.5" stroke-linejoin="round"/>
<path d="M189.808 137.657L189.731 137.524L189.962 137.657H189.808Z" fill="#222222" stroke="white" stroke-width="1.5" stroke-linejoin="round"/>
<path d="M246.354 129.007L205.247 152.74L159 125.96L164.218 122.957L205.232 146.653L241.077 125.958L246.354 129.007Z" fill="#222222" stroke="white" stroke-width="1.5" stroke-linejoin="round"/>
<path d="M169.362 119.997L164.138 116.981V122.911L164.218 122.957L205.231 146.659L205.247 140.717L169.362 119.997Z" fill="#222222" stroke="white" stroke-width="1.5" stroke-linejoin="round"/>
<path d="M241.215 119.944V125.878L241.076 125.958L205.231 146.653L205.247 140.712L235.437 123.28L235.938 122.991L241.215 119.944Z" fill="black" stroke="white" stroke-width="1.5" stroke-linejoin="round"/>
<path d="M205.247 128.841L205.232 134.783L174.508 117.034L169.276 114.012V108.077L179.657 114.069L205.247 128.841Z" fill="#222222" stroke="white" stroke-width="1.5" stroke-linejoin="round"/>
<path d="M236.077 111.044V116.979L230.8 120.024L230.316 120.304L205.231 134.783L205.247 128.841L225.662 117.057L236.077 111.044Z" fill="black" stroke="white" stroke-width="1.5" stroke-linejoin="round"/>
<path d="M205.232 116.969V122.903L184.807 111.105L179.566 108.079L179.541 102.151L179.547 102.149L189.945 108.148L205.232 116.969Z" fill="#222222" stroke="white" stroke-width="1.5" stroke-linejoin="round"/>
<path d="M179.549 102.15L179.541 102.153V102.145L179.549 102.15Z" fill="black" stroke="white" stroke-width="1.5" stroke-linejoin="round"/>
<path d="M225.8 105.112V111.044L220.524 114.09L205.247 122.909L205.26 116.967L215.388 111.122L225.8 105.112Z" fill="black" stroke="white" stroke-width="1.5" stroke-linejoin="round"/>
<path d="M241.215 119.944L235.938 122.991L235.437 123.28L205.247 140.711L169.362 119.995L164.138 116.979L169.276 114.011L174.507 117.034L205.231 134.783L230.316 120.304L230.8 120.024L236.077 116.979L241.215 119.944Z" fill="#222222" stroke="white" stroke-width="1.5" stroke-linejoin="round"/>
<path d="M225.802 67.3132L211.791 84.7654L206.019 91.9565L211.159 85.3767L225.802 67.3132Z" fill="#CBFC01" stroke="white" stroke-width="1.5" stroke-linejoin="round"/>
<path d="M189.305 69.2938L199.414 40L178.671 53.39L189.305 69.2938Z" fill="#CBFC01" stroke="black" stroke-width="1.5" stroke-linejoin="round"/>
<path d="M200.107 90.2767L179.539 102.149L189.937 108.148L205.224 116.969V122.903L184.807 111.105L179.566 108.079L179.539 102.151L169.274 108.077L179.655 114.069L205.249 128.841L225.664 117.057L236.078 111.046L200.107 90.2767ZM220.522 114.082L205.249 122.909L205.262 116.967L215.39 111.123L225.801 105.112V111.046L220.522 114.082Z" fill="#222222" stroke="white" stroke-width="1.5" stroke-linejoin="round"/>
<path d="M189.306 69.2938L219.643 59.6289L199.414 40L189.306 69.2938Z" fill="#CBFC01" stroke="black" stroke-width="1.5" stroke-linejoin="round"/>
<path d="M199.414 40L219.35 47.8576L219.643 59.6289L199.414 40Z" fill="#CBFC01" stroke="black" stroke-width="1.5" stroke-linejoin="round"/>
<path d="M189.306 69.2938L211.159 85.3767L225.802 67.3132L219.643 59.6289L189.306 69.2938Z" fill="#CBFC01" stroke="black" stroke-width="1.5" stroke-linejoin="round"/>
<path d="M225.802 67.3132L219.35 47.8577L219.643 59.6289L225.802 67.3132Z" fill="#CBFC01" stroke="black" stroke-width="1.5" stroke-linejoin="round"/>
<path d="M178.671 53.39L186.14 83.777L189.305 69.2938L178.671 53.39Z" fill="#CBFC01" stroke="black" stroke-width="1.5" stroke-linejoin="round"/>
<path d="M211.158 85.3767L186.14 83.7769L189.305 69.2938L211.158 85.3767Z" fill="#CBFC01" stroke="black" stroke-width="1.5" stroke-linejoin="round"/>
<path d="M211.158 85.3766L206.018 91.9564L186.14 83.7769L211.158 85.3766Z" fill="#CBFC01" stroke="black" stroke-width="1.5" stroke-linejoin="round"/>
<path d="M219.64 59.6289L211.158 85.3767" stroke="black" stroke-width="1.5" stroke-linejoin="round"/>
</svg>
