<svg width="592" height="351" viewBox="0 0 592 351" fill="none" xmlns="http://www.w3.org/2000/svg">
<g clip-path="url(#clip0_6303_5824)">
<path d="M592 0.888672H0.000488281V350.889H592V0.888672Z" fill="#222222"/>
<path d="M185.117 189.999L198.956 182.009L226.635 197.989L212.796 205.982L185.117 189.999Z" fill="#222222" stroke="white" stroke-width="2" stroke-linejoin="round"/>
<path d="M198.956 166.029L212.797 158.036L240.476 174.019L226.635 182.009L198.956 166.029Z" fill="#222222" stroke="white" stroke-width="2" stroke-linejoin="round"/>
<path d="M198.956 182.009V166.029L226.635 182.009V197.989L198.956 182.009Z" fill="#222222" stroke="white" stroke-width="2" stroke-linejoin="round"/>
<path d="M295.985 269.906V285.889L185 221.633L185.115 190.04L212.794 206.02V221.97L295.985 269.906Z" fill="#222222" stroke="white" stroke-width="2" stroke-linejoin="round"/>
<path d="M212.797 158.036V126.075L240.476 142.056V174.019L212.797 158.036Z" fill="#222222" stroke="white" stroke-width="2" stroke-linejoin="round"/>
<path d="M212.797 221.962V205.982L226.635 197.989V182.009L240.476 174.019V142.056L295.75 110.052L295.837 174.019L212.797 221.962Z" fill="black" stroke="white" stroke-width="2" stroke-linejoin="round"/>
<path d="M378.79 221.922V205.939L364.952 197.948V181.968L351.111 173.975V142.015L295.75 110.052V173.978L378.79 221.922Z" fill="#222222" stroke="white" stroke-width="2" stroke-linejoin="round"/>
<path d="M378.79 221.96V205.979L406.47 189.997V222.098L295.985 285.889V269.906" fill="black"/>
<path d="M378.791 221.96V205.979L406.47 189.997V222.098L295.985 285.889V269.906" stroke="white" stroke-width="2" stroke-linejoin="round"/>
<path d="M406.47 189.958L392.631 181.968L364.952 197.949L378.79 205.939L406.47 189.958Z" fill="#222222" stroke="white" stroke-width="2" stroke-linejoin="round"/>
<path d="M392.631 181.968V165.985L364.952 181.968V197.948L392.631 181.968Z" fill="black" stroke="white" stroke-width="2" stroke-linejoin="round"/>
<path d="M392.631 165.985L378.791 157.995L351.111 173.975L364.952 181.968L392.631 165.985Z" fill="#222222" stroke="white" stroke-width="2" stroke-linejoin="round"/>
<path d="M378.791 157.995V126.032L351.111 142.015V173.975L378.791 157.995Z" fill="black" stroke="white" stroke-width="2" stroke-linejoin="round"/>
<path d="M212.797 221.962L295.75 173.978L378.791 221.921L295.985 269.906L212.797 221.962Z" fill="#222222" stroke="white" stroke-width="2" stroke-linejoin="round"/>
<path d="M240.627 205.939V221.922L295.75 253.923V237.943L240.627 205.939Z" fill="#222222" stroke="white" stroke-width="2" stroke-linejoin="round"/>
<path d="M351.229 205.985V221.965L295.75 253.926V237.945L351.229 205.985Z" fill="black" stroke="white" stroke-width="2" stroke-linejoin="round"/>
<path d="M378.79 126.035L351.111 142.015L295.778 110.067L240.476 142.058L212.794 126.076L295.985 78.1321L323.429 94.0715L378.79 126.035Z" fill="#222222" stroke="white" stroke-width="2" stroke-linejoin="round"/>
<path d="M264.85 87.962H264.461L264.175 88.2244L255.881 95.8174L255.833 88.9549L255.826 87.962H254.833H254.48C253.101 87.962 251.778 87.414 250.803 86.4386L250.113 87.1285L250.803 86.4386C249.827 85.4633 249.279 84.1404 249.279 82.761V72.0896C249.279 70.7102 249.827 69.3874 250.803 68.412C251.778 67.4366 253.101 66.8887 254.48 66.8887H279.084C280.461 66.8918 281.78 67.4409 282.753 68.4158C283.726 69.3908 284.273 70.7121 284.273 72.0896V82.761C284.273 84.1404 283.725 85.4633 282.749 86.4386C281.774 87.414 280.451 87.962 279.072 87.962H264.85Z" fill="white" stroke="white" stroke-width="2"/>
<path d="M240.627 205.939L295.75 237.945L351.229 205.985" stroke="white" stroke-width="2" stroke-linejoin="round"/>
<path d="M246.212 126.098C253.424 126.098 259.271 120.252 259.271 113.04C259.271 105.828 253.424 99.981 246.212 99.981C239 99.981 233.153 105.828 233.153 113.04C233.153 120.252 239 126.098 246.212 126.098Z" fill="#CBFC01" stroke="black" stroke-width="2" stroke-linejoin="round"/>
<path d="M338.617 126.098C345.829 126.098 351.676 120.252 351.676 113.04C351.676 105.828 345.829 99.981 338.617 99.981C331.405 99.981 325.559 105.828 325.559 113.04C325.559 120.252 331.405 126.098 338.617 126.098Z" fill="#CBFC01" stroke="black" stroke-width="2" stroke-linejoin="round"/>
<path d="M256.262 79.9571C257.53 79.9571 258.557 78.9294 258.557 77.6618C258.557 76.3941 257.53 75.3665 256.262 75.3665C254.994 75.3665 253.967 76.3941 253.967 77.6618C253.967 78.9294 254.994 79.9571 256.262 79.9571Z" fill="black"/>
<path d="M266.77 79.9571C268.038 79.9571 269.065 78.9294 269.065 77.6618C269.065 76.3941 268.038 75.3665 266.77 75.3665C265.502 75.3665 264.475 76.3941 264.475 77.6618C264.475 78.9294 265.502 79.9571 266.77 79.9571Z" fill="black"/>
<path d="M277.278 79.9571C278.545 79.9571 279.573 78.9294 279.573 77.6618C279.573 76.3941 278.545 75.3665 277.278 75.3665C276.01 75.3665 274.982 76.3941 274.982 77.6618C274.982 78.9294 276.01 79.9571 277.278 79.9571Z" fill="black"/>
<path d="M319.198 88.2244L318.911 87.962H318.522H304.301C302.921 87.962 301.598 87.414 300.623 86.4386L299.916 87.1457L300.623 86.4386C299.648 85.4633 299.1 84.1404 299.1 82.761V72.0896C299.1 70.7102 299.648 69.3874 300.623 68.412C301.598 67.4366 302.921 66.8887 304.301 66.8887H328.905C330.284 66.8887 331.607 67.4366 332.582 68.412C333.558 69.3874 334.106 70.7102 334.106 72.0896V82.761C334.106 84.1404 333.558 85.4633 332.582 86.4386C331.607 87.414 330.284 87.962 328.905 87.962H328.539H327.546L327.539 88.9549L327.491 95.8174L319.198 88.2244Z" fill="white" stroke="white" stroke-width="2"/>
<path d="M327.11 79.9571C328.377 79.9571 329.405 78.9294 329.405 77.6618C329.405 76.3941 328.377 75.3665 327.11 75.3665C325.842 75.3665 324.814 76.3941 324.814 77.6618C324.814 78.9294 325.842 79.9571 327.11 79.9571Z" fill="black"/>
<path d="M316.602 79.9571C317.87 79.9571 318.897 78.9294 318.897 77.6618C318.897 76.3941 317.87 75.3665 316.602 75.3665C315.334 75.3665 314.307 76.3941 314.307 77.6618C314.307 78.9294 315.334 79.9571 316.602 79.9571Z" fill="black"/>
<path d="M306.094 79.9571C307.362 79.9571 308.389 78.9294 308.389 77.6618C308.389 76.3941 307.362 75.3665 306.094 75.3665C304.826 75.3665 303.799 76.3941 303.799 77.6618C303.799 78.9294 304.826 79.9571 306.094 79.9571Z" fill="black"/>
<path d="M327.465 176.312L308.66 199.738L300.913 209.389L307.812 200.558L327.465 176.312Z" fill="#CBFC01" stroke="white" stroke-width="2" stroke-linejoin="round"/>
<path d="M278.482 178.973L319.197 166.001L292.05 139.656L278.482 178.973Z" fill="#CBFC01" stroke="black" stroke-width="2" stroke-linejoin="round"/>
<path d="M292.049 139.656L318.805 150.202L319.196 166.001L292.049 139.656Z" fill="#CBFC01" stroke="black" stroke-width="2" stroke-linejoin="round"/>
<path d="M278.482 178.973L307.813 200.558L327.466 176.312L319.197 166.001L278.482 178.973Z" fill="#CBFC01" stroke="black" stroke-width="2" stroke-linejoin="round"/>
<path d="M327.465 176.312L318.806 150.202L319.197 166.001L327.465 176.312Z" fill="#CBFC01" stroke="black" stroke-width="2" stroke-linejoin="round"/>
<path d="M264.209 157.627L274.234 198.411L278.482 178.973L264.209 157.627Z" fill="#CBFC01" stroke="black" stroke-width="2" stroke-linejoin="round"/>
<path d="M307.813 200.558L274.234 198.411L278.482 178.973L307.813 200.558Z" fill="#CBFC01" stroke="black" stroke-width="2" stroke-linejoin="round"/>
<path d="M307.813 200.558L300.914 209.389L274.234 198.411L307.813 200.558Z" fill="#CBFC01" stroke="black" stroke-width="2" stroke-linejoin="round"/>
<path d="M278.482 178.973L292.049 139.656L264.209 157.627L278.482 178.973Z" fill="#CBFC01" stroke="black" stroke-width="2" stroke-linejoin="round"/>
<path d="M319.197 166.001L307.812 200.558" stroke="black" stroke-width="2" stroke-linejoin="round"/>
</g>
<rect x="0.5" y="1.38867" width="591" height="349" stroke="#444444"/>
<defs>
<clipPath id="clip0_6303_5824">
<rect y="0.888672" width="592" height="350" fill="white"/>
</clipPath>
</defs>
</svg>
