<svg width="406" height="240" viewBox="0 0 406 240" fill="none" xmlns="http://www.w3.org/2000/svg">
<path d="M202.74 183.64L167 163.02L202.757 142.379L238.506 163.02L202.74 183.64Z" fill="#222222" stroke="white" stroke-width="1.5" stroke-linejoin="round"/>
<path d="M202.74 200L167.009 179.427L167 163.01L202.74 183.63V200Z" fill="#222222" stroke="white" stroke-width="1.5" stroke-linejoin="round"/>
<path d="M215.043 107.991L209.835 110.998L204.626 107.991L209.835 104.985L215.043 107.991Z" fill="#222222" stroke="white" stroke-width="1.5" stroke-linejoin="round"/>
<path d="M199.419 98.9702L194.211 101.977L189.002 98.9702L194.211 95.9638L199.419 98.9702Z" fill="#222222" stroke="white" stroke-width="1.5" stroke-linejoin="round"/>
<path d="M209.836 110.998V171.136L215.043 168.13V107.991L209.836 110.998Z" fill="black" stroke="white" stroke-width="1.5" stroke-linejoin="round"/>
<path d="M194.211 101.978V162.115L199.418 159.109V98.9702L194.211 101.978Z" fill="black" stroke="white" stroke-width="1.5" stroke-linejoin="round"/>
<path d="M204.628 107.991V114.006L194.211 107.991L199.418 104.985L204.628 107.991Z" fill="#222222" stroke="white" stroke-width="1.5" stroke-linejoin="round"/>
<path d="M204.628 126.033V132.048L194.211 126.033L199.418 123.027L204.628 126.033Z" fill="#222222" stroke="white" stroke-width="1.5" stroke-linejoin="round"/>
<path d="M204.628 144.075V150.088L194.211 144.075L199.418 141.067L204.628 144.075Z" fill="#222222" stroke="white" stroke-width="1.5" stroke-linejoin="round"/>
<path d="M204.626 107.991V114.004L194.211 107.991V101.978L189.002 98.9719V159.109L194.211 162.115V150.088L204.626 156.102V168.13L209.834 171.141V110.998L204.626 107.991ZM204.626 150.091L194.211 144.078V132.046L204.626 138.06V150.091ZM204.626 132.049L194.211 126.037V114.006L204.626 120.02V132.049Z" fill="#222222" stroke="white" stroke-width="1.5" stroke-linejoin="round"/>
<path d="M202.739 183.63V200L238.503 179.491L238.505 163.01L202.739 183.63Z" fill="black" stroke="white" stroke-width="1.5" stroke-linejoin="round"/>
<path d="M183.564 54.262C183.448 54.8847 183.374 55.5144 183.342 56.1469C181.722 55.8464 180.271 56.0211 179.057 56.615L183.564 54.262Z" fill="black" stroke="white" stroke-width="1.5" stroke-linejoin="round"/>
<path d="M239.72 89.6435C239.583 91.0557 239.113 92.4153 238.349 93.6108C237.585 94.8063 236.549 95.8037 235.325 96.5211L225.624 102.539C227.371 101.439 228.377 99.2672 228.377 96.2503C228.377 91.0096 225.392 84.2177 220.866 80.1789C220.866 80.1649 220.866 80.1527 220.866 80.1387C220.866 80.1247 220.866 80.1247 220.866 80.1177C220.562 75.878 218.815 71.7326 216.383 68.6651C214.025 65.6831 211.132 63.7301 208.522 63.2881C206.302 57.8326 202.233 52.1709 196.944 49.1173C193.549 47.1573 190.569 46.8359 188.269 47.746L198.75 41.0642C208.625 35.4881 219.631 53.5108 219.854 56.1958C219.854 56.1958 229.911 57.8169 232.357 73.2419C238.984 79.9343 240.102 85.7287 239.72 89.6435Z" fill="black" stroke="white" stroke-width="1.5" stroke-linejoin="round"/>
<path d="M228.384 96.2433C228.384 99.2672 227.373 101.439 225.631 102.532L225.579 102.565C223.482 103.855 220.357 103.613 216.67 101.489L187.079 84.4046C180.624 80.6767 175.364 71.6121 175.364 64.214C175.364 60.4564 176.722 57.8535 178.905 56.6866L179.055 56.608C180.27 56.0071 181.728 55.8359 183.341 56.1416C183.373 55.5091 183.447 54.8795 183.562 54.2567C184.163 51.0337 185.833 48.6998 188.267 47.7408C190.567 46.8306 193.548 47.1521 196.942 49.1121C202.233 52.1657 206.3 57.8273 208.52 63.2829C211.13 63.7249 214.023 65.6779 216.381 68.6598C218.813 71.7344 220.56 75.8728 220.864 80.1125C220.864 80.1125 220.864 80.1265 220.864 80.1334C220.864 80.1404 220.864 80.1596 220.864 80.1736C225.395 84.2107 228.384 91.0061 228.384 96.2433Z" fill="#CBFC01" stroke="black" stroke-width="1.5" stroke-linejoin="round"/>
</svg>
