<svg width="592" height="351" viewBox="0 0 592 351" fill="none" xmlns="http://www.w3.org/2000/svg">
<g clip-path="url(#clip0_6303_5897)">
<path d="M592 0.577637H0V350.578H592V0.577637Z" fill="#222222"/>
<path d="M371.995 200.538L221.306 201.268L203.593 201.354V231.647C203.022 245.685 211.934 259.769 230.36 270.413C262.557 289.002 312.909 290.826 349.299 275.985V260.186L363.906 268.639C379.137 259.25 387.527 247.526 389.057 235.593C389.117 235.14 389.166 234.687 389.202 234.235V200.455L371.995 200.538Z" fill="#222222" stroke="white" stroke-width="2" stroke-linejoin="round"/>
<path d="M371.996 200.538L221.307 201.268C224.422 198.795 227.719 196.56 231.171 194.583C267.664 173.516 326.469 173.308 362.519 194.124C365.834 196.021 369.002 198.165 371.996 200.538Z" fill="black" stroke="white" stroke-width="2" stroke-linejoin="round"/>
<path d="M389.216 234.248V229.003C389.364 230.748 389.364 232.503 389.216 234.248Z" fill="black" stroke="white" stroke-width="2" stroke-linejoin="round"/>
<path d="M297 252.119C348.295 251.582 389.626 227.142 389.316 197.532C389.006 167.922 347.172 144.353 295.877 144.891C244.583 145.428 203.251 169.867 203.561 199.477C203.872 229.088 245.705 252.656 297 252.119Z" fill="black" stroke="white" stroke-width="2" stroke-linejoin="round"/>
<path d="M296.876 236.786C336.775 236.368 368.925 217.358 368.683 194.325C368.442 171.292 335.902 152.958 296.002 153.376C256.103 153.794 223.953 172.805 224.195 195.838C224.436 218.871 256.976 237.204 296.876 236.786Z" fill="black" stroke="white" stroke-width="2" stroke-linejoin="round"/>
<path d="M224.228 194.586V171.021L368.609 170.324V197.623L297.738 223.607L248.437 212.434L224.228 194.586Z" fill="black" stroke="white" stroke-width="2" stroke-linejoin="round"/>
<path d="M296.875 210.516C336.774 210.098 368.924 191.088 368.682 168.055C368.441 145.022 335.901 126.688 296.001 127.106C256.102 127.524 223.952 146.535 224.194 169.568C224.435 192.601 256.975 210.934 296.875 210.516Z" fill="#222222" stroke="white" stroke-width="2" stroke-linejoin="round"/>
<path d="M347.842 165.4C350.419 166.877 352.883 168.545 355.211 170.39L238.004 170.955C240.43 169.032 242.999 167.294 245.687 165.757C274.06 149.363 319.803 149.208 347.842 165.4Z" fill="black" stroke="white" stroke-width="2" stroke-linejoin="round"/>
<path d="M368.618 196.645V192.504C368.735 193.882 368.735 195.267 368.618 196.645Z" fill="black" stroke="white" stroke-width="2" stroke-linejoin="round"/>
<path d="M368.619 170.324V196.645C368.589 196.975 368.553 197.326 368.51 197.663C367.264 207.372 360.166 216.919 347.235 224.384C318.852 240.771 273.109 240.933 245.067 224.744C230.725 216.463 223.792 205.508 224.248 194.589V171.021L238.028 170.955L355.235 170.39L368.619 170.324Z" fill="#222222" stroke="white" stroke-width="2" stroke-linejoin="round"/>
<path d="M296.875 210.516C336.774 210.098 368.924 191.088 368.682 168.055C368.441 145.022 335.901 126.688 296.001 127.106C256.102 127.524 223.952 146.535 224.194 169.568C224.435 192.601 256.975 210.934 296.875 210.516Z" fill="black" stroke="white" stroke-width="2" stroke-linejoin="round"/>
<path d="M296.812 202.603C330.879 202.246 358.329 186.014 358.123 166.348C357.917 146.682 330.133 131.029 296.066 131.386C261.999 131.743 234.55 147.974 234.756 167.64C234.962 187.306 262.745 202.959 296.812 202.603Z" fill="black" stroke="white" stroke-width="2" stroke-linejoin="round"/>
<path d="M234.782 166.567V146.445L358.06 145.85V169.157L297.55 191.344L255.456 181.804L234.782 166.567Z" fill="black" stroke="white" stroke-width="2" stroke-linejoin="round"/>
<path d="M296.815 180.166C330.882 179.809 358.332 163.577 358.126 143.911C357.92 124.245 330.136 108.592 296.069 108.949C262.002 109.306 234.553 125.537 234.759 145.203C234.965 164.869 262.748 180.522 296.815 180.166Z" fill="#222222" stroke="white" stroke-width="2" stroke-linejoin="round"/>
<path d="M346.623 145.906L246.547 146.389C248.615 144.747 250.805 143.263 253.097 141.951C277.333 127.959 316.39 127.82 340.338 141.643C342.538 142.904 344.639 144.329 346.623 145.906Z" fill="#222222" stroke="white" stroke-width="2" stroke-linejoin="round"/>
<path d="M358.06 145.85C358.06 145.85 357.961 167.036 357.961 169.197C357.961 177.551 350.84 185.634 339.786 191.999C315.55 205.99 276.493 206.129 252.544 192.306C240.284 185.228 234.782 177.244 234.782 166.491V146.445L246.547 146.389L346.623 145.906L358.06 145.85Z" fill="#222222" stroke="white" stroke-width="2" stroke-linejoin="round"/>
<path d="M296.815 180.166C330.882 179.809 358.332 163.577 358.126 143.911C357.92 124.245 330.136 108.592 296.069 108.949C262.002 109.306 234.553 125.537 234.759 145.203C234.965 164.869 262.748 180.522 296.815 180.166Z" fill="#222222" stroke="white" stroke-width="2" stroke-linejoin="round"/>
<path d="M335.645 142.877C335.682 148.89 331.488 154.55 324.263 158.781C317.064 162.997 307.033 165.672 295.88 165.742C284.727 165.812 274.663 163.264 267.412 159.138C260.134 154.998 255.869 149.391 255.831 143.379C255.793 137.367 259.988 131.707 267.213 127.475C274.412 123.259 284.443 120.584 295.596 120.514C306.748 120.444 316.813 122.992 324.064 127.118C331.342 131.258 335.607 136.865 335.645 142.877Z" fill="#CBFC01" stroke="black" stroke-width="2"/>
<path d="M295.781 150.082C302.434 150.04 307.808 146.893 307.784 143.053C307.76 139.212 302.347 136.133 295.694 136.175C289.041 136.217 283.667 139.364 283.691 143.204C283.715 147.044 289.128 150.124 295.781 150.082Z" fill="#222222"/>
<path d="M298.164 141.055C297.806 141.459 297.332 141.743 296.807 141.87C296.281 141.996 295.73 141.959 295.227 141.762L271.794 132.84L279.877 129.023L246.566 99.0338L231.326 95.0253L216.396 81.5855L231.775 81.2187L230.526 65.8887L245.433 79.3053L251.13 94.1463L284.312 124.017L287.286 115.593L298.564 138.064C298.677 138.289 298.758 138.528 298.806 138.775C298.883 139.179 298.866 139.595 298.755 139.991C298.643 140.387 298.441 140.751 298.164 141.055Z" fill="#222222" stroke="white" stroke-width="2" stroke-linejoin="round"/>
<path d="M349.316 260.186L363.919 268.639V246.795C363.919 241.809 360.889 239.525 357.152 241.677L356.088 242.291C352.347 244.449 349.316 250.222 349.316 255.225V275.988V260.186Z" fill="black" stroke="white" stroke-width="2" stroke-linejoin="round"/>
</g>
<rect x="0.5" y="1.38867" width="591" height="349" stroke="#444444"/>
<defs>
<clipPath id="clip0_6303_5897">
<rect y="0.888672" width="592" height="350" fill="white"/>
</clipPath>
</defs>
</svg>
