<svg width="49" height="48" viewBox="0 0 49 48" fill="none" xmlns="http://www.w3.org/2000/svg">
<path d="M22.9153 46.1339L2.24316 34.1988V30.3489L22.9153 42.284V46.1339Z" fill="#222222" stroke="white"/>
<path d="M23.9155 46.1339V42.284L46.0324 29.5145V33.3649L23.9155 46.1339Z" fill="#222222" stroke="white"/>
<path d="M7.27238 29.0498L6.52243 29.4828L7.27238 29.9158L23.1641 39.0916L23.4141 39.2359L23.6641 39.0916L41.0024 29.0814L41.7523 28.6484L41.0024 28.2153L25.1101 19.0396L24.8601 18.8953L24.6101 19.0396L7.27238 29.0498ZM45.531 28.6484L23.4141 41.4179L2.74315 29.4828L24.8601 16.7138L45.531 28.6484Z" fill="#222222" stroke="white"/>
<path d="M11.8569 31.408L8.52248 29.4831L24.3601 20.3389V24.1893L11.8569 31.408Z" fill="#222222" stroke="white"/>
<path d="M36.4183 30.5741L25.3599 24.1893V20.3389L39.7523 28.6487L36.4183 30.5741Z" fill="#222222" stroke="white"/>
<path d="M1.74316 34.4874V29.4829L23.4153 41.9954V46.9999L1.74316 34.4874Z" fill="#222222" stroke="white" stroke-linejoin="round"/>
<path d="M23.4155 41.9954L46.5324 28.6484V33.6535L23.4155 46.9999V41.9954Z" fill="black" stroke="white" stroke-linejoin="round"/>
<path d="M24.8601 16.1365L1.74316 29.4828L23.4141 41.9953L46.531 28.6484L24.8601 16.1365ZM7.52239 29.4828L24.8601 19.4726L40.7524 28.6484L23.4141 38.6586L7.52239 29.4828Z" fill="#222222" stroke="white" stroke-linejoin="round"/>
<path d="M24.8601 19.4729V24.478L11.8569 31.9854L7.52246 29.4831L24.8601 19.4729Z" fill="black" stroke="white" stroke-linejoin="round"/>
<path d="M24.8599 19.4729V24.478L36.4183 31.1515L40.7522 28.6486L24.8599 19.4729Z" fill="#222222" stroke="white" stroke-linejoin="round"/>
<path d="M6.07715 26.9799L23.4148 36.9878V31.9827L6.07715 21.9753V26.9799Z" fill="#222222" stroke="white" stroke-linejoin="round"/>
<path d="M23.4155 31.9832V36.9883L42.198 26.1465V21.1414L23.4155 31.9832Z" fill="black" stroke="white" stroke-linejoin="round"/>
<path d="M42.1973 21.141L24.8596 11.1313L6.07715 21.9754L23.4148 31.9828L42.1973 21.141Z" fill="#222222" stroke="white" stroke-linejoin="round"/>
<path d="M23.415 24.7346L17.1909 21.1413L23.4149 17.548L29.6389 21.1413L23.415 24.7346Z" fill="#222222" stroke="white"/>
<path d="M23.415 16.9707V20.262L19.0805 22.8097L16.1909 21.1413L23.415 16.9707Z" fill="black" stroke="white" stroke-linejoin="round"/>
<path d="M23.4155 16.9707V20.262L27.7499 22.8097L30.6396 21.1413L23.4155 16.9707Z" fill="#222222" stroke="white" stroke-linejoin="round"/>
<path d="M22.149 20.7625L20.1249 19.6461C20.1212 19.6438 20.1177 19.6411 20.1145 19.6381C19.0405 19.056 18.4478 17.7916 18.4478 16.0761C18.4478 12.6375 20.8703 8.44221 23.8482 6.72207C25.2336 5.92201 26.5574 5.76433 27.5755 6.27737L29.6616 7.56447L29.1516 8.46021C29.2606 8.92403 29.3138 9.3992 29.3103 9.87565C29.3103 13.3142 26.8877 17.5096 23.9098 19.2297C23.5322 19.4497 23.1322 19.6285 22.7164 19.7631L22.1497 20.7608C22.1417 20.7768 22.1594 20.7682 22.149 20.7625Z" fill="#CBFC01" stroke="black" stroke-linejoin="round"/>
<path d="M29.6348 16.3176C31.7319 12.6853 31.7318 8.75926 29.6347 7.54847C27.5375 6.33767 24.1374 8.30067 22.0403 11.9329C19.9432 15.5652 19.9432 19.4913 22.0404 20.7021C24.1376 21.9129 27.5377 19.9499 29.6348 16.3176Z" fill="#CBFC01" stroke="black" stroke-linejoin="round"/>
<path d="M26.6608 12.9599C26.3837 13.0399 26.1066 13.0399 25.8988 12.9199C25.6909 12.9599 25.6216 12.7599 25.6217 12.5999C25.6217 12.4399 25.6909 12.1599 25.8295 11.9999C26.0373 11.7199 26.2452 11.4399 26.453 11.3999C26.8687 11.1599 27.2151 11.1999 27.4229 11.3999L28.0465 10.0799C27.8386 9.95987 27.6308 9.91988 27.423 9.87988C27.2151 9.83989 26.938 9.9199 26.6609 10.0799L26.6609 8.95992L25.8296 9.43994L25.8296 10.5599C25.4832 10.8399 25.1367 11.2799 24.8596 11.7599C24.5825 12.3199 24.3746 12.9199 24.4439 13.3599C24.4439 13.8399 24.5824 14.2399 24.8595 14.3999C25.2059 14.5999 25.6909 14.5599 26.1065 14.5598C26.3144 14.5198 26.5915 14.5198 26.7993 14.5598C26.9379 14.6398 27.0071 14.8398 27.0071 15.0798C27.0071 15.3198 26.9378 15.5998 26.7993 15.9198C26.5914 16.2798 26.3143 16.5198 26.1065 16.6398C25.8294 16.7998 25.483 16.9198 25.2751 16.7998C25.0673 16.7598 24.8595 16.6398 24.7209 16.4798L24.0281 17.7598C24.2359 17.9598 24.4437 18.0798 24.7209 18.1598C25.0672 18.1998 25.4829 18.1998 25.8986 17.9598L25.8986 18.9998L26.6606 18.5597L26.6607 17.3598C27.0764 17.0398 27.4228 16.5998 27.6999 16.1198C28.0463 15.5198 28.2542 14.7598 28.2542 14.1998C28.2542 13.7198 28.1156 13.2398 27.7693 13.1198C27.4229 12.9198 27.0765 12.8798 26.6608 12.9599Z" fill="black"/>
<path d="M19.0811 22.8097L23.4155 25.312L30.6395 21.1414" stroke="white" stroke-linejoin="round"/>
</svg>
