<svg width="50" height="51" viewBox="0 0 50 51" fill="none" xmlns="http://www.w3.org/2000/svg">
<g clip-path="url(#clip0_6353_191)">
<path fill-rule="evenodd" clip-rule="evenodd" d="M7.5 0.888672C3.35786 0.888672 0 4.24654 0 8.38867V43.3887C0 47.5308 3.35786 50.8887 7.5 50.8887H42.5C46.6421 50.8887 50 47.5308 50 43.3887V8.38867C50 4.24654 46.6421 0.888672 42.5 0.888672H7.5ZM34.2715 11.5547L34.1445 11.4277C30.2301 14.39 28.1143 16.0827 27.7969 16.5059V36.3105L21.5762 31.2324V11.5547H21.3223L15.2285 16.5059V36.4375L21.3223 41.3887C21.7454 41.3887 23.946 39.696 27.9238 36.3105C31.8382 33.3271 33.9541 31.6344 34.2715 31.2324V11.5547Z" fill="black"/>
</g>
<defs>
<clipPath id="clip0_6353_191">
<rect width="50" height="50" fill="white" transform="translate(0 0.888672)"/>
</clipPath>
</defs>
</svg>
